<svg width="58" height="58" viewBox="0 0 58 58" fill="none" xmlns="http://www.w3.org/2000/svg">
<g opacity="0.9" clip-path="url(#clip0_115_1468)">
<rect width="58" height="58" fill="white"/>
<path d="M46.3288 0H11.6712C5.22539 0 0 5.22539 0 11.6712V46.3288C0 52.7746 5.22539 58 11.6712 58H46.3288C52.7746 58 58 52.7746 58 46.3288V11.6712C58 5.22539 52.7746 0 46.3288 0Z" fill="#999999"/>
<mask id="mask0_115_1468" style="mask-type:luminance" maskUnits="userSpaceOnUse" x="0" y="0" width="58" height="58">
<path d="M46.3288 0H11.6712C5.22539 0 0 5.22539 0 11.6712V46.3288C0 52.7746 5.22539 58 11.6712 58H46.3288C52.7746 58 58 52.7746 58 46.3288V11.6712C58 5.22539 52.7746 0 46.3288 0Z" fill="white"/>
</mask>
<g mask="url(#mask0_115_1468)">
<path d="M4.64 0H53.3498C55.914 0 57.9898 2.08596 57.9898 4.64V53.3498C57.9898 55.914 55.9039 58 53.3396 58H4.65018C2.08597 58 0 55.914 0 53.3498V4.64C0 2.08596 2.08596 0 4.64 0Z" fill="#999999"/>
</g>
<path d="M38.8804 8.04877H21.1547C14.4695 8.04877 9.05615 13.4621 9.05615 20.1474V37.873C9.05615 44.5582 14.4695 49.9716 21.1547 49.9716H38.8804C45.5656 49.9716 50.9789 44.5582 50.9789 37.873V20.1474C50.9789 13.4621 45.5656 8.04877 38.8804 8.04877ZM47.1225 38.1782C47.1225 42.6147 43.5204 46.2067 39.094 46.2067H20.9512C16.5147 46.2067 12.9228 42.6046 12.9228 38.1782V20.0456C12.9228 15.6091 16.5249 12.0172 20.9512 12.0172H39.094C43.5305 12.0172 47.1225 15.6091 47.1225 20.0456V38.1782Z" fill="white"/>
<path d="M30.0174 18.2344C24.0139 18.2344 19.1399 23.1084 19.1399 29.1119C19.1399 35.1154 24.0038 39.9895 30.0174 39.9895C36.0311 39.9895 40.895 35.1154 40.895 29.1119C40.895 23.1084 36.0209 18.2344 30.0174 18.2344ZM30.0174 36.1533C26.1304 36.1533 22.9659 32.9989 22.9659 29.1017C22.9659 25.2046 26.1202 22.0502 30.0174 22.0502C33.9146 22.0502 37.069 25.2046 37.069 29.1017C37.069 32.9989 33.9146 36.1533 30.0174 36.1533Z" fill="white"/>
<path d="M40.2439 15.2835C38.8499 15.2835 37.7102 16.4232 37.7102 17.8172C37.7102 19.2112 38.8499 20.3509 40.2439 20.3509C41.6379 20.3509 42.7776 19.2214 42.7776 17.8172C42.7776 16.413 41.6481 15.2835 40.2439 15.2835Z" fill="white"/>
</g>
<defs>
<clipPath id="clip0_115_1468">
<rect width="58" height="58" fill="white"/>
</clipPath>
</defs>
</svg>
