<svg width="180" height="21" viewBox="0 0 180 21" fill="none" xmlns="http://www.w3.org/2000/svg">
<mask id="mask0_115_1377" style="mask-type:luminance" maskUnits="userSpaceOnUse" x="0" y="4" width="26" height="13">
<path d="M23.4372 4.77558C23.4372 4.77558 23.2121 5.02164 23.077 5.64052C23.077 5.64052 22.5442 8.89898 22.229 10.4872C22.229 10.4872 21.6962 13.4474 21.2084 14.3198C21.2084 14.3198 20.7056 15.3935 20.2479 14.5062C20.2479 14.5062 19.0547 11.2925 17.6889 9.74155C17.6889 9.74155 17.1111 9.11521 16.0154 9.47312C16.0154 9.47312 15.2275 9.77138 14.6421 11.464C14.6421 11.464 14.2219 13.0671 13.9518 13.7382C13.9518 13.7382 13.5015 14.8492 12.751 14.8343C12.751 14.8343 12.3008 15.1027 11.9105 12.8956C11.9105 12.8956 11.3027 9.13013 10.905 7.527C10.905 7.527 9.98942 4.20889 8.47354 4.90234C8.47354 4.90234 7.483 4.87997 6.72506 8.29501C6.72506 8.29501 6.27478 11.0837 5.71195 13.85C5.71195 13.85 5.31423 15.1251 4.82644 14.8567C4.82644 14.8567 4.09103 14.6628 3.28806 9.93542L2.4926 5.65544C2.4926 5.65544 1.82473 3.89572 0.721588 4.5668C0.721588 4.5668 -0.426608 5.28262 0.173739 7.82525C0.173739 7.82525 0.969215 11.4789 3.1905 15.222C3.1905 15.222 3.91091 16.087 4.78142 16.3107C4.78142 16.3107 5.16415 16.4896 5.96712 15.8633C5.96712 15.8633 6.71004 15.0654 6.9877 14.1036C6.9877 14.1036 7.71564 11.7622 7.90325 10.7556C7.90325 10.7556 8.21844 9.68936 8.42105 9.28671C8.42105 9.28671 8.76625 8.39194 9.30656 9.19724C9.30656 9.19724 9.74181 9.63717 10.2896 12.4482C10.2896 12.4482 10.6423 13.9843 11.1151 14.8343C11.1151 14.8343 11.7605 16.1914 12.4959 16.1914C12.4959 16.1914 12.8636 16.3703 13.7716 15.9155C13.7716 15.9155 15.3926 14.1707 15.7303 12.8136C15.7303 12.8136 16.128 12.053 16.4582 11.9859C16.4582 11.9859 16.931 11.7622 17.3137 12.4557C17.3137 12.4557 18.0716 14.7746 18.9421 15.6396C18.9421 15.6396 19.4449 16.4001 20.9833 16.2585C20.9833 16.2585 22.2365 15.9229 23.3322 13.686C23.3322 13.686 24.9456 10.2039 25.1707 8.75731C25.1707 8.75731 26.1238 5.72255 24.9981 4.58917C24.9981 4.58917 24.698 4.32074 24.2927 4.32074C24.0301 4.32074 23.7299 4.43258 23.4297 4.79049" fill="white"/>
</mask>
<g mask="url(#mask0_115_1377)">
<path d="M-1.59729 9.75647C-1.59729 6.16248 0.66903 3.23956 3.47566 3.23956C6.28979 3.23956 8.57111 6.14011 8.58611 9.74156C8.59362 13.3356 6.3273 16.2585 3.51317 16.2659C0.699038 16.2659 -1.58227 13.3654 -1.58978 9.76393" fill="#595959" fill-opacity="0.7"/>
<path d="M1.61457 11.0837C1.60706 7.4897 3.88089 4.57424 6.68751 4.55933C9.49414 4.55933 11.783 7.46733 11.7905 11.0613C11.7905 14.6628 9.52413 17.5782 6.71 17.5857C3.90338 17.5857 1.61456 14.6851 1.60706 11.0837" fill="#595959" fill-opacity="0.7"/>
<path d="M3.91089 10.5469C3.91089 6.95288 6.17721 4.03742 8.98383 4.02997C11.798 4.02997 14.0793 6.93051 14.0868 10.532C14.0943 14.1334 11.828 17.0489 9.01383 17.0563C6.1997 17.0563 3.91839 14.1558 3.91089 10.5543" fill="#595959" fill-opacity="0.7"/>
<path d="M6.56746 11.8815C6.55996 8.28755 8.83378 5.36463 11.6404 5.35718C14.447 5.35718 16.7359 8.25772 16.7434 11.8592C16.7509 15.4606 14.4845 18.3761 11.6704 18.3835C8.85628 18.3835 6.57497 15.483 6.56746 11.8815Z" fill="#595959" fill-opacity="0.7"/>
<path d="M8.78876 10.2709C8.78876 6.67695 11.0551 3.75404 13.8617 3.74658C16.6758 3.74658 18.9647 6.64713 18.9722 10.2486C18.9722 13.85 16.7058 16.7655 13.8992 16.7729C11.0851 16.7729 8.80377 13.8724 8.79627 10.2709" fill="#595959" fill-opacity="0.7"/>
<path d="M9.83929 11.9636C9.83929 8.36212 12.1056 5.44667 14.9122 5.43921C17.7264 5.43921 20.0077 8.33976 20.0227 11.9412C20.0227 15.5352 17.7639 18.4581 14.9498 18.4656C12.1356 18.4656 9.8468 15.565 9.83929 11.9636Z" fill="#595959" fill-opacity="0.7"/>
<path d="M12.3533 11.4193C12.3533 7.82527 14.6197 4.90235 17.4263 4.8949C20.2404 4.8949 22.5217 7.79544 22.5367 11.3969C22.5442 14.9909 20.2779 17.9138 17.4638 17.9213C14.6497 17.9213 12.3683 15.0133 12.3608 11.4193" fill="#595959" fill-opacity="0.7"/>
<path d="M14.6497 9.98762C14.6422 6.39363 16.916 3.47071 19.7226 3.46326C22.5292 3.46326 24.8181 6.3638 24.8256 9.96525C24.8256 13.5592 22.5592 16.4822 19.7526 16.4896C16.9385 16.4896 14.6572 13.5891 14.6497 9.98762Z" fill="#595959" fill-opacity="0.7"/>
<path d="M17.021 9.71919C17.021 6.11774 19.2873 3.20228 22.0939 3.19482C24.9081 3.19482 27.1894 6.09537 27.1969 9.69682C27.2044 13.2908 24.9381 16.2137 22.1239 16.2212C19.3098 16.2212 17.0285 13.3132 17.0135 9.72665" fill="#595959" fill-opacity="0.7"/>
<path d="M19.0472 11.1359C19.0397 7.54194 21.3135 4.61903 24.1201 4.61157C26.9268 4.61157 29.2156 7.51958 29.2231 11.1136C29.2306 14.7076 26.9643 17.6305 24.1501 17.6379C21.336 17.6379 19.0547 14.7374 19.0397 11.1359" fill="#595959" fill-opacity="0.7"/>
<path d="M-5.91227 11.1956C-5.91978 7.60158 -3.64595 4.67866 -0.839328 4.6712C1.9748 4.6712 4.25612 7.57174 4.27113 11.1732C4.27113 14.7672 2.00481 17.6901 -0.801816 17.6976C-3.61595 17.705 -5.89726 14.797 -5.90476 11.203" fill="#595959" fill-opacity="0.7"/>
</g>
<path d="M31.0691 4.93964H31.1441C31.5644 4.93964 31.9246 5.37957 32.2323 6.25197L35.6618 13.2312C38.1382 7.99678 39.4515 5.30501 39.6091 5.13351C39.7892 4.9993 39.9693 4.93219 40.1269 4.93219C40.6597 5.02912 40.9298 5.27519 40.9298 5.67783V5.72257C40.9298 5.85678 40.3445 7.13183 39.1813 9.54026L36.2321 15.565C36.022 15.7291 35.8344 15.8036 35.6693 15.8036H35.6392C35.189 15.8036 34.7838 15.3041 34.4386 14.2974C31.8646 9.0705 30.4988 6.25943 30.3562 5.84933V5.66292C30.4463 5.1857 30.6864 4.93964 31.0766 4.93964" fill="#595959" fill-opacity="0.7"/>
<path d="M43.9466 2.21808C44.4569 2.34484 44.712 2.56853 44.712 2.89661V3.12776C44.712 3.50058 44.4344 3.73173 43.8716 3.80629C43.5114 3.80629 43.2712 3.54532 43.1436 3.01591C43.2487 2.48651 43.5188 2.22553 43.9391 2.22553M43.9541 4.92476C44.4644 5.05151 44.7196 5.27521 44.7196 5.60329V15.0878C44.7196 15.483 44.4719 15.7217 43.9616 15.8037H43.9166C43.5114 15.8037 43.2637 15.5427 43.1586 15.0133V5.83444C43.2112 5.23047 43.4813 4.92476 43.9466 4.92476" fill="#595959" fill-opacity="0.7"/>
<path d="M48.5018 4.9098C49.012 5.03656 49.2672 5.26025 49.2672 5.58833V6.46073C50.4379 5.42429 51.6836 4.90234 53.0194 4.90234C53.7323 4.90234 54.4977 5.07384 55.3082 5.41684C55.5183 5.63307 55.6309 5.84931 55.6309 6.05063V6.09537C55.5483 6.59495 55.2932 6.84101 54.8729 6.84101H54.8279C54.1 6.60986 53.5447 6.49802 53.1845 6.49802H52.9518C51.3834 6.49802 50.2353 7.31077 49.5074 8.92135C49.3498 9.34637 49.2747 9.83849 49.2747 10.3903V15.0804C49.2747 15.4755 49.0271 15.7141 48.5168 15.7962H48.4718C48.0665 15.7962 47.8189 15.5352 47.7138 15.0058V5.82694C47.7738 5.21551 48.0365 4.9098 48.5018 4.9098Z" fill="#595959" fill-opacity="0.7"/>
<path d="M62.3772 4.97693C64.4334 4.97693 66.0619 5.97609 67.2626 7.97441C67.6303 8.78716 67.8179 9.62228 67.8179 10.4947V15.0729C67.8179 15.4607 67.5702 15.6918 67.0675 15.7813H67.0224C66.6847 15.7813 66.4296 15.5874 66.2645 15.1922V15.1475L66.3095 14.1707V14.126C65.1388 15.2295 63.8856 15.7813 62.5348 15.7887H62.2271C60.3811 15.7887 58.8427 14.8716 57.612 13.0373C57.1617 12.15 56.9366 11.2552 56.9366 10.3605C56.9366 8.35469 57.9272 6.75901 59.9083 5.5809C60.7488 5.18571 61.5743 4.98439 62.3772 4.98439M58.4975 10.3083V10.4276C58.4975 12.0009 59.293 13.179 60.8839 13.9768C61.3867 14.1558 61.8369 14.2527 62.2347 14.2453H62.5424C63.8556 14.2453 64.9437 13.5891 65.8067 12.2842C66.1144 11.6653 66.272 11.0688 66.272 10.5096V10.353C66.272 8.83935 65.5216 7.68361 64.0132 6.87832C63.4879 6.64717 62.9401 6.53532 62.3847 6.53532H62.3397C60.7413 6.53532 59.5331 7.36298 58.7301 9.02576C58.5725 9.54026 58.4975 9.97273 58.4975 10.3232" fill="#595959" fill-opacity="0.7"/>
<path d="M70.602 0.704407H70.7596C71.2399 0.80134 71.4876 1.01758 71.4876 1.3382V14.2303H72.3355C72.6807 14.2303 72.9134 14.4839 73.0184 14.9909V15.0207C72.9359 15.5278 72.6807 15.7813 72.2605 15.7813H70.7071C70.2944 15.7813 70.0392 15.5203 69.9417 14.9909L69.9266 1.57681C69.9867 0.995206 70.2118 0.711859 70.602 0.711859" fill="#595959" fill-opacity="0.7"/>
<path d="M81.1231 5.14096C81.6184 5.26772 81.8736 5.48396 81.8736 5.78967V6.1774C82.7366 5.48395 83.6746 5.1335 84.6877 5.12604C86.031 5.12604 87.2167 5.74493 88.2448 6.9827C88.665 6.21468 89.5205 5.63308 90.8188 5.23789L91.7118 5.11859C93.3402 5.11859 94.631 5.89406 95.584 7.43754C95.8992 8.08625 96.0568 8.70513 96.0568 9.30164V15.0878C96.0568 15.4308 95.8167 15.6471 95.3214 15.744H95.2913C94.7961 15.662 94.5484 15.4159 94.5484 15.0058V9.38366C94.5484 8.10862 93.8655 7.22876 92.5073 6.74409L91.9669 6.66953H91.5767C90.5036 6.66953 89.6781 7.29587 89.1153 8.53363C89.0402 8.80952 88.9952 9.04066 88.9952 9.22707V14.976C88.9127 15.4905 88.665 15.744 88.2673 15.744H88.2223C87.727 15.662 87.4793 15.4308 87.4793 15.0505V10.271C87.4793 8.94373 87.2917 8.11607 86.9315 7.78799C86.3687 7.04235 85.6408 6.66953 84.7402 6.66953H84.6202C83.382 6.66953 82.5115 7.33315 82.0087 8.65293C81.9261 8.97356 81.8886 9.38366 81.8886 9.89815V15.0505C81.8886 15.4308 81.6485 15.662 81.1457 15.7514H81.1157C80.7179 15.7514 80.4703 15.4905 80.3652 14.9834V6.01336C80.4178 5.4243 80.6729 5.12604 81.1306 5.12604" fill="#595959" fill-opacity="0.7"/>
<path d="M103.374 4.93964C105.43 4.93964 107.058 5.9388 108.251 7.93712C108.627 8.74987 108.807 9.58499 108.807 10.4648V15.0356C108.807 15.4234 108.559 15.662 108.056 15.744H108.011C107.674 15.744 107.418 15.5427 107.253 15.1475V15.1027L107.291 14.1185V14.0812C106.12 15.1848 104.867 15.744 103.516 15.744H103.208C101.362 15.744 99.8315 14.8268 98.5933 12.9926C98.143 12.1053 97.9178 11.2105 97.9178 10.3083C97.9178 8.30248 98.9084 6.70681 100.897 5.53615C101.738 5.13351 102.556 4.93964 103.366 4.93964M99.4788 10.271V10.3903C99.4788 11.9636 100.274 13.1417 101.865 13.9395C102.368 14.1185 102.818 14.2154 103.216 14.2154H103.524C104.844 14.2154 105.932 13.5593 106.788 12.2469C107.103 11.628 107.253 11.0315 107.253 10.4723V10.3157C107.253 8.80206 106.495 7.64632 104.994 6.84102C104.469 6.60988 103.921 6.49057 103.366 6.49057H103.321C101.715 6.49057 100.514 7.31824 99.7039 8.97356C99.5538 9.48805 99.4713 9.92052 99.4713 10.271" fill="#595959" fill-opacity="0.7"/>
<path d="M112.079 4.85016C112.589 4.97692 112.844 5.20061 112.844 5.52869V6.40855C114.015 5.37211 115.268 4.85016 116.596 4.85016C117.309 4.85016 118.075 5.02166 118.885 5.36465C119.103 5.58089 119.2 5.78967 119.2 5.99845V6.04318C119.118 6.54276 118.863 6.79628 118.45 6.79628H118.405C117.677 6.56514 117.121 6.44583 116.754 6.44583H116.521C114.953 6.44583 113.805 7.25858 113.077 8.86917C112.919 9.29418 112.844 9.78631 112.844 10.3381V15.0282C112.844 15.4234 112.596 15.662 112.086 15.744H112.049C111.643 15.744 111.396 15.483 111.291 14.9536V5.77475C111.351 5.16333 111.613 4.85762 112.079 4.85016Z" fill="#595959" fill-opacity="0.7"/>
<path d="M121.557 0.577637H121.714C122.202 0.682027 122.45 0.898263 122.45 1.21889V9.10032C126.247 6.60242 128.461 5.17079 129.091 4.81288H129.293C129.721 4.81288 129.976 5.08877 130.059 5.64054C130.059 5.96863 129.631 6.35636 128.776 6.8112C126.697 8.21301 125.609 8.92137 125.511 8.93628V8.96611L130.029 14.6479L130.074 14.894V14.9238C129.984 15.4308 129.729 15.6843 129.309 15.6843H129.233C128.918 15.6843 128.453 15.237 127.815 14.3347L124.183 9.86088H124.153L122.465 10.9421V15.0207C122.465 15.4159 122.217 15.6545 121.707 15.7365H121.662C121.279 15.7365 121.024 15.4979 120.896 15.0207V1.33819C120.994 0.831158 121.219 0.577637 121.564 0.577637" fill="#595959" fill-opacity="0.7"/>
<path d="M137.068 4.89491C139.162 4.89491 140.798 5.87916 141.961 7.86257C142.359 8.63803 142.561 9.48061 142.561 10.3828V10.5842C142.471 11.1136 142.224 11.3745 141.811 11.382H133.421C133.729 12.4333 134.404 13.2386 135.44 13.7904C136.047 14.0216 136.618 14.1409 137.151 14.1409C137.766 14.1409 138.471 13.9395 139.267 13.5444H139.499C139.972 13.6338 140.212 13.8724 140.212 14.2602V14.372C140.212 15.0207 139.259 15.4681 137.353 15.7142H137.076C135.117 15.7142 133.549 14.8119 132.37 12.9926C131.898 12.1351 131.657 11.2329 131.657 10.3008C131.657 8.32486 132.595 6.7441 134.487 5.56599C135.402 5.1186 136.258 4.88745 137.068 4.88745M133.278 9.83852H140.925C140.925 9.2942 140.603 8.58584 139.965 7.72835C139.094 6.9156 138.231 6.5055 137.383 6.5055H136.948C135.672 6.5055 134.622 7.13184 133.804 8.3696C133.518 8.86173 133.346 9.35385 133.286 9.83852" fill="#595959" fill-opacity="0.7"/>
<path d="M146.554 1.03247H146.704C147.169 1.1294 147.409 1.33819 147.409 1.65135V5.14096H149.015L149.368 5.09622C149.728 5.09622 149.968 5.35719 150.103 5.87914C150.103 6.22959 149.885 6.49057 149.443 6.64715L148.857 6.60987H147.417V12.3066C147.417 13.2983 147.747 13.9097 148.392 14.1334L149.285 14.208H149.72C150.058 14.208 150.283 14.454 150.381 14.9461V14.976C150.298 15.4681 150.051 15.7142 149.638 15.7142H148.82C147.582 15.7142 146.659 15.0431 146.058 13.7009C145.946 13.3728 145.893 12.9851 145.893 12.5452V6.61732H145.113L144.49 6.66207C144.047 6.50548 143.829 6.24451 143.829 5.89406C143.912 5.40193 144.152 5.14842 144.535 5.14842V5.11113L144.925 5.14842H145.893V1.89742C145.953 1.32327 146.178 1.03993 146.561 1.03993" fill="#595959" fill-opacity="0.7"/>
<path d="M153.052 2.12109C153.563 2.24785 153.818 2.47155 153.818 2.79963V3.03078C153.818 3.4036 153.533 3.62729 152.977 3.70931C152.617 3.70931 152.377 3.44834 152.257 2.91893C152.362 2.38952 152.625 2.12855 153.052 2.12855M153.052 4.82778C153.563 4.95454 153.818 5.17823 153.818 5.50631V14.9909C153.818 15.3861 153.57 15.6247 153.06 15.7067H153.015C152.61 15.7067 152.362 15.4457 152.257 14.9163V5.73746C152.309 5.13349 152.58 4.82778 153.045 4.82778" fill="#595959" fill-opacity="0.7"/>
<path d="M157.382 4.8949C157.885 5.02166 158.14 5.24535 158.14 5.57343V6.43838C159.288 5.40939 160.542 4.8949 161.907 4.8949C163.401 4.8949 164.729 5.51378 165.885 6.75154C166.733 7.78053 167.153 8.86917 167.153 10.0175V15.0356C167.153 15.3786 166.905 15.6023 166.403 15.6992H166.357C165.855 15.6098 165.6 15.3562 165.6 14.9536V10.5394C165.6 8.556 164.737 7.25858 163.018 6.63224C162.598 6.52785 162.23 6.47566 161.9 6.47566H161.78C160.339 6.47566 159.228 7.21384 158.44 8.69767C158.238 9.14505 158.133 9.86833 158.133 10.8675V15.0058C158.133 15.3935 157.885 15.6247 157.382 15.7142H157.337C156.932 15.7142 156.684 15.4532 156.579 14.9238V5.81204C156.639 5.20807 156.902 4.90236 157.367 4.90236" fill="#595959" fill-opacity="0.7"/>
<path d="M174.305 4.90237C175.918 4.90237 177.314 5.56599 178.5 6.89323C179.318 8.00424 179.723 9.05559 179.723 10.0398L179.685 11.3745V16.1168C179.685 17.0041 179.002 17.9735 177.637 19.0248C176.578 19.7108 175.475 20.0538 174.32 20.0538C172.346 20.0538 170.71 19.1814 169.419 17.4291C169.187 17.0414 169.067 16.7804 169.067 16.6462V16.5269C169.067 16.1839 169.299 15.9528 169.779 15.8484H169.9C170.252 15.8484 170.552 16.1765 170.808 16.8252C171.761 18.0107 172.931 18.5998 174.327 18.5998C176.008 18.5998 177.269 17.8318 178.117 16.3107L178.192 15.8036V14.0365C177.021 15.1102 175.768 15.6471 174.44 15.6471H174.117C172.661 15.6471 171.31 14.9685 170.057 13.6115C169.292 12.5303 168.909 11.4193 168.909 10.271C168.909 8.51873 169.682 7.05727 171.235 5.8717C172.226 5.21553 173.254 4.88745 174.32 4.88745M170.44 10.1666V10.353C170.44 11.9561 171.288 13.1417 172.976 13.9246C173.427 14.0588 173.839 14.126 174.2 14.126H174.432C176.008 14.126 177.194 13.2834 177.997 11.6131C178.124 11.1136 178.184 10.7258 178.184 10.4425V10.1964C178.184 8.60821 177.329 7.41518 175.618 6.6248C175.085 6.50549 174.672 6.43839 174.387 6.43839H174.237C172.661 6.43839 171.475 7.26605 170.68 8.91392C170.522 9.36876 170.447 9.79378 170.447 10.1741" fill="#595959" fill-opacity="0.7"/>
</svg>
