<svg width="106" height="27" viewBox="0 0 106 27" fill="none" xmlns="http://www.w3.org/2000/svg">
<path d="M13.8862 23.4939L12.1722 25.197L12.9841 26.0036L14.6981 24.3006L13.8862 23.4939Z" fill="#595959" fill-opacity="0.7"/>
<path d="M12.9718 0.199569L12.1611 1.00739L25.1639 13.8911L25.9747 13.0833L12.9718 0.199569Z" fill="#595959" fill-opacity="0.7"/>
<path d="M0.824449 12.2831L0.0110168 13.0882L12.9708 26.0147L13.7842 25.2096L0.824449 12.2831Z" fill="#595959" fill-opacity="0.7"/>
<path d="M12.9756 0.190672L0 13.1014L0.812441 13.9076L13.7881 0.996798L12.9756 0.190672Z" fill="#595959" fill-opacity="0.7"/>
<path d="M25.1526 12.2877L14.6035 22.7694L15.4154 23.5761L25.9644 13.0944L25.1526 12.2877Z" fill="#595959" fill-opacity="0.7"/>
<path d="M12.9799 5.04807L4.86081 13.1041L5.67212 13.9113L13.7912 5.85532L12.9799 5.04807Z" fill="#595959" fill-opacity="0.7"/>
<path d="M20.2863 12.2961L15.324 17.225L16.1357 18.0318L21.098 13.1029L20.2863 12.2961Z" fill="#595959" fill-opacity="0.7"/>
<path d="M5.68231 12.29L4.86987 13.0961L15.4116 23.5851L16.224 22.779L5.68231 12.29Z" fill="#595959" fill-opacity="0.7"/>
<path d="M12.9819 5.03473L12.1706 5.84198L20.2897 13.898L21.101 13.0907L12.9819 5.03473Z" fill="#595959" fill-opacity="0.7"/>
<path d="M11.1008 14.4575L11.7612 13.5031L16.2263 17.9397L15.4158 18.745L11.1008 14.4575Z" fill="#595959" fill-opacity="0.7"/>
<path d="M13.1045 11.4153L15.6409 10.5876C15.6259 11.0425 15.3183 12.1535 15.3183 12.8022L15.5659 17.2686H14.3052V13.3614C14.3052 13.2123 14.2902 13.0557 14.2526 12.9662C14.1701 12.668 13.7874 12.146 13.1345 12.1088C12.6767 12.0789 13.097 11.4228 13.097 11.4228L13.1045 11.4153Z" fill="#595959" fill-opacity="0.7"/>
<path d="M13.1195 12.1013C12.4591 12.1386 12.0764 12.6605 11.9938 12.9588C11.9638 13.0557 11.9413 13.2123 11.9413 13.354L11.9938 15.397L10.9807 14.4575L10.9282 12.7948C10.9282 12.1535 10.6205 11.035 10.6055 10.5802L13.142 11.4079C13.142 11.4079 13.5622 12.0715 13.1045 12.0939L13.1195 12.1013Z" fill="#595959" fill-opacity="0.7"/>
<path d="M10.6132 10.5879C10.6132 10.5879 12.0165 10.9383 13.1421 10.9383V11.5199L10.7933 10.9682L10.6132 10.5879Z" fill="#595959" fill-opacity="0.7"/>
<path d="M15.6334 10.5951C15.6334 10.5951 14.2526 10.9455 13.1345 10.9455L13.112 11.6017L15.4608 10.9828L15.6409 10.6026L15.6334 10.5951Z" fill="#595959" fill-opacity="0.7"/>
<path d="M35.9027 12.0118H31.7228V13.518H33.3362C33.6214 13.518 33.944 13.5105 34.2967 13.4882C34.657 13.4658 35.0172 13.4434 35.3699 13.4061C35.7301 13.3689 36.0753 13.3241 36.413 13.2794C36.7507 13.2346 37.0358 13.1824 37.2685 13.1377V14.4202C37.0358 14.4575 36.7432 14.4948 36.398 14.5395C36.0528 14.5842 35.6851 14.6215 35.2873 14.6588C34.8821 14.6886 34.4618 14.7185 34.0341 14.7408C33.6063 14.7707 33.1861 14.7856 32.7809 14.8005C32.6758 14.8005 32.4882 14.8005 32.2105 14.8005C31.9329 14.8005 31.6477 14.8005 31.355 14.8005C31.0549 14.8079 30.6721 14.8154 30.2069 14.8154V10.774H34.4168V9.29765H31.4826C31.25 9.29765 31.0324 9.29765 30.8372 9.29765C30.6421 9.29765 30.432 9.32001 30.2069 9.34984V7.94058C30.432 7.9704 30.6421 7.98532 30.8372 7.99277C31.0324 7.99277 31.2425 7.99277 31.4826 7.99277H35.9552C35.9252 8.20901 35.9102 8.41033 35.9027 8.6042C35.9027 8.79807 35.9027 8.99939 35.9027 9.20071V11.9894V12.0118ZM40.1651 19.5875C40.1727 19.8112 40.1952 20.0274 40.2252 20.2362H38.5142C38.5442 20.0423 38.5592 19.8261 38.5667 19.5875C38.5667 19.3564 38.5667 19.1327 38.5667 18.9239V17.3058H32.8334C32.5482 17.3058 32.2931 17.3058 32.0529 17.3058C31.8203 17.3058 31.5577 17.3282 31.2725 17.358V15.9339C31.5577 15.9637 31.8128 15.9786 32.0529 15.9786H40.2102C40.1802 16.165 40.1651 16.344 40.1576 16.5229C40.1576 16.6944 40.1576 16.8734 40.1576 17.0523V18.9239C40.1576 19.1401 40.1576 19.3564 40.1726 19.5875H40.1651ZM37.6287 11.7508C37.4561 11.7508 37.2835 11.7508 37.0959 11.7508C36.9083 11.7508 36.7357 11.7732 36.5781 11.803V10.3937C36.7507 10.4236 36.9308 10.4385 37.1184 10.4459C37.306 10.4459 37.4861 10.4459 37.6587 10.4459H38.6193V9.02176C38.6193 8.79061 38.6193 8.55201 38.6042 8.32086C38.5967 8.08971 38.5742 7.84365 38.5442 7.60504H40.2027C40.1727 7.8511 40.1576 8.08971 40.1501 8.32086C40.1501 8.55201 40.1501 8.79061 40.1501 9.02176V15.4566H38.6193V11.7433H37.6287V11.7508Z" fill="#595959" fill-opacity="0.7"/>
<path d="M47.2042 10.8859C47.2042 11.5122 47.2718 12.0938 47.4068 12.6158C47.5419 13.1377 47.737 13.6224 47.9922 14.0548C48.2848 14.5768 48.6451 15.0466 49.0803 15.4567C49.5156 15.8668 50.0033 16.2247 50.5361 16.5453C50.311 16.7242 50.0934 16.9032 49.8908 17.0896C49.6882 17.276 49.5231 17.4326 49.388 17.5743C49.1328 17.4177 48.8627 17.2164 48.585 16.9778C48.3074 16.7392 48.0372 16.4707 47.767 16.1799C47.4819 15.8891 47.2267 15.576 46.9866 15.233C46.754 14.89 46.5588 14.5395 46.4088 14.1816C46.3037 14.5097 46.1461 14.8452 45.9285 15.1957C45.7109 15.5461 45.4632 15.8817 45.1931 16.2098C44.9079 16.5453 44.6077 16.8585 44.2925 17.1493C43.9774 17.4401 43.6847 17.6712 43.407 17.8502C43.2569 17.7085 43.0618 17.5445 42.8217 17.358C42.5815 17.1716 42.3489 17.0001 42.1238 16.851C42.7091 16.5006 43.2269 16.1054 43.6697 15.658C44.1124 15.2106 44.4876 14.7036 44.7878 14.1518C45.043 13.6746 45.2381 13.1526 45.3807 12.5934C45.5232 12.0342 45.5908 11.4376 45.5908 10.8039V9.55118C45.5908 9.29766 45.5908 9.05905 45.5758 8.83536C45.5683 8.61167 45.5458 8.37306 45.5157 8.11954H47.2568C47.2267 8.37306 47.2117 8.61167 47.1967 8.83536C47.1892 9.05905 47.1817 9.29766 47.1817 9.55118V10.8859H47.2042ZM50.4161 10.8635C50.2435 10.8635 50.0634 10.8635 49.8683 10.8635C49.6731 10.8635 49.5005 10.8859 49.3355 10.9157V9.47661C49.5081 9.50644 49.6882 9.52135 49.8758 9.5288C50.0634 9.5288 50.2435 9.5288 50.4161 9.5288H51.8044V9.48407C51.8044 9.1709 51.8044 8.86518 51.7894 8.54456C51.7819 8.23139 51.7594 7.91076 51.7293 7.5976H53.3878C53.3578 7.91822 53.3428 8.23139 53.3353 8.54456C53.3353 8.85773 53.3353 9.1709 53.3353 9.48407V18.2826C53.3353 18.6033 53.3353 18.9164 53.3353 19.2296C53.3353 19.5428 53.3578 19.8559 53.3878 20.1617H51.7293C51.7594 19.8485 51.7744 19.5428 51.7894 19.2296C51.7969 18.9164 51.8044 18.5958 51.8044 18.2826V14.0921H50.4011C50.2285 14.0921 50.0484 14.0921 49.8533 14.0921C49.6581 14.0921 49.4855 14.1145 49.3204 14.1443V12.6978C49.493 12.7276 49.6732 12.7425 49.8608 12.75C50.0484 12.75 50.2285 12.75 50.4011 12.75H51.8044V10.8486H50.4161V10.8635Z" fill="#595959" fill-opacity="0.7"/>
<path d="M57.8229 9.58098C57.5902 9.58098 57.3726 9.58098 57.1775 9.58098C56.9824 9.58098 56.7722 9.60335 56.5471 9.63318V8.19409C56.7722 8.22391 56.9824 8.23883 57.1775 8.24629C57.3726 8.24629 57.5827 8.24629 57.8229 8.24629H62.5281C62.4981 8.46252 62.4831 8.66385 62.4756 8.85771C62.4756 9.05158 62.4756 9.2529 62.4756 9.45422V13.3539H58.0705V15.9115H60.3218C60.5845 15.9115 60.8921 15.904 61.2523 15.8817C61.6051 15.8593 61.9653 15.8369 62.318 15.7996C62.6782 15.7624 63.0159 15.7251 63.3461 15.6878C63.6687 15.6505 63.9464 15.6058 64.164 15.561V16.8808C63.9389 16.9181 63.6537 16.9554 63.3085 17.0001C62.9633 17.0449 62.5881 17.0747 62.1829 17.1045C61.7701 17.1418 61.3424 17.1716 60.8996 17.2014C60.4644 17.2313 60.0366 17.2462 59.6314 17.2462L56.5546 17.2611V12.0565H60.9597V9.56607H57.8304L57.8229 9.58098ZM66.3028 19.2296C66.3028 19.5428 66.3253 19.8559 66.3553 20.1691H64.6968C64.7269 19.8559 64.7419 19.5502 64.7569 19.2296C64.7644 18.9164 64.7719 18.5958 64.7719 18.2826V9.49896C64.7719 9.18579 64.7719 8.88008 64.7569 8.55946C64.7494 8.24629 64.7269 7.92566 64.6968 7.61249H66.3553C66.3253 7.93311 66.3103 8.24629 66.3028 8.55946C66.3028 8.87263 66.3028 9.18579 66.3028 9.49896V18.2826C66.3028 18.6032 66.3028 18.9164 66.3028 19.2296Z" fill="#595959" fill-opacity="0.7"/>
<path d="M70.5428 14.2711C70.1825 14.107 69.8749 13.8759 69.6197 13.5776C69.3571 13.2868 69.1469 12.9364 68.9969 12.5263C68.8468 12.1162 68.7717 11.6762 68.7717 11.199C68.7717 10.7218 68.8468 10.2819 68.9969 9.87923C69.1469 9.47658 69.3571 9.12613 69.6197 8.83533C69.8749 8.54453 70.1825 8.31338 70.5428 8.14934C70.903 7.97784 71.2857 7.89582 71.7059 7.89582C72.1262 7.89582 72.4939 7.97784 72.8466 8.14188C73.1993 8.30592 73.507 8.53707 73.7771 8.83533C74.0398 9.12613 74.2499 9.47658 74.4 9.87923C74.5501 10.2819 74.6251 10.7218 74.6251 11.199C74.6251 11.6762 74.5501 12.1311 74.4 12.5337C74.2499 12.9364 74.0398 13.2868 73.7771 13.5925C73.5145 13.8833 73.2068 14.1145 72.8466 14.2785C72.4939 14.4426 72.1112 14.5246 71.7059 14.5246C71.3007 14.5246 70.903 14.4426 70.5428 14.2785V14.2711ZM70.6853 12.6381C70.9705 12.996 71.3082 13.1824 71.7059 13.1824C72.1037 13.1824 72.4414 13.0035 72.7265 12.6381C73.0117 12.2802 73.1543 11.7955 73.1543 11.199C73.1543 10.6025 73.0117 10.1327 72.7265 9.76738C72.4414 9.40947 72.1037 9.22306 71.7059 9.22306C71.3082 9.22306 70.9555 9.40202 70.6778 9.76738C70.4002 10.1253 70.2576 10.6025 70.2576 11.199C70.2576 11.7955 70.4002 12.2802 70.6853 12.6381ZM70.8955 16.754C70.8955 16.5825 70.8955 16.4036 70.8955 16.2172C70.8955 16.0308 70.8729 15.8518 70.8429 15.6803H72.4864C72.4564 15.8518 72.4414 16.0233 72.4338 16.2097C72.4338 16.3961 72.4338 16.5676 72.4338 16.7242V18.6107H78.3098C78.5349 18.6107 78.79 18.6107 79.0677 18.6107C79.3454 18.6107 79.638 18.5883 79.9382 18.5585V19.9976C79.638 19.9678 79.3454 19.9528 79.0677 19.9454C78.79 19.9454 78.5349 19.9454 78.3098 19.9454H70.903V16.7615L70.8955 16.754ZM78.1897 10.6249V9.27526C78.1897 8.99192 78.1897 8.71603 78.1897 8.4476C78.1897 8.17917 78.1672 7.89582 78.1372 7.61993H79.7206C79.6906 7.90328 79.6755 8.17917 79.668 8.4476C79.668 8.72348 79.668 8.99937 79.668 9.27526V15.315C79.668 15.5983 79.668 15.8742 79.668 16.1501C79.668 16.426 79.6906 16.7018 79.7206 16.9703H78.1221C78.1522 16.7018 78.1672 16.426 78.1822 16.1501C78.1897 15.8742 78.1972 15.5908 78.1972 15.315V12.1087H76.9665V15.8071C76.9665 16.083 76.9815 16.3514 77.0115 16.6198H75.4431C75.4656 16.3514 75.4731 16.0755 75.4881 15.8071C75.4956 15.5387 75.5031 15.2553 75.5031 14.9794V9.47658C75.5031 9.19324 75.5031 8.91735 75.4881 8.64892C75.4806 8.38049 75.4656 8.09714 75.4431 7.82125H77.0115C76.9815 8.1046 76.9665 8.38049 76.9665 8.64892V10.6323H78.1972L78.1897 10.6249Z" fill="#595959" fill-opacity="0.7"/>
<path d="M82.5947 13.6745V9.14104C82.5947 8.93226 82.5947 8.7384 82.5947 8.55199C82.5947 8.36558 82.5722 8.16425 82.5422 7.94802H84.1556C84.1256 8.16425 84.1106 8.36558 84.1031 8.55199C84.1031 8.7384 84.1031 8.93972 84.1031 9.14104V9.60334H87.1649V9.14104C87.1649 8.93226 87.1649 8.7384 87.1649 8.55199C87.1649 8.36558 87.1423 8.16425 87.1123 7.94802H88.7258C88.6957 8.16425 88.6807 8.36558 88.6732 8.55199C88.6732 8.7384 88.6732 8.93972 88.6732 9.14104V13.6745H82.6097H82.5947ZM83.9605 16.7839H90.932V15.7847H85.1987C85.0036 15.7847 84.7935 15.7847 84.5834 15.7996C84.3732 15.8071 84.1631 15.822 83.968 15.8444V14.5469C84.1931 14.5768 84.4108 14.5917 84.6059 14.5991C84.801 14.5991 85.0036 14.5991 85.1987 14.5991H92.6355C92.6055 14.7781 92.5905 14.957 92.5755 15.136C92.568 15.315 92.5605 15.4865 92.5605 15.658V17.8427H85.6039V18.9015H92.2003C92.4029 18.9015 92.6205 18.8866 92.8456 18.8568V20.1542C92.613 20.1243 92.3954 20.1094 92.1928 20.102C91.9977 20.102 91.78 20.102 91.5549 20.102H83.9605V16.7913V16.7839ZM87.1573 10.8635H84.0956V12.4219H87.1573V10.8635ZM92.568 14.0996H91.0521V9.03665C91.0521 8.80551 91.0521 8.5669 91.0371 8.33575C91.0296 8.1046 91.0071 7.85854 90.9771 7.61993H92.6205C92.5905 7.866 92.5755 8.1046 92.568 8.33575C92.568 8.5669 92.568 8.80551 92.568 9.03665V14.0996Z" fill="#595959" fill-opacity="0.7"/>
<path d="M101.228 8.11951C101.453 8.11951 101.693 8.1046 101.956 8.07478V9.46913C101.693 9.44676 101.446 9.4393 101.228 9.43184C101.003 9.43184 100.8 9.43184 100.613 9.43184H97.2957V12.4591L99.3069 12.4442C99.6296 12.4442 99.9898 12.4293 100.38 12.407C100.778 12.3846 101.175 12.3548 101.573 12.3175C101.963 12.2802 102.324 12.2429 102.669 12.1982C103.014 12.1534 103.292 12.1087 103.509 12.064V13.3465C103.292 13.3912 103.014 13.4434 102.669 13.4881C102.324 13.5329 101.933 13.5776 101.498 13.6149C101.07 13.6596 100.62 13.6969 100.14 13.7267C99.6596 13.7566 99.1793 13.7715 98.7065 13.7715C98.6015 13.7715 98.3914 13.7715 98.0837 13.7715C97.7685 13.7715 97.4458 13.7715 97.1081 13.7715H95.7874V9.56606C95.7874 9.33491 95.7874 9.08885 95.7723 8.85024C95.7648 8.60418 95.7423 8.36557 95.7123 8.11951H101.213H101.228ZM96.913 16.672C97.1081 16.3439 97.3933 16.0606 97.7835 15.8145C98.1737 15.5685 98.6465 15.3746 99.2169 15.2404C99.7872 15.0987 100.448 15.0316 101.198 15.0316C102.699 15.0316 103.84 15.2926 104.627 15.822C105.408 16.3439 105.806 16.9852 105.806 17.7383C105.806 18.4914 105.415 19.1252 104.627 19.6397C103.847 20.1542 102.699 20.4151 101.198 20.4151C99.6971 20.4151 98.5565 20.1616 97.7835 19.6471C97.0106 19.1326 96.6203 18.4988 96.6203 17.7383C96.6203 17.3655 96.7179 17.015 96.913 16.6795V16.672ZM99.0518 18.7747C99.5921 19.0357 100.312 19.1625 101.213 19.1625C102.114 19.1625 102.804 19.0357 103.352 18.7822C103.9 18.5287 104.17 18.1782 104.17 17.7234C104.17 17.2685 103.892 16.9255 103.352 16.672C102.804 16.426 102.091 16.2992 101.213 16.2992C100.335 16.2992 99.5996 16.426 99.0518 16.672C98.5114 16.9181 98.2338 17.2685 98.2338 17.7234C98.2338 18.1782 98.5039 18.5138 99.0518 18.7747ZM105.648 14.3233C105.648 14.5544 105.671 14.793 105.701 15.0242H104.042C104.072 14.793 104.087 14.5544 104.102 14.3233C104.11 14.0921 104.117 13.846 104.117 13.6074V9.03665C104.117 8.80551 104.117 8.5669 104.102 8.33575C104.095 8.1046 104.072 7.85854 104.042 7.61993H105.701C105.671 7.866 105.656 8.1046 105.648 8.33575C105.648 8.5669 105.648 8.80551 105.648 9.03665V13.6074C105.648 13.8535 105.648 14.0921 105.648 14.3233Z" fill="#595959" fill-opacity="0.7"/>
</svg>
