<svg width="120" height="26" viewBox="0 0 120 26" fill="none" xmlns="http://www.w3.org/2000/svg">
<path d="M13.8917 23.3088L12.1777 25.0118L12.9896 25.8185L14.7036 24.1155L13.8917 23.3088Z" fill="#595959" fill-opacity="0.7"/>
<path d="M12.9738 0.00352552L12.1631 0.81134L25.1659 13.6951L25.9766 12.8873L12.9738 0.00352552Z" fill="#595959" fill-opacity="0.7"/>
<path d="M0.824274 12.085L0.0108337 12.8901L12.9706 25.8166L13.784 25.0115L0.824274 12.085Z" fill="#595959" fill-opacity="0.7"/>
<path d="M12.9756 4.61349e-06L0 12.9108L0.812441 13.7169L13.7881 0.80613L12.9756 4.61349e-06Z" fill="#595959" fill-opacity="0.7"/>
<path d="M25.1528 12.1077L14.6037 22.5894L15.4156 23.3961L25.9646 12.9144L25.1528 12.1077Z" fill="#595959" fill-opacity="0.7"/>
<path d="M12.9909 4.86087L4.87177 12.9169L5.68307 13.7241L13.8022 5.66812L12.9909 4.86087Z" fill="#595959" fill-opacity="0.7"/>
<path d="M20.2988 12.1103L15.3365 17.0392L16.1482 17.8461L21.1105 12.9172L20.2988 12.1103Z" fill="#595959" fill-opacity="0.7"/>
<path d="M5.68799 12.1081L4.87555 12.9142L15.4173 23.4032L16.2297 22.5971L5.68799 12.1081Z" fill="#595959" fill-opacity="0.7"/>
<path d="M12.9841 4.84936L12.1728 5.65662L20.2919 13.7126L21.1032 12.9054L12.9841 4.84936Z" fill="#595959" fill-opacity="0.7"/>
<path d="M11.1086 14.2701L11.7689 13.3157L16.234 17.7522L15.416 18.5575L11.1086 14.2701Z" fill="#595959" fill-opacity="0.7"/>
<path d="M13.1122 11.2279L15.6487 10.4002C15.6337 10.855 15.326 11.9661 15.326 12.6148L15.5736 17.0812H14.3129V13.174C14.3129 13.0249 14.2979 12.8683 14.2604 12.7788C14.1778 12.4805 13.7951 11.9586 13.1422 11.9213C12.6844 11.8915 13.1047 11.2353 13.1047 11.2353L13.1122 11.2279Z" fill="#595959" fill-opacity="0.7"/>
<path d="M13.1197 11.9139C12.4593 11.9512 12.0766 12.4731 11.994 12.7714C11.964 12.8683 11.9415 13.0249 11.9415 13.1665L11.994 15.2096L10.981 14.2701L10.9284 12.6073C10.9284 11.9661 10.6208 10.8476 10.6057 10.3928L13.1422 11.2204C13.1422 11.2204 13.5625 11.884 13.1047 11.9064L13.1197 11.9139Z" fill="#595959" fill-opacity="0.7"/>
<path d="M10.6208 10.4002C10.6208 10.4002 12.0241 10.7507 13.1497 10.7507V11.3323L10.8009 10.7805L10.6208 10.4002Z" fill="#595959" fill-opacity="0.7"/>
<path d="M15.6336 10.4077C15.6336 10.4077 14.2528 10.7581 13.1347 10.7581L13.1122 11.4143L15.461 10.7954L15.6411 10.4151L15.6336 10.4077Z" fill="#595959" fill-opacity="0.7"/>
<path d="M35.9104 11.8243H31.7305V13.3305H33.3439C33.6291 13.3305 33.9518 13.3231 34.3045 13.3007C34.6647 13.2783 35.0249 13.256 35.3776 13.2187C35.7378 13.1814 36.083 13.1367 36.4207 13.0919C36.7584 13.0472 37.0436 12.995 37.2762 12.9503V14.2328C37.0436 14.27 36.7509 14.3073 36.4057 14.3521C36.0605 14.3968 35.6928 14.4341 35.295 14.4714C34.8898 14.5012 34.4696 14.531 34.0418 14.5534C33.6141 14.5832 33.1938 14.5981 32.7886 14.613C32.6835 14.613 32.4959 14.613 32.2183 14.613C31.9406 14.613 31.6554 14.613 31.3628 14.613C31.0626 14.6205 30.6799 14.628 30.2146 14.628V10.5866H34.4245V9.11021H31.4903C31.2577 9.11021 31.0401 9.11021 30.845 9.11021C30.6499 9.11021 30.4397 9.13258 30.2146 9.1624V7.75314C30.4397 7.78296 30.6499 7.79788 30.845 7.80533C31.0401 7.80533 31.2502 7.80533 31.4903 7.80533H35.9629C35.9329 8.02157 35.9179 8.22289 35.9104 8.41676C35.9104 8.61063 35.9104 8.81195 35.9104 9.01328V11.802V11.8243ZM40.1729 19.4001C40.1804 19.6238 40.2029 19.84 40.2329 20.0488H38.5219C38.5519 19.8549 38.5669 19.6387 38.5744 19.4001C38.5744 19.1689 38.5744 18.9452 38.5744 18.7364V17.1184H32.8411C32.556 17.1184 32.3008 17.1184 32.0607 17.1184C31.828 17.1184 31.5654 17.1408 31.2802 17.1706V15.7464C31.5654 15.7762 31.8205 15.7912 32.0607 15.7912H40.2179C40.1879 15.9776 40.1729 16.1565 40.1654 16.3355C40.1654 16.507 40.1654 16.6859 40.1654 16.8649V18.7364C40.1654 18.9527 40.1654 19.1689 40.1804 19.4001H40.1729ZM37.6364 11.5634C37.4638 11.5634 37.2912 11.5634 37.1036 11.5634C36.916 11.5634 36.7434 11.5857 36.5858 11.6156V10.2063C36.7584 10.2361 36.9385 10.251 37.1261 10.2585C37.3137 10.2585 37.4938 10.2585 37.6664 10.2585H38.627V8.83432C38.627 8.60317 38.627 8.36457 38.612 8.13342C38.6045 7.90227 38.5819 7.65621 38.5519 7.4176H40.2104C40.1804 7.66366 40.1654 7.90227 40.1579 8.13342C40.1579 8.36457 40.1579 8.60317 40.1579 8.83432V15.2692H38.627V11.5559H37.6364V11.5634Z" fill="#595959" fill-opacity="0.7"/>
<path d="M47.2119 10.6984C47.2119 11.3248 47.2795 11.9064 47.4146 12.4283C47.5496 12.9503 47.7448 13.4349 47.9999 13.8674C48.2926 14.3894 48.6528 14.8591 49.088 15.2692C49.5233 15.6793 50.0111 16.0372 50.5439 16.3579C50.3187 16.5368 50.1011 16.7158 49.8985 16.9022C49.6959 17.0886 49.5308 17.2452 49.3957 17.3868C49.1406 17.2303 48.8704 17.0289 48.5927 16.7903C48.3151 16.5517 48.0449 16.2833 47.7748 15.9925C47.4896 15.7017 47.2345 15.3885 46.9943 15.0455C46.7617 14.7025 46.5666 14.3521 46.4165 13.9942C46.3114 14.3223 46.1538 14.6578 45.9362 15.0082C45.7186 15.3587 45.4709 15.6942 45.2008 16.0223C44.9156 16.3579 44.6154 16.671 44.3003 16.9618C43.9851 17.2526 43.6924 17.4838 43.4147 17.6627C43.2647 17.5211 43.0695 17.357 42.8294 17.1706C42.5893 16.9842 42.3566 16.8127 42.1315 16.6636C42.7168 16.3131 43.2346 15.9179 43.6774 15.4705C44.1201 15.0232 44.4954 14.5161 44.7955 13.9643C45.0507 13.4871 45.2458 12.9652 45.3884 12.406C45.531 11.8467 45.5985 11.2502 45.5985 10.6164V9.36374C45.5985 9.11022 45.5985 8.87161 45.5835 8.64792C45.576 8.42423 45.5535 8.18562 45.5235 7.9321H47.2645C47.2345 8.18562 47.2194 8.42423 47.2044 8.64792C47.1969 8.87161 47.1894 9.11022 47.1894 9.36374V10.6984H47.2119ZM50.4238 10.6761C50.2512 10.6761 50.0711 10.6761 49.876 10.6761C49.6809 10.6761 49.5083 10.6984 49.3432 10.7283V9.28917C49.5158 9.319 49.6959 9.33391 49.8835 9.34137C50.0711 9.34137 50.2512 9.34137 50.4238 9.34137H51.8121V9.29663C51.8121 8.98346 51.8121 8.67774 51.7971 8.35712C51.7896 8.04395 51.7671 7.72333 51.7371 7.41016H53.3955C53.3655 7.73078 53.3505 8.04395 53.343 8.35712C53.343 8.67029 53.343 8.98346 53.343 9.29663V18.0952C53.343 18.4158 53.343 18.729 53.343 19.0422C53.343 19.3553 53.3655 19.6685 53.3955 19.9742H51.7371C51.7671 19.661 51.7821 19.3553 51.7971 19.0422C51.8046 18.729 51.8121 18.4084 51.8121 18.0952V13.9047H50.4088C50.2362 13.9047 50.0561 13.9047 49.861 13.9047C49.6659 13.9047 49.4933 13.9271 49.3282 13.9569V12.5103C49.5008 12.5402 49.6809 12.5551 49.8685 12.5625C50.0561 12.5625 50.2362 12.5625 50.4088 12.5625H51.8121V10.6612H50.4238V10.6761Z" fill="#595959" fill-opacity="0.7"/>
<path d="M57.8306 9.39354C57.598 9.39354 57.3803 9.39354 57.1852 9.39354C56.9901 9.39354 56.78 9.41591 56.5549 9.44574V8.00665C56.78 8.03647 56.9901 8.05139 57.1852 8.05885C57.3803 8.05885 57.5905 8.05885 57.8306 8.05885H62.5358C62.5058 8.27508 62.4908 8.47641 62.4833 8.67027C62.4833 8.86414 62.4833 9.06546 62.4833 9.26678V13.1665H58.0783V15.724H60.3296C60.5922 15.724 60.8999 15.7166 61.2601 15.6942C61.6128 15.6718 61.973 15.6495 62.3257 15.6122C62.6859 15.5749 63.0236 15.5376 63.3538 15.5003C63.6765 15.4631 63.9542 15.4183 64.1718 15.3736V16.6934C63.9466 16.7307 63.6615 16.7679 63.3163 16.8127C62.9711 16.8574 62.5959 16.8872 62.1906 16.9171C61.7779 16.9544 61.3501 16.9842 60.9074 17.014C60.4721 17.0438 60.0444 17.0587 59.6392 17.0587L56.5624 17.0737V11.8691H60.9674V9.37863H57.8381L57.8306 9.39354ZM66.3105 19.0421C66.3105 19.3553 66.333 19.6685 66.363 19.9817H64.7046C64.7346 19.6685 64.7496 19.3628 64.7646 19.0421C64.7721 18.729 64.7796 18.4084 64.7796 18.0952V9.31152C64.7796 8.99835 64.7796 8.69264 64.7646 8.37202C64.7571 8.05885 64.7346 7.73822 64.7046 7.42505H66.363C66.333 7.74567 66.318 8.05885 66.3105 8.37202C66.3105 8.68519 66.3105 8.99835 66.3105 9.31152V18.0952C66.3105 18.4158 66.3105 18.729 66.3105 19.0421Z" fill="#595959" fill-opacity="0.7"/>
<path d="M70.5504 14.0836C70.1902 13.9196 69.8826 13.6884 69.6274 13.3902C69.3648 13.0994 69.1546 12.7489 69.0046 12.3388C68.8545 11.9287 68.7794 11.4888 68.7794 11.0116C68.7794 10.5344 68.8545 10.0944 69.0046 9.69179C69.1546 9.28914 69.3648 8.93869 69.6274 8.64789C69.8826 8.35709 70.1902 8.12594 70.5504 7.9619C70.9107 7.7904 71.2934 7.70838 71.7136 7.70838C72.1339 7.70838 72.5016 7.7904 72.8543 7.95444C73.207 8.11848 73.5147 8.34963 73.7848 8.64789C74.0475 8.93869 74.2576 9.28914 74.4077 9.69179C74.5578 10.0944 74.6328 10.5344 74.6328 11.0116C74.6328 11.4888 74.5578 11.9436 74.4077 12.3463C74.2576 12.7489 74.0475 13.0994 73.7848 13.4051C73.5222 13.6959 73.2145 13.927 72.8543 14.0911C72.5016 14.2551 72.1189 14.3371 71.7136 14.3371C71.3084 14.3371 70.9107 14.2551 70.5504 14.0911V14.0836ZM70.693 12.4507C70.9782 12.8086 71.3159 12.995 71.7136 12.995C72.1114 12.995 72.449 12.816 72.7342 12.4507C73.0194 12.0928 73.162 11.6081 73.162 11.0116C73.162 10.4151 73.0194 9.94531 72.7342 9.57994C72.449 9.22203 72.1114 9.03563 71.7136 9.03563C71.3159 9.03563 70.9632 9.21458 70.6855 9.57994C70.4079 9.93785 70.2653 10.4151 70.2653 11.0116C70.2653 11.6081 70.4079 12.0928 70.693 12.4507ZM70.9032 16.5666C70.9032 16.3951 70.9032 16.2162 70.9032 16.0297C70.9032 15.8433 70.8806 15.6644 70.8506 15.4929H72.4941C72.4641 15.6644 72.449 15.8359 72.4415 16.0223C72.4415 16.2087 72.4415 16.3802 72.4415 16.5368V18.4233H78.3174C78.5426 18.4233 78.7977 18.4233 79.0754 18.4233C79.3531 18.4233 79.6457 18.4009 79.9459 18.3711V19.8101C79.6457 19.7803 79.3531 19.7654 79.0754 19.758C78.7977 19.758 78.5426 19.758 78.3174 19.758H70.9107V16.5741L70.9032 16.5666ZM78.1974 10.4374V9.08782C78.1974 8.80448 78.1974 8.52859 78.1974 8.26016C78.1974 7.99173 78.1749 7.70838 78.1448 7.4325H79.7283C79.6983 7.71584 79.6832 7.99173 79.6757 8.26016C79.6757 8.53605 79.6757 8.81193 79.6757 9.08782V15.1275C79.6757 15.4109 79.6757 15.6868 79.6757 15.9626C79.6757 16.2385 79.6983 16.5144 79.7283 16.7828H78.1298C78.1599 16.5144 78.1749 16.2385 78.1899 15.9626C78.1974 15.6868 78.2049 15.4034 78.2049 15.1275V11.9213H76.9742V15.6196C76.9742 15.8955 76.9892 16.164 77.0192 16.4324H75.4508C75.4733 16.164 75.4808 15.8881 75.4958 15.6196C75.5033 15.3512 75.5108 15.0679 75.5108 14.792V9.28914C75.5108 9.0058 75.5108 8.72991 75.4958 8.46148C75.4883 8.19305 75.4733 7.9097 75.4508 7.63382H77.0192C76.9892 7.91716 76.9742 8.19305 76.9742 8.46148V10.4449H78.2049L78.1974 10.4374Z" fill="#595959" fill-opacity="0.7"/>
<path d="M86.8499 14.5609C85.6042 14.449 84.6511 14.0762 83.9832 13.435C83.3153 12.7937 82.9852 12.0332 82.9852 11.1384C82.9852 10.6612 83.0977 10.2063 83.3153 9.78878C83.5405 9.36376 83.8482 8.9984 84.2534 8.67777C84.6586 8.3646 85.1539 8.11854 85.7242 7.93959C86.3021 7.75318 86.94 7.6637 87.6379 7.6637C88.3358 7.6637 88.9886 7.76063 89.559 7.94704C90.1293 8.13345 90.6171 8.38697 91.0223 8.7076C91.42 9.02077 91.7277 9.38613 91.9529 9.80369C92.178 10.2287 92.283 10.6686 92.283 11.1384C92.283 12.0332 91.9528 12.7937 91.285 13.4424C90.6171 14.0837 89.6715 14.464 88.4333 14.5758V17.275H91.405C91.7727 17.275 92.133 17.275 92.4857 17.275C92.8384 17.275 93.1986 17.2526 93.5663 17.2228V18.6619C93.1986 18.6321 92.8384 18.6172 92.4857 18.6097C92.133 18.6097 91.7727 18.6097 91.405 18.6097H83.8857C83.518 18.6097 83.1578 18.6097 82.8051 18.6097C82.4523 18.6097 82.0921 18.6321 81.7244 18.6619V17.2228C82.0921 17.2526 82.4523 17.2676 82.8051 17.275C83.1578 17.275 83.518 17.275 83.8857 17.275H86.8424V14.5609H86.8499ZM88.831 13.1665C89.2063 13.0696 89.5289 12.9354 89.7991 12.7415C90.0692 12.5626 90.2944 12.3389 90.4595 12.0704C90.6246 11.802 90.7071 11.4963 90.7071 11.1458C90.7071 10.8178 90.6246 10.5195 90.467 10.2511C90.3094 9.98264 90.0918 9.75895 89.8141 9.56508C89.5289 9.37122 89.2062 9.21463 88.8385 9.1177C88.4708 9.01331 88.0731 8.96112 87.6453 8.96112C87.2176 8.96112 86.8274 9.01331 86.4522 9.12515C86.0844 9.22954 85.7618 9.37867 85.4766 9.56508C85.1989 9.75895 84.9888 9.99756 84.8312 10.2585C84.6736 10.527 84.5986 10.8178 84.5986 11.1384C84.5986 11.4888 84.6811 11.7946 84.8462 12.063C85.0113 12.3314 85.2289 12.5551 85.5066 12.749C85.7918 12.9279 86.1145 13.0621 86.4822 13.1591C86.8499 13.256 87.2401 13.3008 87.6453 13.3008C88.0506 13.3008 88.4558 13.256 88.831 13.1591V13.1665Z" fill="#595959" fill-opacity="0.7"/>
<path d="M96.7406 9.55013C96.5305 9.55013 96.3429 9.55013 96.1778 9.55013C96.0052 9.55013 95.8176 9.5725 95.6075 9.60233V8.15578C95.8176 8.18561 96.0052 8.20052 96.1778 8.20797C96.3504 8.20797 96.538 8.20797 96.7406 8.20797H101.784C101.994 8.20797 102.181 8.20797 102.354 8.20797C102.526 8.20797 102.714 8.18561 102.932 8.15578V9.60233C102.714 9.5725 102.519 9.55759 102.354 9.55013C102.181 9.55013 101.994 9.55013 101.784 9.55013H101.716L101.686 15.5003C101.866 15.4929 102.039 15.478 102.219 15.4631C102.391 15.4482 102.564 15.4407 102.722 15.4258C102.879 15.4034 103.037 15.3885 103.179 15.3736C103.322 15.3587 103.457 15.3438 103.585 15.3214V16.6039C102.744 16.7157 101.739 16.7903 100.56 16.835C99.3822 16.8798 98.1139 16.8947 96.7406 16.8947C96.4855 16.8947 96.2454 16.8947 96.0277 16.8947C95.8026 16.8947 95.57 16.9171 95.3148 16.9469V15.5227C95.57 15.5525 95.8101 15.5675 96.0277 15.5675H96.7857L96.7406 9.52776V9.55013ZM99.0445 15.5675H99.5323C99.7274 15.5675 99.9375 15.5675 100.163 15.5525L100.208 9.54267H98.2415L98.3016 15.5675H99.052H99.0445ZM105.896 19.0571C105.896 19.3702 105.918 19.6834 105.948 19.9891H104.29C104.32 19.6759 104.335 19.3702 104.35 19.0571C104.358 18.7439 104.365 18.4233 104.365 18.1101V9.31152C104.365 8.99835 104.365 8.69264 104.35 8.37202C104.343 8.05885 104.32 7.73822 104.29 7.42505H105.948C105.918 7.74567 105.903 8.05885 105.896 8.37202C105.896 8.68519 105.896 8.99835 105.896 9.31152V18.1101C105.896 18.4307 105.896 18.7439 105.896 19.0571Z" fill="#595959" fill-opacity="0.7"/>
<path d="M110.106 18.4457C109.738 18.4457 109.378 18.4457 109.025 18.4457C108.673 18.4457 108.312 18.468 107.945 18.4979V17.0588C108.312 17.0886 108.673 17.1035 109.025 17.111C109.378 17.111 109.738 17.111 110.106 17.111H117.61C117.978 17.111 118.338 17.111 118.691 17.111C119.044 17.111 119.404 17.0886 119.771 17.0588V18.4979C119.404 18.468 119.044 18.4531 118.691 18.4457C118.338 18.4457 117.978 18.4457 117.61 18.4457H110.106ZM115.089 10.6015C115.359 11.1011 115.712 11.5559 116.147 11.981C116.575 12.406 117.062 12.7713 117.618 13.077C118.173 13.3902 118.743 13.6139 119.314 13.7556C119.126 13.942 118.939 14.1359 118.751 14.3372C118.563 14.5385 118.413 14.7175 118.293 14.8815C117.895 14.7622 117.483 14.5832 117.047 14.3596C116.612 14.1359 116.192 13.8674 115.787 13.5543C115.381 13.2411 115.006 12.9056 114.669 12.5327C114.331 12.1599 114.053 11.7722 113.851 11.3546C113.655 11.7498 113.408 12.1152 113.123 12.4507C112.837 12.7863 112.515 13.0994 112.17 13.3828C111.764 13.7183 111.329 14.0166 110.864 14.2701C110.399 14.5236 109.926 14.7324 109.446 14.889C109.303 14.7398 109.138 14.5609 108.958 14.3596C108.77 14.1582 108.575 13.942 108.357 13.7183C108.98 13.5468 109.573 13.3157 110.136 13.0174C110.699 12.7191 111.194 12.3612 111.614 11.9511C112.042 11.5485 112.38 11.1011 112.642 10.6164C112.905 10.1318 113.033 9.5949 113.033 9.0133C113.033 8.83435 113.033 8.64048 113.018 8.43916C113.01 8.23038 112.995 8.03651 112.973 7.8501H114.744C114.714 8.02905 114.699 8.22292 114.691 8.43916C114.691 8.65539 114.691 8.84926 114.691 9.0133C114.691 9.57999 114.826 10.1094 115.096 10.6015H115.089Z" fill="#595959" fill-opacity="0.7"/>
</svg>
