<svg width="96" height="16" viewBox="0 0 96 16" fill="none" xmlns="http://www.w3.org/2000/svg">
<path d="M9.32041 0.344994H0L1.7335 2.69377H8.85512C9.44796 2.69377 9.93575 3.17097 9.93575 3.76749C9.93575 4.364 9.45547 4.84121 8.85512 4.84121H1.7335L0 7.18998L6.07852 15.4591H9.37292L3.35444 7.18998H9.32041C11.2265 7.18998 12.7724 5.65396 12.7724 3.76003C12.7724 1.8661 11.2265 0.330078 9.32041 0.330078V0.344994Z" fill="#595959" fill-opacity="0.7"/>
<path d="M20.4343 5.87022L20.2542 1.03101L15.564 2.31351L16.9898 3.13372L11.8043 10.6647L9.42544 7.19001H6.09351L11.9544 15.1609L19.2036 4.73685L20.4493 5.86277V5.87768L20.4343 5.87022Z" fill="#595959" fill-opacity="0.7"/>
<path d="M37.2741 5.6167C34.8802 5.6167 33.1467 7.42115 33.1467 9.9116C33.1467 12.402 34.8727 14.2065 37.2441 14.2065C39.1202 14.2065 40.636 13.088 41.1914 11.2985L41.2514 11.1121H40.0432L40.0057 11.209C39.5854 12.402 38.5273 13.1402 37.2441 13.1402C35.6532 13.1402 34.505 12.0218 34.3474 10.3441H41.3114L41.3265 10.2173C41.3415 10.098 41.364 9.90414 41.364 9.78483C41.364 7.36895 39.653 5.6167 37.2816 5.6167H37.2741ZM37.2741 6.66805C38.8951 6.66805 40.0807 7.81634 40.2083 9.47912H34.3399C34.505 7.76415 35.6382 6.66805 37.2666 6.66805H37.2741Z" fill="#595959" fill-opacity="0.7"/>
<path d="M46.5795 5.6167C44.2081 5.6167 42.4821 7.42115 42.4821 9.9116C42.4821 12.402 44.2381 14.2065 46.4819 14.2065C47.6977 14.2065 48.8083 13.6323 49.5362 12.6481V14.0499H50.6919V9.91905C50.6919 7.42861 48.9584 5.62416 46.5795 5.62416V5.6167ZM46.5795 13.0582C44.8985 13.0582 43.6378 11.7011 43.6378 9.9116C43.6378 8.35321 44.6509 6.76499 46.5795 6.76499C48.6132 6.76499 49.5362 8.39794 49.5362 9.9116C49.5362 11.7086 48.268 13.0582 46.5795 13.0582Z" fill="#595959" fill-opacity="0.7"/>
<path d="M53.596 2.58191H52.4704V14.0499H53.596V2.58191Z" fill="#595959" fill-opacity="0.7"/>
<path d="M69.3477 5.6167C66.9763 5.6167 65.2503 7.42115 65.2503 9.9116C65.2503 12.402 67.0063 14.2065 69.2501 14.2065C70.4658 14.2065 71.5765 13.6323 72.3044 12.6481V14.0499H73.46V9.91905C73.46 7.42861 71.7265 5.62416 69.3477 5.62416V5.6167ZM69.3477 13.0582C67.6667 13.0582 66.406 11.7011 66.406 9.9116C66.406 8.35321 67.4191 6.76499 69.3477 6.76499C71.3813 6.76499 72.3044 8.39794 72.3044 9.9116C72.3044 11.7086 71.0361 13.0582 69.3477 13.0582Z" fill="#595959" fill-opacity="0.7"/>
<path d="M76.3717 2.58191H75.2461V14.0499H76.3717V2.58191Z" fill="#595959" fill-opacity="0.7"/>
<path d="M76.3717 2.58191H75.2461V14.0499H76.3717V2.58191Z" fill="#595959" fill-opacity="0.7"/>
<path d="M84.7316 9.91156C84.7316 11.7086 83.621 13.0582 82.1426 13.0582C80.6642 13.0582 79.5011 11.7309 79.5011 9.91156V5.7807H78.3454V9.91156C78.3454 12.3573 79.9739 14.2064 82.1351 14.2064C84.2964 14.2064 85.8497 12.3647 85.8497 9.91156V5.7807H84.7241V9.91156H84.7316Z" fill="#595959" fill-opacity="0.7"/>
<path d="M91.3504 5.6167C88.9565 5.6167 87.223 7.42115 87.223 9.9116C87.223 12.402 88.949 14.2065 91.3204 14.2065C93.1965 14.2065 94.7049 13.088 95.2677 11.2985L95.3277 11.1121H94.1195L94.082 11.209C93.6617 12.402 92.6036 13.1402 91.3204 13.1402C89.7295 13.1402 88.5813 12.0218 88.4162 10.3441H95.3802L95.3952 10.2173C95.4103 10.098 95.4328 9.90414 95.4328 9.78483C95.4328 7.36895 93.7218 5.6167 91.3504 5.6167ZM91.3504 6.66805C92.9714 6.66805 94.157 7.81634 94.2846 9.47912H88.4162C88.5813 7.76415 89.7145 6.66805 91.3429 6.66805H91.3504Z" fill="#595959" fill-opacity="0.7"/>
<path d="M65.9482 2.58192H64.8226L61.318 12.4617L57.8135 2.58192H56.6879L60.7552 14.0424H61.8734L65.9332 2.57446L65.9482 2.58192Z" fill="#595959" fill-opacity="0.7"/>
<path d="M29.8673 9.94884C31.2556 9.35978 32.2237 7.99526 32.2237 6.39959C32.2237 4.26705 30.4902 2.54462 28.3439 2.54462H23.9839V14.0573H25.1095V10.1278H27.2183C29.0643 10.1278 30.6252 11.9248 31.158 14.0573H32.4038C32.0135 12.3722 31.053 10.7765 29.8748 9.9563L29.8673 9.94884ZM28.4715 9.00188H25.1095V3.67054H28.4715C29.8973 3.67054 31.0455 5.0276 31.0455 6.43687C31.0455 7.84613 29.8898 8.99442 28.4715 8.99442V9.00188Z" fill="#595959" fill-opacity="0.7"/>
</svg>
