<svg width="163" height="26" viewBox="0 0 163 26" fill="none" xmlns="http://www.w3.org/2000/svg">
<path d="M14.8406 23.4101L13.1267 25.1132L13.9385 25.9198L15.6525 24.2168L14.8406 23.4101Z" fill="#595959" fill-opacity="0.7"/>
<path d="M13.9235 0.112656L13.1127 0.920471L26.1155 13.8042L26.9263 12.9964L13.9235 0.112656Z" fill="#595959" fill-opacity="0.7"/>
<path d="M1.77603 12.1861L0.962601 12.9912L13.9223 25.9177L14.7358 25.1126L1.77603 12.1861Z" fill="#595959" fill-opacity="0.7"/>
<path d="M13.9324 0.101559L0.956787 13.0123L1.76923 13.8185L14.7449 0.907686L13.9324 0.101559Z" fill="#595959" fill-opacity="0.7"/>
<path d="M26.107 12.2039L15.5579 22.6856L16.3698 23.4923L26.9189 13.0106L26.107 12.2039Z" fill="#595959" fill-opacity="0.7"/>
<path d="M13.9395 4.95474L5.82034 13.0107L6.63165 13.818L14.7508 5.76199L13.9395 4.95474Z" fill="#595959" fill-opacity="0.7"/>
<path d="M21.2514 12.2118L16.2891 17.1407L17.1008 17.9475L22.0631 13.0186L21.2514 12.2118Z" fill="#595959" fill-opacity="0.7"/>
<path d="M6.64186 12.2041L5.82942 13.0102L16.3711 23.4992L17.1836 22.6931L6.64186 12.2041Z" fill="#595959" fill-opacity="0.7"/>
<path d="M13.9387 4.94562L13.1274 5.75287L21.2465 13.8089L22.0578 13.0016L13.9387 4.94562Z" fill="#595959" fill-opacity="0.7"/>
<path d="M12.0585 14.3686L12.7264 13.4142L17.184 17.8508L16.3735 18.656L12.0585 14.3686Z" fill="#595959" fill-opacity="0.7"/>
<path d="M14.0622 11.3263L16.5986 10.4987C16.5836 10.9535 16.276 12.0645 16.276 12.7132L16.5236 17.1796H15.2629V13.2724C15.2629 13.1233 15.2479 12.9667 15.2103 12.8773C15.1278 12.579 14.7451 12.057 14.0922 12.0198C13.6344 11.9899 14.0547 11.3338 14.0547 11.3338L14.0622 11.3263Z" fill="#595959" fill-opacity="0.7"/>
<path d="M14.0772 12.0123C13.4168 12.0496 13.0341 12.5716 12.9515 12.8698C12.9215 12.9667 12.899 13.1233 12.899 13.265L12.9515 15.3081L11.9384 14.3685L11.8859 12.7058C11.8859 12.0645 11.5782 10.9461 11.5632 10.4912L14.0997 11.3189C14.0997 11.3189 14.5199 11.9825 14.0622 12.0049L14.0772 12.0123Z" fill="#595959" fill-opacity="0.7"/>
<path d="M11.5709 10.4989C11.5709 10.4989 12.9742 10.8494 14.0998 10.8494V11.431L11.751 10.8792L11.5709 10.4989Z" fill="#595959" fill-opacity="0.7"/>
<path d="M16.5911 10.5061C16.5911 10.5061 15.2103 10.8566 14.0922 10.8566L14.0697 11.5127L16.4186 10.8938L16.5986 10.5136L16.5911 10.5061Z" fill="#595959" fill-opacity="0.7"/>
<path d="M31.1646 9.29079C31.1571 9.1864 31.1496 9.07455 31.1496 8.9627C31.1421 8.85831 31.1271 8.75392 31.1196 8.64953C31.1121 8.54514 31.0971 8.42584 31.0896 8.29163H32.7855C32.7555 8.54514 32.733 8.76884 32.7255 8.97016C32.7105 9.16403 32.703 9.39518 32.703 9.64869V17.7538H35.382C35.6372 17.7538 35.8623 17.7538 36.0724 17.7315C36.2751 17.7165 36.5152 17.6942 36.8004 17.6643L36.6052 19.0736C36.3201 19.0512 36.0799 19.0438 35.8698 19.0289C35.6597 19.0214 35.4271 19.014 35.1644 19.014H31.0745C31.1046 18.8052 31.1271 18.6039 31.1496 18.3951C31.1721 18.1863 31.1871 17.9551 31.1871 17.7091V9.64869C31.1871 9.52939 31.1871 9.41009 31.1721 9.3057L31.1646 9.29079Z" fill="#595959" fill-opacity="0.7"/>
<path d="M45.4003 16.0612C45.4003 16.4937 45.3253 16.8963 45.1827 17.2766C45.0326 17.6569 44.815 17.9849 44.5223 18.2683C44.2222 18.5516 43.8394 18.7753 43.3742 18.9394C42.9089 19.1034 42.3611 19.1854 41.7157 19.1854C41.0703 19.1854 40.5525 19.1258 40.0948 18.999C39.637 18.8723 39.2543 18.6784 38.9541 18.4174C38.6389 18.1639 38.4138 17.8433 38.2637 17.4555C38.1136 17.0678 38.0386 16.6055 38.0386 16.0836V9.66359C38.0386 9.41007 38.0386 9.17892 38.0161 8.9776C38.0011 8.76882 37.9785 8.55258 37.956 8.31397H39.667C39.637 8.56004 39.6145 8.78373 39.607 8.98505C39.592 9.18638 39.5845 9.41752 39.5845 9.67104V15.5392C39.5845 15.9121 39.622 16.2476 39.7045 16.5384C39.7871 16.8292 39.9147 17.0753 40.0948 17.2691C40.2674 17.4779 40.485 17.627 40.7551 17.7314C41.0253 17.8358 41.348 17.888 41.7232 17.888C42.0759 17.888 42.3836 17.8433 42.6537 17.7463C42.9239 17.6494 43.149 17.5077 43.3441 17.3064C43.5167 17.12 43.6443 16.8739 43.7419 16.5831C43.8394 16.2849 43.8845 15.9419 43.8845 15.5318V9.66359C43.8845 9.43989 43.8845 9.2162 43.8619 8.99251C43.8469 8.76882 43.8244 8.54512 43.8019 8.30652H45.4979C45.4679 8.53767 45.4454 8.76882 45.4379 8.99251C45.4228 9.2162 45.4153 9.43244 45.4153 9.66359V16.0686L45.4003 16.0612Z" fill="#595959" fill-opacity="0.7"/>
<path d="M53.2199 18.1788C53.1148 17.9477 52.9947 17.7016 52.8522 17.4406L51.2687 14.473L49.7228 17.4406C49.5727 17.7314 49.4452 17.9849 49.3476 18.2012C49.2501 18.4174 49.1375 18.6859 49.0174 19.0065H46.9387C47.0438 18.8499 47.1338 18.7082 47.2164 18.5889C47.2989 18.4696 47.374 18.3578 47.449 18.2459C47.5166 18.1415 47.5841 18.0371 47.6441 17.9328C47.7117 17.8284 47.7867 17.7016 47.8693 17.5599L50.3607 13.265L48.237 9.66359C48.1394 9.52191 48.0644 9.40261 47.9968 9.29822C47.9293 9.19383 47.8693 9.0969 47.8092 8.99996C47.7417 8.90303 47.6742 8.8061 47.6066 8.70171C47.5391 8.59732 47.4565 8.47056 47.359 8.30652H49.4152C49.5352 8.61969 49.6403 8.86575 49.7303 9.05216C49.8129 9.23857 49.9405 9.47718 50.0981 9.76798L51.2312 11.8931L52.3344 9.76798C52.4844 9.47718 52.6045 9.23857 52.6946 9.05216C52.7846 8.86575 52.8897 8.61969 53.0097 8.30652H55.0209C54.9159 8.4631 54.8333 8.59732 54.7583 8.70171C54.6907 8.8061 54.6157 8.90303 54.5556 8.99996C54.4881 9.0969 54.4281 9.19383 54.368 9.29822C54.308 9.40261 54.233 9.52191 54.1504 9.66359L52.1843 13.1383L54.7057 17.5599C54.7733 17.6941 54.8408 17.8135 54.9008 17.9178C54.9684 18.0222 55.0359 18.1341 55.111 18.2459C55.1785 18.3503 55.2535 18.4622 55.3286 18.5815C55.4111 18.7008 55.5087 18.8424 55.6213 19.0065H53.5951C53.4525 18.6859 53.3324 18.41 53.2274 18.1863L53.2199 18.1788Z" fill="#595959" fill-opacity="0.7"/>
<path d="M64.5514 16.0612C64.5514 16.4937 64.4764 16.8963 64.3338 17.2766C64.1837 17.6569 63.9661 17.9849 63.6734 18.2683C63.3732 18.5516 62.9905 18.7753 62.5253 18.9394C62.06 19.1034 61.5122 19.1854 60.8668 19.1854C60.2214 19.1854 59.7036 19.1258 59.2458 18.999C58.7881 18.8723 58.4054 18.6784 58.1052 18.4174C57.79 18.1639 57.5649 17.8433 57.4148 17.4555C57.2647 17.0678 57.1897 16.6055 57.1897 16.0836V9.66359C57.1897 9.41007 57.1897 9.17892 57.1672 8.9776C57.1521 8.76882 57.1296 8.55258 57.1071 8.31397H58.8181C58.7881 8.56004 58.7656 8.78373 58.7581 8.98505C58.7431 9.18638 58.7356 9.41752 58.7356 9.67104V15.5392C58.7356 15.9121 58.7731 16.2476 58.8556 16.5384C58.9382 16.8292 59.0657 17.0753 59.2458 17.2691C59.4184 17.4779 59.6361 17.627 59.9062 17.7314C60.1764 17.8358 60.4991 17.888 60.8743 17.888C61.227 17.888 61.5347 17.8433 61.8048 17.7463C62.075 17.6494 62.3001 17.5077 62.4952 17.3064C62.6678 17.12 62.7954 16.8739 62.893 16.5831C62.9905 16.2849 63.0355 15.9419 63.0355 15.5318V9.66359C63.0355 9.43989 63.0355 9.2162 63.013 8.99251C62.998 8.76882 62.9755 8.54512 62.953 8.30652H64.649C64.619 8.53767 64.5965 8.76882 64.589 8.99251C64.5739 9.2162 64.5664 9.43244 64.5664 9.66359V16.0686L64.5514 16.0612Z" fill="#595959" fill-opacity="0.7"/>
<path d="M71.6655 14.6296C71.8081 14.7787 71.9657 14.9502 72.1233 15.1366C72.2659 15.3305 72.416 15.5467 72.5736 15.7853C72.7312 16.0164 72.9113 16.2849 73.1139 16.5757L73.8643 17.7463C73.9469 17.888 74.0219 18.0073 74.0819 18.1042C74.142 18.2012 74.2095 18.2907 74.2696 18.3801C74.3296 18.4771 74.3896 18.5665 74.4572 18.6635C74.5247 18.7604 74.6148 18.8723 74.7198 19.0139H72.6936C72.6336 18.8946 72.5886 18.7902 72.5436 18.7082C72.4985 18.6262 72.461 18.5516 72.4235 18.4771C72.386 18.4025 72.3484 18.3205 72.3109 18.2385C72.2734 18.1564 72.2284 18.052 72.1683 17.9253L71.8832 17.3362C71.7256 17.0081 71.5605 16.7099 71.4029 16.4415C71.2453 16.173 71.0877 15.927 70.9376 15.7033C70.765 15.487 70.5999 15.2932 70.4423 15.1142C70.2847 14.9353 70.1196 14.7787 69.9621 14.637C69.827 14.5252 69.6919 14.4431 69.5568 14.3909C69.4217 14.3387 69.2266 14.3089 68.9715 14.3015V17.6643C68.9715 17.7985 68.9715 17.9178 68.9715 18.0222C68.9715 18.1266 68.9715 18.2385 68.9715 18.3354C68.979 18.4398 68.994 18.5442 69.0015 18.656C69.009 18.7679 69.024 18.8872 69.0465 19.0065H67.3731C67.3806 18.8872 67.3956 18.7679 67.4031 18.656C67.4106 18.5442 67.4256 18.4323 67.4331 18.3354C67.4331 18.231 67.4331 18.1266 67.4481 18.0222C67.4556 17.9178 67.4631 17.7985 67.4631 17.6643V9.90964C67.4631 9.76051 67.4631 9.61884 67.4481 9.49208C67.4406 9.36532 67.4331 9.23856 67.4331 9.11926C67.4256 8.99996 67.4106 8.8732 67.3956 8.74644C67.3806 8.61968 67.3731 8.47801 67.358 8.31396H70.645C71.1327 8.31396 71.598 8.38107 72.0258 8.50783C72.4535 8.64205 72.8287 8.82846 73.1364 9.08198C73.4516 9.34295 73.6917 9.66358 73.8643 10.0364C74.0369 10.4092 74.127 10.8417 74.127 11.3189C74.127 11.7066 74.0669 12.072 73.9469 12.415C73.8268 12.7654 73.6542 13.0637 73.4291 13.3321C73.2039 13.608 72.9263 13.8168 72.6036 13.9734C72.2809 14.13 71.9057 14.2045 71.4929 14.2045H71.1778C71.3354 14.3387 71.493 14.4804 71.6355 14.6296H71.6655ZM68.9865 13.2352H70.1347C70.5849 13.2352 70.9676 13.1905 71.2828 13.1084C71.598 13.0264 71.8457 12.8997 72.0333 12.7282C72.2134 12.5716 72.3409 12.3703 72.4235 12.1391C72.506 11.908 72.5436 11.6395 72.5436 11.3338C72.5436 11.0281 72.491 10.7895 72.3935 10.5658C72.2959 10.3421 72.1458 10.1557 71.9507 9.99912C71.7406 9.85744 71.4929 9.7456 71.1928 9.67103C70.8926 9.58901 70.5474 9.55173 70.1497 9.55173H68.9865V13.2352Z" fill="#595959" fill-opacity="0.7"/>
<path d="M80.0854 17.6569C80.0854 17.8507 80.0854 18.067 80.1004 18.2907C80.1079 18.5143 80.1305 18.7529 80.1605 19.0065H78.4495C78.4795 18.7529 78.4945 18.5143 78.502 18.2907C78.502 18.067 78.502 17.8507 78.502 17.6569V14.6892L75.7704 9.61138C75.6954 9.46971 75.6278 9.35041 75.5753 9.26093C75.5153 9.164 75.4627 9.07452 75.4027 8.97759C75.3577 8.88065 75.2976 8.79118 75.2376 8.68679C75.1776 8.58985 75.095 8.46309 75.005 8.31396H77.0312C77.1362 8.60477 77.2263 8.83591 77.3088 9.01487C77.3914 9.19382 77.4964 9.42497 77.639 9.70086L78.6296 11.6843C78.7346 11.9005 78.8622 12.1615 79.0123 12.4746C79.1624 12.7878 79.2975 13.0786 79.425 13.362C79.5376 13.0637 79.6502 12.7878 79.7552 12.5492C79.8603 12.3031 79.9954 12.0273 80.1455 11.7066L81.0535 9.75305C81.121 9.61138 81.1811 9.48462 81.2336 9.37278C81.2861 9.26093 81.3386 9.14908 81.3837 9.03724C81.4287 8.93285 81.4812 8.82846 81.5338 8.71661C81.5863 8.60477 81.6388 8.47055 81.6988 8.32142H83.6425C83.5374 8.47055 83.4549 8.59731 83.3948 8.69424C83.3348 8.79118 83.2748 8.88811 83.2147 8.98504C83.1547 9.08198 83.1022 9.17145 83.0421 9.26839C82.9821 9.36532 82.9221 9.47717 82.8545 9.61884L80.0929 14.7116V17.6643L80.0854 17.6569Z" fill="#595959" fill-opacity="0.7"/>
<path d="M85.0308 9.71579C85.0308 9.44736 85.0308 9.21621 85.0308 9.03726C85.0308 8.8583 85.0158 8.61224 84.9933 8.30653H86.8468L89.4809 13.5857C89.736 14.1002 89.9837 14.6445 90.2313 15.2112C90.4789 15.7779 90.7116 16.3222 90.9367 16.8516C90.9142 16.6353 90.9067 16.3445 90.8917 15.9717C90.8842 15.5989 90.8692 15.2261 90.8617 14.8533C90.8542 14.4879 90.8391 14.1449 90.8316 13.8317C90.8241 13.5186 90.8166 13.3023 90.8166 13.1905V9.65614C90.8166 9.40262 90.8166 9.17893 90.8016 8.98506C90.7941 8.7912 90.7791 8.5675 90.7566 8.29907H92.2725C92.2425 8.56005 92.2274 8.7912 92.2199 8.98506C92.2199 9.17893 92.2199 9.40262 92.2199 9.65614V18.2534C92.2199 18.4622 92.235 18.7082 92.265 18.999H90.569L88.1076 13.9361C87.7399 13.183 87.4097 12.4747 87.1095 11.8036C86.8093 11.1325 86.5617 10.5584 86.3666 10.0812C86.3666 10.275 86.3666 10.5658 86.3816 10.9536C86.3891 11.3413 86.4041 11.729 86.4116 12.1242C86.4191 12.5269 86.4341 12.8922 86.4416 13.2129C86.4491 13.5335 86.4641 13.7423 86.4716 13.8243V17.6494C86.4716 17.9029 86.4716 18.1266 86.4716 18.328C86.4716 18.5218 86.4941 18.753 86.5241 19.0065H84.9783C85.0008 18.753 85.0083 18.5293 85.0233 18.328C85.0308 18.1341 85.0383 17.9029 85.0383 17.6494V9.71579H85.0308Z" fill="#595959" fill-opacity="0.7"/>
<path d="M100.993 17.6121C100.993 17.8656 100.993 18.0968 101.008 18.313C101.015 18.5293 101.038 18.7604 101.075 18.999H99.3341C99.3641 18.7753 99.3866 18.5516 99.3941 18.3205C99.4091 18.0968 99.4166 17.8582 99.4166 17.6047V9.65613C99.4166 9.43244 99.4166 9.20875 99.3941 8.99251C99.3791 8.77627 99.3566 8.54512 99.3341 8.30652H101.075C101.045 8.53767 101.023 8.76882 101.015 8.99251C101 9.2162 100.993 9.43244 100.993 9.66359V17.6121Z" fill="#595959" fill-opacity="0.7"/>
<path d="M104.024 9.71579C104.024 9.44736 104.024 9.21621 104.024 9.03726C104.024 8.8583 104.009 8.61224 103.987 8.30653H105.84L108.474 13.5857C108.73 14.1002 108.977 14.6445 109.225 15.2112C109.472 15.7779 109.705 16.3222 109.93 16.8516C109.908 16.6353 109.9 16.3445 109.885 15.9717C109.878 15.5989 109.863 15.2261 109.855 14.8533C109.848 14.4879 109.833 14.1449 109.825 13.8317C109.818 13.5186 109.81 13.3023 109.81 13.1905V9.65614C109.81 9.40262 109.81 9.17893 109.795 8.98506C109.788 8.7912 109.773 8.5675 109.75 8.29907H111.266C111.236 8.56005 111.221 8.7912 111.213 8.98506C111.213 9.17893 111.213 9.40262 111.213 9.65614V18.2534C111.213 18.4622 111.228 18.7082 111.258 18.999H109.563L107.101 13.9361C106.733 13.183 106.403 12.4747 106.103 11.8036C105.803 11.1325 105.555 10.5584 105.36 10.0812C105.36 10.275 105.36 10.5658 105.375 10.9536C105.383 11.3413 105.398 11.729 105.405 12.1242C105.413 12.5269 105.428 12.8922 105.435 13.2129C105.443 13.5335 105.458 13.7423 105.465 13.8243V17.6494C105.465 17.9029 105.465 18.1266 105.465 18.328C105.465 18.5218 105.488 18.753 105.518 19.0065H103.972C103.994 18.753 104.002 18.5293 104.017 18.328C104.024 18.1341 104.032 17.9029 104.032 17.6494V9.71579H104.024Z" fill="#595959" fill-opacity="0.7"/>
<path d="M117.547 17.6122C117.547 17.7464 117.547 17.8657 117.547 17.9775C117.547 18.0894 117.547 18.2012 117.547 18.3131C117.555 18.4175 117.57 18.5218 117.577 18.6337C117.585 18.7455 117.6 18.8648 117.622 18.9991H115.851C115.859 18.8648 115.874 18.7455 115.881 18.6337C115.889 18.5218 115.904 18.41 115.911 18.3131C115.911 18.2012 115.911 18.0894 115.926 17.9775C115.934 17.8657 115.941 17.7464 115.941 17.6122V9.58906H114.538C114.395 9.58906 114.268 9.58906 114.163 9.58906C114.058 9.58906 113.945 9.60398 113.847 9.61143C113.742 9.61889 113.637 9.62634 113.532 9.6338C113.427 9.6338 113.3 9.64871 113.172 9.65617V8.23199C113.307 8.25436 113.427 8.26182 113.532 8.26928C113.637 8.26928 113.75 8.28419 113.847 8.29165C113.953 8.2991 114.058 8.30656 114.163 8.30656H119.491C119.596 8.30656 119.708 8.30656 119.806 8.29165C119.903 8.28419 120.001 8.27673 120.114 8.26928C120.219 8.26928 120.346 8.25436 120.489 8.23199L120.316 9.65617C120.174 9.64871 120.046 9.64126 119.941 9.6338C119.836 9.6338 119.723 9.61889 119.626 9.61143C119.513 9.60398 119.401 9.59652 119.296 9.58906C119.191 9.58906 119.063 9.58906 118.935 9.58906H117.547V17.6122Z" fill="#595959" fill-opacity="0.7"/>
<path d="M122.297 18.2758C122.312 18.0446 122.32 17.7762 122.32 17.4854V9.87241C122.32 9.58161 122.32 9.31317 122.297 9.06711C122.282 8.82105 122.26 8.56753 122.237 8.30656H126.815C127.025 8.30656 127.228 8.30656 127.438 8.29165C127.648 8.28419 127.881 8.26182 128.128 8.23199L127.986 9.62634C127.791 9.59652 127.565 9.58161 127.325 9.56669C127.085 9.55924 126.875 9.55178 126.695 9.55178H123.836V12.758H125.944C126.2 12.758 126.432 12.758 126.65 12.7431C126.868 12.7357 127.093 12.7133 127.333 12.6835V14.0927C127.108 14.0629 126.875 14.048 126.642 14.0331C126.41 14.0256 126.177 14.0182 125.952 14.0182H123.858V17.6644H126.605C126.92 17.6644 127.205 17.6644 127.468 17.6494C127.731 17.642 128.016 17.6196 128.316 17.5898V19.0513C127.978 19.0289 127.678 19.014 127.415 18.9991C127.153 18.9841 126.883 18.9767 126.597 18.9767H122.237C122.267 18.7232 122.29 18.4771 122.297 18.246V18.2758Z" fill="#595959" fill-opacity="0.7"/>
<path d="M134.837 14.6296C134.98 14.7787 135.137 14.9502 135.295 15.1366C135.437 15.3305 135.588 15.5467 135.745 15.7853C135.903 16.0164 136.083 16.2849 136.285 16.5757L137.036 17.7463C137.118 17.888 137.194 18.0073 137.254 18.1042C137.314 18.2012 137.381 18.2907 137.441 18.3801C137.501 18.4771 137.561 18.5665 137.629 18.6635C137.696 18.7604 137.786 18.8723 137.891 19.0139H135.865C135.805 18.8946 135.76 18.7902 135.715 18.7082C135.67 18.6262 135.633 18.5516 135.595 18.4771C135.558 18.4025 135.52 18.3205 135.482 18.2385C135.445 18.1564 135.4 18.052 135.34 17.9253L135.055 17.3362C134.897 17.0081 134.732 16.7099 134.574 16.4415C134.417 16.173 134.259 15.927 134.109 15.7033C133.937 15.487 133.772 15.2932 133.614 15.1142C133.456 14.9353 133.291 14.7787 133.134 14.637C132.999 14.5252 132.863 14.4431 132.728 14.3909C132.593 14.3387 132.398 14.3089 132.143 14.3015V17.6643C132.143 17.7985 132.143 17.9178 132.143 18.0222C132.143 18.1266 132.143 18.2385 132.143 18.3354C132.151 18.4398 132.166 18.5442 132.173 18.656C132.181 18.7679 132.196 18.8872 132.218 19.0065H130.545C130.552 18.8872 130.567 18.7679 130.575 18.656C130.582 18.5442 130.597 18.4323 130.605 18.3354C130.605 18.231 130.605 18.1266 130.62 18.0222C130.627 17.9178 130.635 17.7985 130.635 17.6643V9.90964C130.635 9.76051 130.635 9.61884 130.62 9.49208C130.612 9.36532 130.605 9.23856 130.605 9.11926C130.597 8.99996 130.582 8.8732 130.567 8.74644C130.552 8.61968 130.545 8.47801 130.53 8.31396H133.817C134.304 8.31396 134.77 8.38107 135.197 8.50783C135.625 8.64205 136 8.82846 136.308 9.08198C136.623 9.34295 136.863 9.66358 137.036 10.0364C137.209 10.4092 137.299 10.8417 137.299 11.3189C137.299 11.7066 137.239 12.072 137.118 12.415C136.998 12.7654 136.826 13.0637 136.601 13.3321C136.376 13.608 136.098 13.8168 135.775 13.9734C135.452 14.13 135.077 14.2045 134.665 14.2045H134.349C134.507 14.3387 134.665 14.4804 134.807 14.6296H134.837ZM132.151 13.2352H133.299C133.749 13.2352 134.132 13.1905 134.447 13.1084C134.762 13.0264 135.01 12.8997 135.197 12.7282C135.377 12.5716 135.505 12.3703 135.588 12.1391C135.67 11.908 135.708 11.6395 135.708 11.3338C135.708 11.0281 135.655 10.7895 135.558 10.5658C135.46 10.3421 135.31 10.1557 135.115 9.99912C134.905 9.85744 134.657 9.7456 134.357 9.67103C134.057 9.58901 133.711 9.55173 133.314 9.55173H132.151V13.2352Z" fill="#595959" fill-opacity="0.7"/>
<path d="M141.644 17.6121C141.644 17.8656 141.644 18.0968 141.659 18.313C141.666 18.5293 141.689 18.7604 141.726 18.999H139.985C140.015 18.7753 140.038 18.5516 140.045 18.3205C140.06 18.0968 140.068 17.8582 140.068 17.6047V9.65613C140.068 9.43244 140.068 9.20875 140.045 8.99251C140.03 8.77627 140.008 8.54512 139.985 8.30652H141.726C141.696 8.53767 141.674 8.76882 141.666 8.99251C141.651 9.2162 141.644 9.43244 141.644 9.66359V17.6121Z" fill="#595959" fill-opacity="0.7"/>
<path d="M146.664 18.8126C146.101 18.574 145.628 18.2161 145.238 17.7389C144.84 17.2766 144.54 16.7099 144.323 16.0239C144.112 15.3379 144.007 14.5476 144.007 13.6602C144.007 12.7729 144.12 11.9676 144.338 11.2816C144.563 10.5957 144.87 10.0215 145.268 9.55176C145.658 9.10438 146.124 8.75392 146.671 8.51532C147.219 8.27671 147.82 8.15741 148.488 8.15741C149.155 8.15741 149.741 8.27671 150.296 8.51532C150.851 8.75392 151.324 9.09692 151.722 9.55176C152.112 10.0215 152.412 10.6031 152.637 11.2891C152.863 11.9751 152.968 12.7729 152.968 13.6752C152.968 14.5177 152.87 15.2783 152.675 15.9643C152.48 16.6428 152.202 17.217 151.834 17.6867C151.459 18.1639 150.994 18.5367 150.446 18.7903C149.898 19.0512 149.268 19.178 148.563 19.178C147.857 19.178 147.234 19.0587 146.671 18.8201L146.664 18.8126ZM149.688 17.7613C150.026 17.5749 150.304 17.3064 150.529 16.9411C150.754 16.5832 150.926 16.1432 151.039 15.6213C151.152 15.0993 151.212 14.4879 151.212 13.7945C151.212 13.0414 151.152 12.3927 151.039 11.8334C150.926 11.2742 150.754 10.8119 150.529 10.4465C150.304 10.0812 150.018 9.80528 149.673 9.62632C149.328 9.43991 148.923 9.35044 148.465 9.35044C148.007 9.35044 147.595 9.43991 147.249 9.62632C146.897 9.81273 146.611 10.0737 146.386 10.4242C146.154 10.7895 145.974 11.2369 145.861 11.7589C145.748 12.2808 145.688 12.8922 145.688 13.5857C145.688 14.3239 145.748 14.98 145.869 15.5318C145.989 16.091 146.161 16.5533 146.401 16.9187C146.626 17.2915 146.919 17.5749 147.272 17.7613C147.625 17.9477 148.037 18.0446 148.51 18.0446C148.983 18.0446 149.358 17.9551 149.696 17.7687L149.688 17.7613Z" fill="#595959" fill-opacity="0.7"/>
<path d="M159.421 14.6296C159.564 14.7787 159.722 14.9502 159.879 15.1366C160.022 15.3305 160.172 15.5467 160.329 15.7853C160.487 16.0164 160.667 16.2849 160.87 16.5757L161.62 17.7463C161.703 17.888 161.778 18.0073 161.838 18.1042C161.898 18.2012 161.965 18.2907 162.025 18.3801C162.085 18.4771 162.145 18.5665 162.213 18.6635C162.281 18.7604 162.371 18.8723 162.476 19.0139H160.449C160.389 18.8946 160.344 18.7902 160.299 18.7082C160.254 18.6262 160.217 18.5516 160.179 18.4771C160.142 18.4025 160.104 18.3205 160.067 18.2385C160.029 18.1564 159.984 18.052 159.924 17.9253L159.639 17.3362C159.481 17.0081 159.316 16.7099 159.159 16.4415C159.001 16.173 158.844 15.927 158.693 15.7033C158.521 15.487 158.356 15.2932 158.198 15.1142C158.041 14.9353 157.875 14.7787 157.718 14.637C157.583 14.5252 157.448 14.4431 157.313 14.3909C157.178 14.3387 156.982 14.3089 156.727 14.3015V17.6643C156.727 17.7985 156.727 17.9178 156.727 18.0222C156.727 18.1266 156.727 18.2385 156.727 18.3354C156.735 18.4398 156.75 18.5442 156.757 18.656C156.765 18.7679 156.78 18.8872 156.802 19.0065H155.129C155.136 18.8872 155.151 18.7679 155.159 18.656C155.166 18.5442 155.181 18.4323 155.189 18.3354C155.189 18.231 155.189 18.1266 155.204 18.0222C155.211 17.9178 155.219 17.7985 155.219 17.6643V9.90964C155.219 9.76051 155.219 9.61884 155.204 9.49208C155.196 9.36532 155.189 9.23856 155.189 9.11926C155.181 8.99996 155.166 8.8732 155.151 8.74644C155.136 8.61968 155.129 8.47801 155.114 8.31396H158.401C158.889 8.31396 159.354 8.38107 159.782 8.50783C160.209 8.64205 160.585 8.82846 160.892 9.08198C161.207 9.34295 161.448 9.66358 161.62 10.0364C161.793 10.4092 161.883 10.8417 161.883 11.3189C161.883 11.7066 161.823 12.072 161.703 12.415C161.583 12.7654 161.41 13.0637 161.185 13.3321C160.96 13.608 160.682 13.8168 160.359 13.9734C160.037 14.13 159.662 14.2045 159.249 14.2045H158.934C159.091 14.3387 159.249 14.4804 159.391 14.6296H159.421ZM156.735 13.2352H157.883C158.333 13.2352 158.716 13.1905 159.031 13.1084C159.346 13.0264 159.594 12.8997 159.782 12.7282C159.962 12.5716 160.089 12.3703 160.172 12.1391C160.254 11.908 160.292 11.6395 160.292 11.3338C160.292 11.0281 160.239 10.7895 160.142 10.5658C160.044 10.3421 159.894 10.1557 159.699 9.99912C159.489 9.85744 159.241 9.7456 158.941 9.67103C158.641 9.58901 158.296 9.55173 157.898 9.55173H156.735V13.2352Z" fill="#595959" fill-opacity="0.7"/>
</svg>
