<svg width="58" height="58" viewBox="0 0 58 58" fill="none" xmlns="http://www.w3.org/2000/svg">
<g opacity="0.9" clip-path="url(#clip0_115_1458)">
<rect width="58" height="58" fill="white"/>
<path d="M58 47.3672C58 53.2364 53.2821 57.9897 47.4564 57.9897H10.5436C4.71795 57.9897 0 53.2364 0 47.3672V10.6225C0 4.76358 4.71795 0 10.5436 0H47.4564C53.2821 0 58 4.76358 58 10.6225V47.3672Z" fill="#999999"/>
<path d="M24.2154 53.2571C22.6564 53.2261 20.8205 53.1847 20.1231 53.1537C15.4564 52.9884 12.2462 52.8024 11.6 52.6784C10.6872 52.4924 9.66156 51.8724 9.07695 51.1284C8.1231 49.9608 7.62054 48.5348 7.37438 46.3442C6.80002 41.2396 6.81028 35.298 7.40515 30.3691C7.66156 28.2095 8.30772 26.6595 9.3949 25.5642C10.0103 24.9442 10.6052 24.6032 11.4052 24.3966C13.118 23.9522 26.5436 23.6009 34.718 23.7869C39.4359 23.8902 44.5334 24.1072 45.8872 24.2622C47.6411 24.4689 48.8718 25.3782 49.7231 27.1142C50.359 28.4265 50.5744 29.4391 50.8308 32.5804C51.0359 35.0707 51.0872 36.6207 51.0462 39.4933C51.0052 42.9239 50.7898 45.9515 50.4616 47.6462C50.1231 49.4441 49.3128 50.9734 48.2564 51.8001C47.4462 52.4407 46.5846 52.7301 45.2308 52.8024C44.8205 52.8231 44.318 52.8541 44.0923 52.8747C43.3129 52.9264 39.1282 53.1021 36.8308 53.1641C33.4154 53.2674 27.4564 53.2984 24.2052 53.2364" fill="white"/>
<path fill-rule="evenodd" clip-rule="evenodd" d="M24.6667 46.6232C23.8564 47.4085 23.1487 48.0595 22.1436 48.2765C20.8513 48.5452 19.9385 47.9665 19.7949 46.6439C19.7026 45.7965 19.7231 44.9492 19.7128 44.1019C19.7128 40.816 19.7128 37.5197 19.7128 34.2337C19.7128 33.7687 19.7949 33.5518 20.318 33.6034C20.9949 33.6861 21.9077 33.3141 22.3077 33.7584C22.6462 34.1511 22.4205 35.0397 22.4205 35.7114C22.4205 38.677 22.4205 41.6426 22.4205 44.5979C22.4205 44.9906 22.3692 45.4142 22.8103 45.6209C23.2205 45.8069 23.559 45.5795 23.8872 45.3626C24.4103 45.0319 24.6667 44.6289 24.6667 43.9366C24.6257 40.692 24.6667 37.437 24.6667 34.2027C24.6667 33.7687 24.759 33.5621 25.241 33.6034C25.7128 33.6448 26.1949 33.6551 26.6667 33.6034C27.2205 33.5518 27.3949 33.7171 27.3949 34.3061C27.4257 38.2947 27.4154 42.2729 27.3641 46.2719C27.3641 46.7472 27.3436 47.2225 27.3641 47.7082C27.3744 48.0492 27.2615 48.1732 26.9128 48.1628C26.3282 48.1422 25.7436 48.1318 25.159 48.1628C24.7385 48.1835 24.6257 48.0078 24.6667 47.6255C24.6872 47.3465 24.6667 47.0675 24.6667 46.6232Z" fill="#999999"/>
<path fill-rule="evenodd" clip-rule="evenodd" d="M13.5795 39.7C13.5795 37.1063 13.5692 34.5127 13.5897 31.9191C13.5897 31.4748 13.4769 31.3094 13.0154 31.3404C12.2974 31.3714 11.5897 31.3404 10.8718 31.3508C10.5333 31.3508 10.4307 31.2371 10.441 30.8961C10.4615 30.2245 10.4615 29.5528 10.441 28.8708C10.441 28.5505 10.5128 28.3955 10.8718 28.3955C13.7025 28.3955 16.5333 28.3955 19.3743 28.3748C19.723 28.3748 19.8154 28.5091 19.8051 28.8398C19.7846 29.5115 19.7846 30.1935 19.8051 30.8651C19.8051 31.2371 19.7025 31.3611 19.3333 31.3611C18.6666 31.3301 17.9897 31.3818 17.323 31.3404C16.8205 31.3094 16.6769 31.4644 16.6769 31.9811C16.6974 36.5897 16.6769 41.2086 16.6769 45.8275C16.6769 46.4165 16.6461 47.0055 16.6769 47.5945C16.7077 48.0698 16.5333 48.1938 16.0923 48.1731C15.4666 48.1318 14.841 48.1318 14.2154 48.1731C13.723 48.2041 13.5897 48.0285 13.6 47.5428C13.6205 44.9285 13.6102 42.3142 13.6102 39.7H13.6H13.5795Z" fill="#999999"/>
<path fill-rule="evenodd" clip-rule="evenodd" d="M37.3641 35.0294C36.8923 33.7584 35.7436 33.1591 34.441 33.4897C33.8154 33.6447 33.3128 34.0167 32.8821 34.5024C32.7385 34.5334 32.7077 34.6471 32.7077 34.4817C32.6872 32.8181 32.7077 30.6585 32.6975 29.0052C32.6975 28.7778 32.7898 28.5092 32.4923 28.3852C31.8051 28.3852 31.1077 28.4058 30.4205 28.3852C30.0308 28.3645 29.8975 28.4885 29.9077 28.8915C29.9282 29.9558 29.918 31.0201 29.918 32.0948C29.918 37.2407 29.918 42.3763 29.918 47.5118C29.918 48.0078 30.0103 48.2352 30.5539 48.1835C31.1077 48.1318 31.6821 48.1525 32.2359 48.1835C32.6051 48.2042 32.759 48.0802 32.718 47.6978C32.7077 47.5945 32.6564 47.4292 32.8616 47.3672C32.9641 47.4498 33.0769 47.5532 33.1898 47.6462C35.0564 49.1548 37.2513 48.3385 37.6513 45.9722C37.6923 45.6932 37.7026 45.4039 37.7026 45.1249C37.7026 42.4176 37.7026 39.7206 37.7026 37.0237C37.7026 36.3417 37.6 35.6804 37.3539 35.05M34.2872 45.9309C33.7949 46.1375 33.3744 45.9102 32.9744 45.6002C32.7282 45.4039 32.7282 45.1765 32.7282 44.9079C32.7282 43.5646 32.7282 42.2109 32.7282 40.8573C32.7282 39.5036 32.759 38.1603 32.718 36.8067C32.6975 36.135 33.0975 35.918 33.6 35.8147C34.1333 35.701 34.5334 35.9594 34.7077 36.4864C34.7795 36.724 34.8103 36.9927 34.8103 37.2613C34.8205 39.762 34.8205 42.2729 34.8205 44.7736C34.8205 45.2385 34.7898 45.7242 34.2769 45.9309" fill="#999999"/>
<path fill-rule="evenodd" clip-rule="evenodd" d="M47.159 42.8826C46.4821 42.8826 45.8154 42.9033 45.1487 42.8826C44.8103 42.8826 44.6872 42.9963 44.6872 43.3269C44.6872 43.9572 44.7487 44.5979 44.6051 45.2179C44.5231 45.5796 44.3179 45.7759 43.9692 45.8792C43.1897 46.1169 42.5949 45.7552 42.5231 44.8769C42.4513 43.8332 42.4923 42.7793 42.4513 41.746C42.4308 41.3223 42.6051 41.2396 42.9846 41.25C43.6513 41.2706 44.3282 41.25 44.9949 41.25C45.7026 41.25 46.4205 41.25 47.1282 41.25C47.4256 41.25 47.559 41.1776 47.5487 40.847C47.5282 39.5243 47.5897 38.1913 47.5077 36.8584C47.4051 34.9777 46.4 33.7068 44.841 33.3348C42.0308 32.6528 39.6718 34.4507 39.6103 37.3544C39.559 39.762 39.6103 42.1593 39.6103 44.5566C39.6103 45.0526 39.7333 45.5486 39.8872 46.0239C40.4205 47.6462 41.8462 48.5968 43.7026 48.5658C45.5487 48.5348 46.841 47.5739 47.3333 45.8895C47.5897 45.0112 47.5179 44.1226 47.5487 43.2236C47.5487 42.9136 47.4051 42.8619 47.1487 42.8619M42.441 37.84C42.441 37.4784 42.4615 37.1064 42.5231 36.7344C42.6256 36.135 42.9949 35.8251 43.6 35.8251C44.2051 35.8251 44.5333 36.1454 44.6462 36.7034C44.7795 37.344 44.6872 38.0053 44.7077 38.6563C44.7077 38.9043 44.5744 38.9457 44.3795 38.9353C44.0923 38.9353 43.8256 38.9353 43.5385 38.9353C42.4308 38.9353 42.4308 38.9353 42.441 37.84Z" fill="#999999"/>
<path fill-rule="evenodd" clip-rule="evenodd" d="M21.6513 10.9015C22.1333 8.89686 22.6256 6.93356 23.0666 4.95993C23.1692 4.50527 23.3538 4.36061 23.7948 4.40194C24.2871 4.44327 24.7897 4.43294 25.282 4.40194C25.7641 4.36061 25.8666 4.50527 25.7128 4.9806C25.1282 6.86123 24.6871 8.8142 23.9692 10.6535C22.9333 13.3298 22.7384 16.0784 22.8718 18.9097C22.9025 19.4987 22.8718 20.0877 22.882 20.6663C22.8923 21.028 22.7795 21.1727 22.4 21.152C21.8871 21.121 21.3641 21.121 20.841 21.152C20.3897 21.183 20.2461 21.028 20.2564 20.5733C20.2871 18.9614 20.2359 17.3494 20.2769 15.7374C20.3077 14.8178 20.1025 13.9704 19.8461 13.1128C19.0051 10.3745 18.1846 7.61555 17.3333 4.87727C17.2102 4.47427 17.2923 4.37094 17.6923 4.39161C18.2359 4.41227 18.7795 4.43294 19.3128 4.39161C19.7538 4.36061 19.8974 4.55694 20 4.9496C20.4513 6.80957 20.9333 8.6592 21.3948 10.5192C21.4256 10.6328 21.4051 10.7775 21.6205 10.9015" fill="white"/>
<path fill-rule="evenodd" clip-rule="evenodd" d="M38.2974 19.9223C37.8667 20.3357 37.518 20.687 37.0872 20.935C35.4769 21.8546 34.2051 21.1623 34.1641 19.3127C34.1333 17.7007 34.1539 16.0887 34.1539 14.4768C34.1539 12.8648 34.1846 11.1185 34.1539 9.44452C34.1539 8.9072 34.318 8.76253 34.8103 8.8142C35.1795 8.85553 35.5487 8.85553 35.918 8.8142C36.3795 8.77287 36.4923 8.95886 36.4821 9.40319C36.4615 12.2345 36.4821 15.0658 36.4821 17.8867C36.4821 18.1244 36.4821 18.3724 36.5128 18.61C36.5846 18.9717 36.841 19.0957 37.1897 19.0337C37.8154 18.92 38.318 18.2897 38.318 17.649C38.318 14.9004 38.3385 12.1621 38.318 9.41352C38.318 8.91753 38.4615 8.79353 38.9333 8.80387C40.6462 8.8142 40.6462 8.80387 40.6462 10.5192C40.6462 13.8051 40.6256 17.0911 40.6564 20.377C40.6564 21.0383 40.4513 21.2347 39.8564 21.1313C39.7333 21.1107 39.6 21.1313 39.4667 21.1313C38.7214 21.1313 38.3248 20.7249 38.2769 19.912" fill="white"/>
<path fill-rule="evenodd" clip-rule="evenodd" d="M32.2667 11.2528C32.1641 9.54786 30.7077 8.40087 28.9538 8.47321C26.9128 8.5662 25.6923 9.71319 25.6718 11.5835C25.6615 12.6685 25.6718 13.7534 25.6718 14.8488H25.6821C25.6821 15.4584 25.6821 16.0681 25.6821 16.6881C25.6821 17.2977 25.6615 17.9074 25.7026 18.5067C25.8154 20.222 26.8923 21.307 28.5744 21.4723C30.6154 21.6583 32.1231 20.625 32.2359 18.765C32.4 16.2747 32.4103 13.7638 32.2564 11.2632M29.9077 18.1657C29.9077 18.8477 29.5282 19.261 28.9744 19.261C28.4205 19.261 28.082 18.8684 28.082 18.1967C28.082 15.9957 28.082 13.8051 28.1026 11.6042C28.1026 11.0565 28.4821 10.6845 28.9846 10.6845C29.5179 10.6845 29.8974 11.0668 29.9077 11.6455C29.9077 12.7511 29.9077 13.8671 29.9077 14.9728C29.9077 16.0371 29.9077 17.1014 29.9077 18.1657Z" fill="white"/>
</g>
<defs>
<clipPath id="clip0_115_1458">
<rect width="58" height="58" fill="white"/>
</clipPath>
</defs>
</svg>
