<svg width="58" height="58" viewBox="0 0 58 58" fill="none" xmlns="http://www.w3.org/2000/svg">
<g opacity="0.9" clip-path="url(#clip0_115_1451)">
<rect width="58" height="58" fill="white"/>
<path d="M58 47.3792C58 53.2505 53.2768 58.0105 47.4508 58.0105H10.5388C4.71283 58.0105 0 53.261 0 47.3792V10.6208C0 4.74946 4.72323 0 10.5388 0H47.4508C53.2768 0 58 4.74946 58 10.6208V47.3792Z" fill="#999999"/>
<path d="M45.3908 4.75995H11.7352C7.43854 4.75995 3.96375 8.28273 3.96375 12.6233V31.2646C3.96375 35.6052 7.43854 39.1175 11.7352 39.1175H23.3352L27.2886 45.6074C27.2886 45.6074 27.3302 45.6913 27.4134 45.7961C27.6423 46.1945 28.0689 46.4671 28.5682 46.4671C29.0676 46.4671 29.4837 46.1945 29.7126 45.8066C29.8167 45.6913 29.8479 45.6074 29.8479 45.6074L33.8012 39.1175H45.3908C49.6771 39.1175 53.1623 35.6052 53.1623 31.2646V12.6233C53.1623 8.28273 49.6771 4.75995 45.3908 4.75995Z" fill="white"/>
<path d="M14.8979 18.4212C14.8979 18.4212 13.5559 18.4212 12.3282 19.6269V14.8145H9.32159V27.4588H12.3594V26.4732C12.3594 26.4732 13.0773 27.7838 14.8875 27.7838C14.8875 27.7838 19.1322 27.6265 19.1322 23.0553C19.1322 23.0553 18.9761 18.4317 14.8875 18.4317M14.2321 25.0893C13.1605 25.0893 12.297 24.2191 12.297 23.1392C12.297 22.0593 13.1605 21.1891 14.2321 21.1891C15.3037 21.1891 16.1672 22.0593 16.1672 23.1392C16.1672 24.2191 15.3037 25.0893 14.2321 25.0893Z" fill="#999999"/>
<path d="M20.1101 14.5105V17.4461C20.1101 17.4461 21.4834 17.3832 21.4834 19.9624V27.4483H24.386V19.2704C24.386 19.2704 24.5108 14.5105 20.1101 14.5105Z" fill="#999999"/>
<path d="M31.4813 18.4631C31.4813 18.4631 26.4979 18.4631 26.4979 23.1392C26.4979 23.1392 26.3419 27.7628 31.4813 27.7628C31.4813 27.7628 36.5686 27.7628 36.5686 23.1392C36.5686 23.1392 36.7351 18.4631 31.4813 18.4631ZM31.4813 25.0893C30.4097 25.0893 29.5462 24.2191 29.5462 23.1392C29.5462 22.0593 30.4097 21.1891 31.4813 21.1891C32.5528 21.1891 33.4163 22.0593 33.4163 23.1392C33.4163 24.2191 32.5528 25.0893 31.4813 25.0893Z" fill="#999999"/>
<path d="M44.8811 18.7567V19.6164C44.8811 19.6164 44.0176 18.4631 42.353 18.4631C42.353 18.4631 38.0979 18.2744 38.0979 23.1078C38.0979 23.1078 38.0563 27.6161 42.2385 27.6161C42.2385 27.6161 43.9447 27.679 44.8811 26.4628V27.1652C44.8811 27.1652 45.0995 29.3879 42.9668 29.3879H42.2385V32.072H43.4142C43.4142 32.072 47.8149 32.1244 47.8149 27.333V18.7567H44.8811ZM43.0812 25.0893C42.0097 25.0893 41.1462 24.2191 41.1462 23.1392C41.1462 22.0593 42.0097 21.1891 43.0812 21.1891C44.1528 21.1891 45.0163 22.0593 45.0163 23.1392C45.0163 24.2191 44.1528 25.0893 43.0812 25.0893Z" fill="#999999"/>
</g>
<defs>
<clipPath id="clip0_115_1451">
<rect width="58" height="58" fill="white"/>
</clipPath>
</defs>
</svg>
