<svg width="121" height="27" viewBox="0 0 121 27" fill="none" xmlns="http://www.w3.org/2000/svg">
<path d="M14.1883 24.2964L12.4743 25.9994L13.2862 26.8061L15.0001 25.1031L14.1883 24.2964Z" fill="#595959" fill-opacity="0.7"/>
<path d="M13.2485 0.984621L12.4378 1.79242L25.4406 14.6762L26.2513 13.8684L13.2485 0.984621Z" fill="#595959" fill-opacity="0.7"/>
<path d="M1.10497 13.0543L0.291519 13.8595L13.2513 26.786L14.0647 25.9809L1.10497 13.0543Z" fill="#595959" fill-opacity="0.7"/>
<path d="M13.2715 0.986951L0.295868 13.8977L1.10831 14.7038L14.0839 1.79308L13.2715 0.986951Z" fill="#595959" fill-opacity="0.7"/>
<path d="M25.4547 13.1006L14.9056 23.5823L15.7175 24.389L26.2665 13.9073L25.4547 13.1006Z" fill="#595959" fill-opacity="0.7"/>
<path d="M13.2934 5.85466L5.17429 13.9106L5.98559 14.7179L14.1047 6.66191L13.2934 5.85466Z" fill="#595959" fill-opacity="0.7"/>
<path d="M20.6062 13.1051L15.6439 18.034L16.4557 18.8408L21.418 13.9119L20.6062 13.1051Z" fill="#595959" fill-opacity="0.7"/>
<path d="M5.99046 13.1092L5.17804 13.9153L15.7197 24.4044L16.5322 23.5982L5.99046 13.1092Z" fill="#595959" fill-opacity="0.7"/>
<path d="M13.2725 5.82576L12.4612 6.633L20.5803 14.689L21.3916 13.8818L13.2725 5.82576Z" fill="#595959" fill-opacity="0.7"/>
<path d="M11.4059 15.2642L12.0662 14.3098L16.5313 18.7389L15.7209 19.5442L11.4059 15.2642Z" fill="#595959" fill-opacity="0.7"/>
<path d="M13.4095 12.2145L15.946 11.3868C15.931 11.8417 15.6233 12.9527 15.6233 13.6014L15.8709 18.0678H14.6102V14.1606C14.6102 14.0115 14.5952 13.8549 14.5576 13.7654C14.4751 13.4672 14.0924 12.9452 13.4395 12.9079C12.9817 12.8781 13.402 12.222 13.402 12.222L13.4095 12.2145Z" fill="#595959" fill-opacity="0.7"/>
<path d="M13.4245 12.9079C12.7642 12.9452 12.3814 13.4672 12.2989 13.7654C12.2689 13.8624 12.2463 14.019 12.2463 14.1606L12.2989 16.2037L11.2858 15.2642L11.2332 13.6014C11.2332 12.9601 10.9256 11.8417 10.9106 11.3868L13.447 12.2145C13.447 12.2145 13.8673 12.8781 13.4095 12.9005L13.4245 12.9079Z" fill="#595959" fill-opacity="0.7"/>
<path d="M10.9182 11.3868C10.9182 11.3868 12.3215 11.7373 13.4471 11.7373V12.3189L11.0983 11.7671L10.9182 11.3868Z" fill="#595959" fill-opacity="0.7"/>
<path d="M15.9385 11.3943C15.9385 11.3943 14.5577 11.7447 13.4395 11.7447L13.417 12.4009L15.7659 11.782L15.946 11.4017L15.9385 11.3943Z" fill="#595959" fill-opacity="0.7"/>
<path d="M36.2077 12.8185H32.0278V14.3247H33.6412C33.9264 14.3247 34.2491 14.3172 34.6018 14.2949C34.962 14.2725 35.3222 14.2501 35.6749 14.2128C36.0351 14.1756 36.3803 14.1308 36.718 14.0861C37.0557 14.0413 37.3409 13.9892 37.5735 13.9444V15.2269C37.3409 15.2642 37.0482 15.3015 36.703 15.3462C36.3578 15.391 35.9901 15.4282 35.5924 15.4655C35.1871 15.4953 34.7669 15.5252 34.3391 15.5475C33.9114 15.5774 33.4911 15.5923 33.0859 15.6072C32.9808 15.6072 32.7932 15.6072 32.5155 15.6072C32.2379 15.6072 31.9528 15.6072 31.6601 15.6072C31.3599 15.6147 30.9772 15.6221 30.5119 15.6221V11.5807H34.7218V10.1044H31.7876C31.555 10.1044 31.3374 10.1044 31.1423 10.1044C30.9472 10.1044 30.737 10.1267 30.5119 10.1566V8.74729C30.737 8.77712 30.9472 8.79203 31.1423 8.79949C31.3374 8.79949 31.5475 8.79949 31.7876 8.79949H36.2603C36.2302 9.01572 36.2152 9.21705 36.2077 9.41091C36.2077 9.60478 36.2077 9.8061 36.2077 10.0074V12.7961V12.8185ZM40.4702 20.3868C40.4777 20.6105 40.5002 20.8267 40.5302 21.0355H38.8192C38.8492 20.8416 38.8643 20.6254 38.8718 20.3868C38.8718 20.1556 38.8718 19.9319 38.8718 19.7231V18.1051H33.1384C32.8533 18.1051 32.5981 18.1051 32.358 18.1051C32.1254 18.1051 31.8627 18.1275 31.5775 18.1573V16.7331C31.8627 16.7629 32.1178 16.7779 32.358 16.7779H40.5152C40.4852 16.9643 40.4702 17.1432 40.4627 17.3222C40.4627 17.4937 40.4627 17.6726 40.4627 17.8516V19.7231C40.4627 19.9394 40.4627 20.1631 40.4777 20.3868H40.4702ZM37.9337 12.5501C37.7611 12.5501 37.5885 12.5501 37.4009 12.5501C37.2133 12.5501 37.0407 12.5724 36.8831 12.6023V11.193C37.0557 11.2228 37.2358 11.2377 37.4234 11.2452C37.611 11.2452 37.7911 11.2452 37.9637 11.2452H38.9243V9.82102C38.9243 9.58987 38.9243 9.35126 38.9093 9.12011C38.9018 8.88896 38.8792 8.6429 38.8492 8.4043H40.5077C40.4777 8.65036 40.4627 8.88896 40.4552 9.12011C40.4552 9.35126 40.4552 9.58987 40.4552 9.82102V16.2559H38.9243V12.5426H37.9337V12.5501Z" fill="#595959" fill-opacity="0.7"/>
<path d="M47.5093 11.6926C47.5093 12.3189 47.5768 12.9005 47.7118 13.4225C47.8469 13.9444 48.0421 14.4291 48.2972 14.8541C48.5899 15.376 48.9501 15.8458 49.3853 16.2559C49.8206 16.666 50.3084 17.0314 50.8412 17.3445C50.6161 17.5235 50.3984 17.7024 50.1958 17.8889C49.9932 18.0753 49.8281 18.2319 49.693 18.3735C49.4379 18.2169 49.1677 18.0156 48.89 17.777C48.6124 17.5384 48.3422 17.27 48.0721 16.9792C47.7869 16.6884 47.5317 16.3752 47.2916 16.0322C47.059 15.6892 46.8639 15.3388 46.7138 14.9809C46.6087 15.3089 46.4511 15.6445 46.2335 15.9949C46.0159 16.3454 45.7683 16.6809 45.4981 17.009C45.2129 17.3445 44.9128 17.6577 44.5976 17.9485C44.2824 18.2393 43.9897 18.4705 43.7121 18.6494C43.562 18.5077 43.3668 18.3437 43.1267 18.1573C42.8866 17.9709 42.6539 17.7994 42.4288 17.6503C43.0141 17.2998 43.5319 16.9046 43.9747 16.4572C44.4175 16.0098 44.7927 15.5028 45.0928 14.951C45.348 14.4738 45.5431 13.9519 45.6857 13.3852C45.8283 12.826 45.8958 12.2294 45.8958 11.5956V10.343C45.8958 10.0894 45.8958 9.85084 45.8808 9.62715C45.8733 9.40346 45.8508 9.16485 45.8208 8.91133H47.5618C47.5318 9.16485 47.5168 9.40346 47.5017 9.62715C47.4942 9.85084 47.4867 10.0894 47.4867 10.343V11.6777L47.5093 11.6926ZM50.7211 11.6628C50.5485 11.6628 50.3684 11.6628 50.1733 11.6628C49.9782 11.6628 49.8056 11.6851 49.6405 11.7149V10.2759C49.8131 10.3057 49.9932 10.3206 50.1808 10.3281C50.3684 10.3281 50.5485 10.3281 50.7211 10.3281H52.1094V10.2833C52.1094 9.97014 52.1094 9.66443 52.0944 9.35126C52.0869 9.03809 52.0644 8.71747 52.0344 8.4043H53.6928C53.6628 8.72492 53.6478 9.03809 53.6403 9.35126C53.6403 9.66443 53.6403 9.9776 53.6403 10.2833V19.0819C53.6403 19.4025 53.6403 19.7157 53.6403 20.0289C53.6403 20.342 53.6628 20.6552 53.6928 20.9684H52.0344C52.0644 20.6552 52.0794 20.3495 52.0944 20.0289C52.1019 19.7157 52.1094 19.3951 52.1094 19.0819V14.8914H50.7061C50.5335 14.8914 50.3534 14.8914 50.1583 14.8914C49.9632 14.8914 49.7906 14.9137 49.6255 14.9436V13.497C49.7981 13.5269 49.9782 13.5418 50.1658 13.5492C50.3534 13.5492 50.5335 13.5492 50.7061 13.5492H52.1094V11.6478H50.7211V11.6628Z" fill="#595959" fill-opacity="0.7"/>
<path d="M58.1279 10.3802C57.8952 10.3802 57.6776 10.3802 57.4825 10.3802C57.2874 10.3802 57.0773 10.4026 56.8522 10.4324V8.99333C57.0773 9.02316 57.2874 9.03807 57.4825 9.04553C57.6776 9.04553 57.8877 9.04553 58.1279 9.04553H62.8331C62.8031 9.26176 62.7881 9.46309 62.7806 9.65695C62.7806 9.85082 62.7806 10.0521 62.7806 10.2535V14.1532H58.3755V16.7182H60.6268C60.8895 16.7182 61.1972 16.7107 61.5574 16.6884C61.9101 16.6734 62.2703 16.6436 62.623 16.6063C62.9832 16.5691 63.3209 16.5318 63.6511 16.4945C63.9738 16.4572 64.2514 16.4125 64.4691 16.3677V17.6875C64.2439 17.7248 63.9587 17.7621 63.6135 17.8068C63.2684 17.8516 62.8931 17.8814 62.4879 17.9112C62.0752 17.9485 61.6474 17.9783 61.2047 18.0081C60.7694 18.038 60.3417 18.0529 59.9364 18.0529L56.8596 18.0678V12.8632H61.2647V10.3728H58.1354L58.1279 10.3802ZM66.6078 20.0288C66.6078 20.342 66.6303 20.6552 66.6603 20.9683H65.0019C65.0319 20.6552 65.0469 20.3495 65.0619 20.0288C65.0694 19.7157 65.0769 19.395 65.0769 19.0819V10.2982C65.0769 9.98504 65.0769 9.67932 65.0619 9.36615C65.0544 9.05299 65.0319 8.73236 65.0019 8.41919H66.6603C66.6303 8.73982 66.6153 9.05299 66.6078 9.36615C66.6078 9.67932 66.6078 9.99249 66.6078 10.2982V19.0819C66.6078 19.4025 66.6078 19.7157 66.6078 20.0288Z" fill="#595959" fill-opacity="0.7"/>
<path d="M70.8478 15.0778C70.4876 14.9137 70.1799 14.6826 69.9247 14.3843C69.6621 14.0935 69.452 13.7431 69.3019 13.333C69.1518 12.9229 69.0768 12.4829 69.0768 12.0057C69.0768 11.5285 69.1518 11.0886 69.3019 10.6859C69.452 10.2833 69.6621 9.93284 69.9247 9.64204C70.1799 9.35124 70.4876 9.12009 70.8478 8.95605C71.208 8.78455 71.5907 8.70253 72.0109 8.70253C72.4312 8.70253 72.7989 8.78455 73.1516 8.9486C73.5043 9.11264 73.812 9.34379 74.0821 9.64204C74.3448 9.93284 74.5549 10.2833 74.705 10.6859C74.8551 11.0886 74.9301 11.5285 74.9301 12.0057C74.9301 12.4829 74.8551 12.9378 74.705 13.3404C74.5549 13.7431 74.3448 14.0935 74.0821 14.3992C73.8195 14.69 73.5118 14.9212 73.1516 15.0852C72.7989 15.2493 72.4162 15.3313 72.0109 15.3313C71.6057 15.3313 71.208 15.2493 70.8478 15.0852V15.0778ZM70.9904 13.4448C71.2755 13.8027 71.6132 13.9891 72.0109 13.9891C72.4087 13.9891 72.7464 13.8102 73.0316 13.4448C73.3167 13.0869 73.4593 12.6022 73.4593 12.0057C73.4593 11.4092 73.3167 10.9395 73.0316 10.5741C72.7464 10.2162 72.4087 10.0298 72.0109 10.0298C71.6132 10.0298 71.2605 10.2087 70.9828 10.5741C70.7052 10.932 70.5626 11.4092 70.5626 12.0057C70.5626 12.6022 70.7052 13.0869 70.9904 13.4448ZM71.2005 17.5608C71.2005 17.3893 71.2005 17.2103 71.2005 17.0239C71.2005 16.8375 71.178 16.6585 71.148 16.487H72.7914C72.7614 16.6585 72.7464 16.83 72.7389 17.0164C72.7389 17.2028 72.7389 17.3743 72.7389 17.5309V19.4174H78.6148C78.8399 19.4174 79.095 19.4174 79.3727 19.4174C79.6504 19.4174 79.943 19.395 80.2432 19.3652V20.8043C79.943 20.7745 79.6504 20.7596 79.3727 20.7521C79.095 20.7521 78.8399 20.7521 78.6148 20.7521H71.208V17.5682L71.2005 17.5608ZM78.4947 11.4241V10.0745C78.4947 9.79117 78.4947 9.51528 78.4947 9.24685C78.4947 8.97842 78.4722 8.69508 78.4422 8.41919H80.0256C79.9956 8.70253 79.9806 8.97842 79.9731 9.24685C79.9731 9.52274 79.9731 9.79863 79.9731 10.0745V16.1142C79.9731 16.3976 79.9731 16.6734 79.9731 16.9493C79.9731 17.2252 79.9956 17.5011 80.0256 17.7695H78.4272C78.4572 17.5011 78.4722 17.2252 78.4872 16.9493C78.4947 16.6734 78.5022 16.3901 78.5022 16.1142V12.908H77.2715V16.6063C77.2715 16.8822 77.2865 17.1507 77.3165 17.4191H75.7481C75.7706 17.1507 75.7781 16.8748 75.7932 16.6063C75.8007 16.3379 75.8081 16.0546 75.8081 15.7787V10.2758C75.8081 9.99249 75.8082 9.71661 75.7932 9.44818C75.7856 9.17974 75.7706 8.8964 75.7481 8.62051H77.3165C77.2865 8.90386 77.2715 9.17974 77.2715 9.44818V11.4316H78.5022L78.4947 11.4241Z" fill="#595959" fill-opacity="0.7"/>
<path d="M83.5001 12.043C83.2899 12.043 83.1023 12.043 82.9372 12.043C82.7646 12.043 82.5845 12.0654 82.3819 12.0952V10.6636C82.577 10.6934 82.7646 10.7083 82.9372 10.7158C83.1098 10.7158 83.2975 10.7158 83.5001 10.7158H88.6856C88.8807 10.7158 89.0683 10.7158 89.2409 10.7158C89.4135 10.7158 89.6011 10.6934 89.8112 10.6636V12.0952C89.6011 12.0654 89.4135 12.0505 89.2409 12.043C89.0683 12.043 88.8882 12.043 88.6856 12.043H83.5001ZM83.0048 14.6155C83.1624 14.2501 83.3875 13.9295 83.6952 13.6461C83.9879 13.3777 84.3406 13.154 84.7608 12.9825C85.1736 12.811 85.6388 12.729 86.1491 12.729C86.6294 12.729 87.0722 12.811 87.4774 12.9825C87.8826 13.154 88.2353 13.3777 88.528 13.661C88.8207 13.9369 89.0533 14.2501 89.2184 14.6155C89.3835 14.9808 89.466 15.3611 89.466 15.7563C89.466 16.1515 89.3835 16.5318 89.2184 16.8971C89.0533 17.2625 88.8207 17.5906 88.528 17.8814C88.2353 18.1647 87.8826 18.3884 87.4774 18.5674C87.0722 18.7389 86.6219 18.8283 86.1341 18.8283C85.6463 18.8283 85.181 18.7463 84.7683 18.5823C84.3556 18.4182 84.0029 18.1945 83.7102 17.9112C83.41 17.6279 83.1774 17.3072 83.0198 16.9344C82.8622 16.5616 82.7797 16.1739 82.7797 15.7563C82.7797 15.3387 82.8547 14.9808 83.0123 14.6155H83.0048ZM85.0985 9.88809H84.6183C84.5432 9.88809 84.4681 9.88809 84.3931 9.88809C84.318 9.88809 84.2355 9.90301 84.153 9.91046V8.59068C84.3256 8.61305 84.4831 8.6205 84.6257 8.6205H87.5899C87.74 8.6205 87.9051 8.61305 88.0702 8.59068V9.91046C87.8976 9.90301 87.74 9.89555 87.5899 9.88809C87.4399 9.88809 87.2823 9.88809 87.1247 9.88809H85.0985ZM84.8133 17.0015C85.1285 17.3221 85.5638 17.4862 86.1341 17.4862C86.7044 17.4862 87.1022 17.3221 87.4249 16.9941C87.7476 16.666 87.9052 16.2559 87.9052 15.7712C87.9052 15.2865 87.7476 14.8839 87.4249 14.5484C87.1022 14.2128 86.6744 14.0413 86.1341 14.0413C85.5638 14.0413 85.1285 14.2128 84.8133 14.5484C84.4981 14.8839 84.3481 15.294 84.3481 15.7712C84.3481 16.2484 84.5057 16.6809 84.8133 17.0015ZM93.2107 13.4672C93.3833 13.4672 93.5634 13.4672 93.751 13.4672C93.9386 13.4672 94.1187 13.4448 94.2913 13.415V14.951C94.1187 14.9212 93.9386 14.9063 93.7435 14.8988C93.5484 14.8988 93.3758 14.8988 93.2107 14.8988H92.5278V19.1042C92.5278 19.4249 92.5278 19.738 92.5278 20.0512C92.5278 20.3644 92.5503 20.6775 92.5804 20.9907H90.9519C90.9819 20.6775 90.9969 20.3718 91.0119 20.0512C91.0194 19.738 91.0269 19.4174 91.0269 19.1042V10.3057C91.0269 9.99248 91.0269 9.68677 91.0119 9.3736C91.0044 9.06043 90.9819 8.73981 90.9519 8.42664H92.5804C92.5503 8.74726 92.5353 9.06043 92.5278 9.3736C92.5278 9.68677 92.5278 9.99994 92.5278 10.3057V13.4746H93.2107V13.4672Z" fill="#595959" fill-opacity="0.7"/>
<path d="M101.863 19.6113C101.863 19.8201 101.863 20.0512 101.863 20.2973C101.863 20.5508 101.886 20.7745 101.916 20.9758H100.242C100.272 20.7596 100.287 20.5359 100.295 20.2973C100.295 20.0661 100.295 19.835 100.295 19.6113V16.7853H97.3081C96.9404 16.7853 96.5802 16.7853 96.2275 16.7853C95.8748 16.7853 95.5146 16.8077 95.1469 16.8375V15.3984C95.5146 15.4283 95.8748 15.4432 96.2275 15.4506C96.5802 15.4506 96.9404 15.4506 97.3081 15.4506H104.79C105.158 15.4506 105.518 15.4506 105.871 15.4506C106.223 15.4506 106.583 15.4283 106.951 15.3984V16.8375C106.583 16.8077 106.223 16.7928 105.871 16.7853C105.518 16.7853 105.158 16.7853 104.79 16.7853H101.856V19.6113H101.863ZM99.0866 14.1383C98.5088 13.9892 98.0135 13.7804 97.6083 13.5194C97.2106 13.2584 96.9104 12.9453 96.6927 12.5874C96.4826 12.2294 96.3776 11.8492 96.3776 11.4316C96.3776 11.0141 96.4826 10.6487 96.6927 10.2833C96.9029 9.92542 97.2106 9.61225 97.6083 9.34382C98.0135 9.08284 98.5088 8.87406 99.0791 8.71748C99.657 8.56089 100.31 8.48633 101.045 8.48633C101.781 8.48633 102.441 8.56089 103.011 8.71748C103.589 8.87406 104.077 9.08284 104.482 9.34382C104.887 9.60479 105.195 9.91796 105.413 10.2759C105.623 10.6338 105.728 11.0141 105.728 11.4316C105.728 11.8492 105.623 12.2294 105.413 12.5799C105.203 12.9304 104.887 13.2435 104.482 13.512C104.085 13.7729 103.597 13.9817 103.019 14.1308C102.441 14.28 101.781 14.3545 101.06 14.3545C100.34 14.3545 99.6645 14.28 99.0866 14.1308V14.1383ZM98.854 12.6023C99.4168 12.9005 100.145 13.0422 101.045 13.0422C101.946 13.0422 102.644 12.9005 103.214 12.6172C103.777 12.3338 104.062 11.9536 104.062 11.4614C104.062 10.9693 103.784 10.5667 103.222 10.261C102.659 9.95524 101.938 9.80611 101.045 9.80611C100.152 9.80611 99.4093 9.95524 98.8465 10.2535C98.2912 10.5518 98.0135 10.9469 98.0135 11.4391C98.0135 11.9312 98.2912 12.304 98.854 12.6023Z" fill="#595959" fill-opacity="0.7"/>
<path d="M110.403 19.4323C110.035 19.4323 109.675 19.4323 109.323 19.4323C108.97 19.4323 108.61 19.4547 108.242 19.4845V18.0455C108.61 18.0753 108.97 18.0902 109.323 18.0977C109.675 18.0977 110.035 18.0977 110.403 18.0977H117.908C118.275 18.0977 118.635 18.0977 118.988 18.0977C119.341 18.0977 119.701 18.0753 120.069 18.0455V19.4845C119.701 19.4547 119.341 19.4398 118.988 19.4323C118.635 19.4323 118.275 19.4323 117.908 19.4323H110.403ZM115.386 11.5957C115.656 12.0952 116.009 12.5501 116.444 12.9751C116.872 13.4001 117.36 13.7655 117.915 14.0712C118.47 14.3844 119.041 14.608 119.611 14.7497C119.423 14.9361 119.236 15.13 119.048 15.3313C118.861 15.5326 118.71 15.7116 118.59 15.8756C118.193 15.7563 117.78 15.5774 117.345 15.3537C116.909 15.13 116.489 14.8616 116.084 14.5484C115.679 14.2352 115.304 13.8997 114.966 13.5269C114.628 13.154 114.35 12.7663 114.148 12.3488C113.953 12.7439 113.705 13.1093 113.42 13.4448C113.135 13.7804 112.812 14.0936 112.467 14.3769C112.062 14.7124 111.626 15.0107 111.161 15.2642C110.696 15.5177 110.223 15.7265 109.743 15.8831C109.6 15.734 109.435 15.555 109.255 15.3537C109.067 15.1524 108.872 14.9361 108.655 14.7124C109.278 14.5409 109.87 14.3098 110.433 14.0115C110.996 13.7133 111.491 13.3554 111.912 12.9453C112.339 12.5426 112.677 12.0952 112.94 11.6106C113.202 11.1259 113.33 10.589 113.33 10.0074C113.33 9.82848 113.33 9.63462 113.315 9.4333C113.307 9.22452 113.292 9.03065 113.27 8.84424H115.041C115.011 9.02319 114.996 9.21706 114.988 9.4333C114.988 9.64953 114.988 9.8434 114.988 10.0074C114.988 10.5667 115.123 11.1035 115.394 11.5957H115.386Z" fill="#595959" fill-opacity="0.7"/>
</svg>
