<svg width="58" height="58" viewBox="0 0 58 58" fill="none" xmlns="http://www.w3.org/2000/svg">
<g opacity="0.9" clip-path="url(#clip0_115_1437)">
<rect width="58" height="58" fill="white"/>
<path d="M46.3288 0H11.6712C5.22539 0 0 5.22539 0 11.6712V46.3288C0 52.7746 5.22539 58 11.6712 58H46.3288C52.7746 58 58 52.7746 58 46.3288V11.6712C58 5.22539 52.7746 0 46.3288 0Z" fill="#999999"/>
<mask id="mask0_115_1437" style="mask-type:luminance" maskUnits="userSpaceOnUse" x="0" y="0" width="58" height="58">
<path d="M46.3288 0H11.6712C5.22539 0 0 5.22539 0 11.6712V46.3288C0 52.7746 5.22539 58 11.6712 58H46.3288C52.7746 58 58 52.7746 58 46.3288V11.6712C58 5.22539 52.7746 0 46.3288 0Z" fill="white"/>
</mask>
<g mask="url(#mask0_115_1437)">
<path d="M4.64 0H53.3498C55.914 0 58 2.08597 58 4.65018V53.36C58 55.9242 55.914 58.0102 53.3498 58.0102H4.65018C2.08597 58.0102 0 55.9242 0 53.36V4.64C0 2.08596 2.08596 0 4.64 0Z" fill="#999999"/>
</g>
<path d="M29 7.55017C16.7081 7.55017 6.74634 15.4158 6.74634 25.1232C6.74634 31.3709 10.8776 36.8351 17.0744 39.9589L14.9783 47.7839C14.8969 48.0179 14.9579 48.2824 15.1411 48.4554C15.2632 48.5775 15.4158 48.6386 15.599 48.6386C15.7313 48.6386 15.8635 48.5775 15.9856 48.486L25.0011 42.401C26.3035 42.5842 27.6467 42.6961 29.0102 42.6961C41.3021 42.6961 51.2639 34.8305 51.2639 25.1232C51.2639 15.4158 41.292 7.55017 29 7.55017Z" fill="white"/>
<path d="M14.846 22.0502H12.4243C12.0885 22.0502 11.8036 21.9688 11.5593 21.8161C11.3151 21.6737 11.1727 21.4498 11.1116 21.1649C11.1014 21.0937 11.0811 21.0021 11.0709 20.9207C11.0709 20.5645 11.193 20.2898 11.4474 20.0965C11.7018 19.9031 12.0172 19.8014 12.4039 19.8014H19.8116C20.1474 19.8014 20.4323 19.8828 20.6664 20.0253C20.9106 20.1779 21.053 20.3916 21.1141 20.6765C21.1243 20.7579 21.1344 20.8291 21.1344 20.9207C21.1344 21.287 21.0123 21.5516 20.7681 21.7551C20.5239 21.9484 20.2085 22.0502 19.8218 22.0502H17.4V30.394C17.4 30.7909 17.2779 31.1165 17.0439 31.3607C16.82 31.6049 16.4944 31.727 16.1078 31.727C15.7822 31.727 15.5176 31.6354 15.2836 31.4624C15.0597 31.2793 14.9172 31.0351 14.8562 30.74C14.8358 30.6281 14.8257 30.5161 14.8358 30.394V22.0502H14.846Z" fill="#999999"/>
<path d="M21.7653 20.4018C21.867 20.1067 22.0299 19.9032 22.2334 19.7811C22.4369 19.659 22.7014 19.5979 23.0169 19.5979H23.6376C23.9734 19.5979 24.2481 19.6691 24.472 19.8014C24.6958 19.9337 24.879 20.1983 25.0011 20.5747L28.0944 29.5393C28.1962 29.814 28.2674 30.0582 28.3081 30.2516C28.3285 30.3839 28.3488 30.4856 28.359 30.5568C28.359 30.8825 28.2369 31.1572 27.9927 31.3811C27.7586 31.6151 27.4737 31.7168 27.1379 31.7168C26.5478 31.7168 26.1611 31.4726 25.9881 30.9842L25.3267 29.0305H21.2056L20.5442 30.9842C20.3814 31.4726 20.0049 31.7168 19.3944 31.7168C19.0993 31.7168 18.8449 31.6456 18.6414 31.4828C18.4379 31.3302 18.3056 31.1063 18.2446 30.8214C18.2242 30.74 18.2242 30.6484 18.2242 30.5467C18.2242 30.4144 18.2344 30.2618 18.2955 30.0786C18.3463 29.8954 18.4074 29.7123 18.4685 29.5291L21.7856 20.4018H21.7653ZM23.3221 22.4877H23.2916L21.7856 27.1888H24.7874L23.3323 22.4877H23.3221Z" fill="#999999"/>
<path d="M28.7456 20.9207C28.7456 20.5238 28.8678 20.1982 29.0916 19.954C29.3155 19.7098 29.6309 19.5877 30.0278 19.5877C30.3534 19.5877 30.6281 19.6793 30.852 19.8523C31.0758 20.0354 31.2183 20.2695 31.2793 20.5747C31.2997 20.6867 31.3099 20.7986 31.2997 20.9105V29.2544H35.5734C35.9193 29.2544 36.2042 29.3256 36.4383 29.4782C36.6723 29.6309 36.8148 29.8547 36.8758 30.1295C36.8962 30.2007 36.9063 30.2923 36.9165 30.3737C36.9165 30.7298 36.7944 31.0045 36.54 31.1979C36.2856 31.3912 35.9702 31.493 35.5835 31.493H30.2414C29.8446 31.493 29.519 31.4116 29.2748 31.2488C29.0306 31.0961 28.8678 30.8214 28.7864 30.4551C28.7558 30.3024 28.7355 30.1295 28.7355 29.9361V20.9003L28.7456 20.9207Z" fill="#999999"/>
<path d="M37.181 20.9207C37.181 20.5238 37.2929 20.1982 37.527 19.954C37.761 19.7098 38.0663 19.5877 38.4631 19.5877C38.7887 19.5877 39.0635 19.6793 39.2771 19.8523C39.501 20.0354 39.6435 20.2694 39.7045 20.5747C39.7249 20.6866 39.735 20.7986 39.7249 20.9105V24.7873L43.7543 20.1575C43.9375 19.9642 44.1003 19.8115 44.2428 19.72C44.3954 19.6284 44.5684 19.5775 44.7719 19.5775C45.0568 19.5775 45.3112 19.6589 45.535 19.8115C45.7691 19.9642 45.9014 20.1677 45.9624 20.4323C45.9624 20.4323 45.9624 20.4831 45.9828 20.534C45.9828 20.5747 45.9828 20.6154 45.9828 20.6459C45.9828 20.8291 45.9421 20.9919 45.8607 21.1344C45.7793 21.2768 45.6775 21.4193 45.5554 21.5617L42.92 24.4414L46.0336 29.3765L46.1252 29.5291C46.3389 29.8649 46.461 30.1091 46.4915 30.2719C46.4915 30.2821 46.4915 30.3126 46.5119 30.3533C46.5119 30.394 46.5119 30.4245 46.5119 30.4347C46.5119 30.8926 46.3796 31.2182 46.1252 31.4217C45.8708 31.6151 45.5554 31.7168 45.1891 31.7168C44.9245 31.7168 44.721 31.6761 44.548 31.5744C44.3852 31.4726 44.2122 31.2894 44.0494 31.0147L41.0985 26.2628L39.6943 27.728V30.3838C39.6943 30.7807 39.5926 31.1063 39.3585 31.3505C39.1245 31.5947 38.8091 31.7168 38.4224 31.7168C38.0968 31.7168 37.8221 31.6252 37.5982 31.4523C37.3743 31.2691 37.2319 31.0249 37.1708 30.7298C37.1505 30.6179 37.1403 30.5059 37.1505 30.3838V20.9105L37.181 20.9207Z" fill="#999999"/>
</g>
<defs>
<clipPath id="clip0_115_1437">
<rect width="58" height="58" fill="white"/>
</clipPath>
</defs>
</svg>
