<svg width="178" height="26" viewBox="0 0 178 26" fill="none" xmlns="http://www.w3.org/2000/svg">
<path d="M14.0071 23.4065L12.2932 25.1095L13.105 25.9162L14.819 24.2132L14.0071 23.4065Z" fill="#595959" fill-opacity="0.7"/>
<path d="M13.0765 0.103257L12.2657 0.911072L25.2685 13.7948L26.0793 12.987L13.0765 0.103257Z" fill="#595959" fill-opacity="0.7"/>
<path d="M0.929715 12.1776L0.116283 12.9827L13.076 25.9092L13.8895 25.1041L0.929715 12.1776Z" fill="#595959" fill-opacity="0.7"/>
<path d="M13.0884 0.0949672L0.112803 13.0057L0.925245 13.8119L13.9009 0.901094L13.0884 0.0949672Z" fill="#595959" fill-opacity="0.7"/>
<path d="M25.2735 12.2002L14.7244 22.6819L15.5363 23.4886L26.0854 13.0069L25.2735 12.2002Z" fill="#595959" fill-opacity="0.7"/>
<path d="M13.1088 4.96141L4.98973 13.0174L5.80104 13.8246L13.9201 5.76866L13.1088 4.96141Z" fill="#595959" fill-opacity="0.7"/>
<path d="M20.4167 12.2143L15.4544 17.1432L16.2661 17.9501L21.2285 13.0212L20.4167 12.2143Z" fill="#595959" fill-opacity="0.7"/>
<path d="M5.81125 12.2033L4.9988 13.0094L15.5405 23.4984L16.353 22.6923L5.81125 12.2033Z" fill="#595959" fill-opacity="0.7"/>
<path d="M13.0947 4.94647L12.2834 5.75372L20.4025 13.8097L21.2138 13.0025L13.0947 4.94647Z" fill="#595959" fill-opacity="0.7"/>
<path d="M11.2213 14.3685L11.8817 13.4141L16.3468 17.8507L15.5363 18.656L11.2213 14.3685Z" fill="#595959" fill-opacity="0.7"/>
<path d="M13.225 11.3263L15.7615 10.4987C15.7465 10.9535 15.4388 12.0645 15.4388 12.7132L15.6864 17.1796H14.4257V13.2724C14.4257 13.1233 14.4107 12.9667 14.3732 12.8773C14.2906 12.579 13.9079 12.057 13.255 12.0198C12.7973 11.9899 13.2175 11.3338 13.2175 11.3338L13.225 11.3263Z" fill="#595959" fill-opacity="0.7"/>
<path d="M13.24 12.0123C12.5796 12.0496 12.1969 12.5716 12.1144 12.8698C12.0843 12.9667 12.0618 13.1233 12.0618 13.265L12.1144 15.3081L11.1013 14.3685L11.0487 12.7058C11.0487 12.0645 10.7411 10.9461 10.726 10.4912L13.2625 11.3189C13.2625 11.3189 13.6828 11.9825 13.225 12.0049L13.24 12.0123Z" fill="#595959" fill-opacity="0.7"/>
<path d="M10.7337 10.4989C10.7337 10.4989 12.137 10.8494 13.2626 10.8494V11.431L10.9138 10.8792L10.7337 10.4989Z" fill="#595959" fill-opacity="0.7"/>
<path d="M15.754 10.5061C15.754 10.5061 14.3732 10.8566 13.255 10.8566L13.2325 11.5127L15.5814 10.8938L15.7615 10.5136L15.754 10.5061Z" fill="#595959" fill-opacity="0.7"/>
<path d="M30.3274 9.29072C30.3199 9.18634 30.3124 9.07449 30.3124 8.96264C30.3049 8.85825 30.2899 8.75386 30.2824 8.64947C30.2749 8.54508 30.2599 8.42578 30.2524 8.29156H31.9483C31.9183 8.54508 31.8958 8.76878 31.8883 8.9701C31.8733 9.16397 31.8658 9.39511 31.8658 9.64863V17.7538H34.5449C34.8 17.7538 35.0251 17.7538 35.2352 17.7314C35.4379 17.7165 35.678 17.6941 35.9632 17.6643L35.7681 19.0735C35.4829 19.0512 35.2428 19.0437 35.0326 19.0288C34.8225 19.0213 34.5899 19.0139 34.3272 19.0139H30.2373C30.2674 18.8051 30.2899 18.6038 30.3124 18.395C30.3349 18.1862 30.3499 17.9551 30.3499 17.709V9.64863C30.3499 9.52933 30.3499 9.41003 30.3349 9.30564L30.3274 9.29072Z" fill="#595959" fill-opacity="0.7"/>
<path d="M44.5632 16.0611C44.5632 16.4936 44.4881 16.8962 44.3455 17.2765C44.1954 17.6568 43.9778 17.9849 43.6851 18.2682C43.385 18.5516 43.0022 18.7753 42.537 18.9393C42.0717 19.1033 41.5239 19.1854 40.8785 19.1854C40.2332 19.1854 39.7153 19.1257 39.2576 18.999C38.7998 18.8722 38.4171 18.6783 38.1169 18.4174C37.8017 18.1638 37.5766 17.8432 37.4265 17.4555C37.2764 17.0677 37.2014 16.6054 37.2014 16.0835V9.66353C37.2014 9.41001 37.2014 9.17886 37.1789 8.97753C37.1639 8.76876 37.1414 8.55252 37.1188 8.31391H38.8298C38.7998 8.55998 38.7773 8.78367 38.7698 8.98499C38.7548 9.18631 38.7473 9.41746 38.7473 9.67098V15.5392C38.7473 15.912 38.7848 16.2475 38.8673 16.5383C38.9499 16.8291 39.0775 17.0752 39.2576 17.2691C39.4302 17.4778 39.6478 17.627 39.918 17.7314C40.1881 17.8358 40.5108 17.888 40.886 17.888C41.2387 17.888 41.5464 17.8432 41.8166 17.7463C42.0867 17.6493 42.3118 17.5077 42.507 17.3064C42.6796 17.1199 42.8071 16.8739 42.9047 16.5831C43.0022 16.2848 43.0473 15.9418 43.0473 15.5317V9.66353C43.0473 9.43983 43.0473 9.21614 43.0248 8.99245C43.0097 8.76876 42.9872 8.54506 42.9647 8.30646H44.6607C44.6307 8.53761 44.6082 8.76876 44.6007 8.99245C44.5857 9.21614 44.5782 9.43238 44.5782 9.66353V16.0686L44.5632 16.0611Z" fill="#595959" fill-opacity="0.7"/>
<path d="M52.3827 18.1788C52.2776 17.9476 52.1576 17.7015 52.015 17.4406L50.4315 14.4729L48.8856 17.4406C48.7356 17.7314 48.608 17.9849 48.5104 18.2011C48.4129 18.4174 48.3003 18.6858 48.1802 19.0064H46.1015C46.2066 18.8498 46.2966 18.7082 46.3792 18.5889C46.4617 18.4696 46.5368 18.3577 46.6118 18.2459C46.6794 18.1415 46.7469 18.0371 46.8069 17.9327C46.8745 17.8283 46.9495 17.7015 47.0321 17.5599L49.5235 13.265L47.3998 9.66353C47.3022 9.52185 47.2272 9.40255 47.1597 9.29816C47.0921 9.19377 47.0321 9.09684 46.972 8.9999C46.9045 8.90297 46.837 8.80604 46.7694 8.70165C46.7019 8.59726 46.6193 8.4705 46.5218 8.30646H48.578C48.698 8.61963 48.8031 8.86569 48.8932 9.0521C48.9757 9.23851 49.1033 9.47712 49.2609 9.76792L50.394 11.893L51.4972 9.76792C51.6473 9.47712 51.7673 9.23851 51.8574 9.0521C51.9474 8.86569 52.0525 8.61963 52.1726 8.30646H54.1837C54.0787 8.46304 53.9961 8.59726 53.9211 8.70165C53.8535 8.80604 53.7785 8.90297 53.7184 8.9999C53.6509 9.09684 53.5909 9.19377 53.5308 9.29816C53.4708 9.40255 53.3958 9.52185 53.3132 9.66353L51.3471 13.1382L53.8685 17.5599C53.9361 17.6941 54.0036 17.8134 54.0636 17.9178C54.1312 18.0222 54.1987 18.134 54.2738 18.2459C54.3413 18.3503 54.4164 18.4621 54.4914 18.5814C54.5739 18.7007 54.6715 18.8424 54.7841 19.0064H52.7579C52.6153 18.6858 52.4952 18.4099 52.3902 18.1862L52.3827 18.1788Z" fill="#595959" fill-opacity="0.7"/>
<path d="M63.7142 16.0611C63.7142 16.4936 63.6392 16.8962 63.4966 17.2765C63.3465 17.6568 63.1289 17.9849 62.8362 18.2682C62.536 18.5516 62.1533 18.7753 61.6881 18.9393C61.2228 19.1033 60.675 19.1854 60.0296 19.1854C59.3842 19.1854 58.8664 19.1257 58.4087 18.999C57.9509 18.8722 57.5682 18.6783 57.268 18.4174C56.9528 18.1638 56.7277 17.8432 56.5776 17.4555C56.4275 17.0677 56.3525 16.6054 56.3525 16.0835V9.66353C56.3525 9.41001 56.3525 9.17886 56.33 8.97753C56.315 8.76876 56.2924 8.55252 56.2699 8.31391H57.9809C57.9509 8.55998 57.9284 8.78367 57.9209 8.98499C57.9059 9.18631 57.8984 9.41746 57.8984 9.67098V15.5392C57.8984 15.912 57.9359 16.2475 58.0184 16.5383C58.101 16.8291 58.2286 17.0752 58.4087 17.2691C58.5813 17.4778 58.7989 17.627 59.069 17.7314C59.3392 17.8358 59.6619 17.888 60.0371 17.888C60.3898 17.888 60.6975 17.8432 60.9676 17.7463C61.2378 17.6493 61.4629 17.5077 61.6581 17.3064C61.8307 17.1199 61.9582 16.8739 62.0558 16.5831C62.1533 16.2848 62.1984 15.9418 62.1984 15.5317V9.66353C62.1984 9.43983 62.1984 9.21614 62.1759 8.99245C62.1609 8.76876 62.1383 8.54506 62.1158 8.30646H63.8118C63.7818 8.53761 63.7593 8.76876 63.7518 8.99245C63.7367 9.21614 63.7292 9.43238 63.7292 9.66353V16.0686L63.7142 16.0611Z" fill="#595959" fill-opacity="0.7"/>
<path d="M70.8284 14.6295C70.971 14.7786 71.1285 14.9501 71.2861 15.1365C71.4287 15.3304 71.5788 15.5466 71.7364 15.7852C71.894 16.0164 72.0741 16.2848 72.2767 16.5756L73.0271 17.7463C73.1097 17.8879 73.1847 18.0072 73.2448 18.1042C73.3048 18.2011 73.3723 18.2906 73.4324 18.3801C73.4924 18.477 73.5524 18.5665 73.62 18.6634C73.6875 18.7603 73.7776 18.8722 73.8826 19.0139H71.8565C71.7964 18.8946 71.7514 18.7902 71.7064 18.7081C71.6613 18.6261 71.6238 18.5516 71.5863 18.477C71.5488 18.4024 71.5113 18.3204 71.4737 18.2384C71.4362 18.1564 71.3912 18.052 71.3311 17.9252L71.046 17.3362C70.8884 17.0081 70.7233 16.7098 70.5657 16.4414C70.4081 16.173 70.2505 15.9269 70.1004 15.7032C69.9278 15.487 69.7627 15.2931 69.6052 15.1142C69.4476 14.9352 69.2825 14.7786 69.1249 14.6369C68.9898 14.5251 68.8547 14.4431 68.7196 14.3909C68.5845 14.3387 68.3894 14.3089 68.1343 14.3014V17.6643C68.1343 17.7985 68.1343 17.9178 68.1343 18.0222C68.1343 18.1265 68.1343 18.2384 68.1343 18.3353C68.1418 18.4397 68.1568 18.5441 68.1643 18.656C68.1718 18.7678 68.1868 18.8871 68.2093 19.0064H66.5359C66.5434 18.8871 66.5584 18.7678 66.5659 18.656C66.5734 18.5441 66.5884 18.4323 66.5959 18.3353C66.5959 18.2309 66.5959 18.1265 66.6109 18.0222C66.6184 17.9178 66.6259 17.7985 66.6259 17.6643V9.90958C66.6259 9.76045 66.6259 9.61878 66.6109 9.49202C66.6034 9.36526 66.5959 9.2385 66.5959 9.1192C66.5884 8.99989 66.5734 8.87313 66.5584 8.74638C66.5434 8.61962 66.5359 8.47794 66.5209 8.3139H69.8078C70.2955 8.3139 70.7608 8.38101 71.1886 8.50777C71.6163 8.64199 71.9915 8.8284 72.2992 9.08192C72.6144 9.34289 72.8545 9.66352 73.0271 10.0363C73.1997 10.4092 73.2898 10.8416 73.2898 11.3188C73.2898 11.7066 73.2297 12.0719 73.1097 12.4149C72.9896 12.7654 72.817 13.0636 72.5919 13.3321C72.3667 13.608 72.0891 13.8167 71.7664 13.9733C71.4437 14.1299 71.0685 14.2045 70.6558 14.2045H70.3406C70.4982 14.3387 70.6558 14.4804 70.7983 14.6295H70.8284ZM68.1418 13.2351H69.29C69.7402 13.2351 70.1229 13.1904 70.4381 13.1084C70.7533 13.0264 71.001 12.8996 71.1886 12.7281C71.3687 12.5715 71.4963 12.3702 71.5788 12.139C71.6614 11.9079 71.6989 11.6395 71.6989 11.3338C71.6989 11.028 71.6463 10.7894 71.5488 10.5657C71.4512 10.342 71.3011 10.1556 71.106 9.99905C70.8959 9.85738 70.6483 9.74554 70.3481 9.67097C70.0479 9.58895 69.7027 9.55167 69.305 9.55167H68.1418V13.2351Z" fill="#595959" fill-opacity="0.7"/>
<path d="M79.2483 17.6568C79.2483 17.8507 79.2482 18.0669 79.2633 18.2906C79.2708 18.5143 79.2933 18.7529 79.3233 19.0064H77.6123C77.6423 18.7529 77.6573 18.5143 77.6648 18.2906C77.6648 18.0669 77.6648 17.8507 77.6648 17.6568V14.6891L74.9333 9.61132C74.8582 9.46965 74.7907 9.35035 74.7381 9.26087C74.6781 9.16394 74.6256 9.07446 74.5655 8.97753C74.5205 8.88059 74.4605 8.79111 74.4004 8.68672C74.3404 8.58979 74.2578 8.46303 74.1678 8.3139H76.194C76.299 8.6047 76.3891 8.83585 76.4716 9.01481C76.5542 9.19376 76.6592 9.42491 76.8018 9.7008L77.7924 11.6842C77.8975 11.9004 78.025 12.1614 78.1751 12.4746C78.3252 12.7878 78.4603 13.0786 78.5879 13.3619C78.7004 13.0636 78.813 12.7878 78.9181 12.5491C79.0231 12.3031 79.1582 12.0272 79.3083 11.7066L80.2163 9.75299C80.2838 9.61132 80.3439 9.48456 80.3964 9.37272C80.4489 9.26087 80.5015 9.14902 80.5465 9.03718C80.5915 8.93279 80.6441 8.8284 80.6966 8.71655C80.7491 8.6047 80.8016 8.47049 80.8617 8.32136H82.8053C82.7002 8.47049 82.6177 8.59725 82.5576 8.69418C82.4976 8.79111 82.4376 8.88805 82.3775 8.98498C82.3175 9.08192 82.265 9.17139 82.2049 9.26833C82.1449 9.36526 82.0849 9.4771 82.0173 9.61878L79.2557 14.7115V17.6643L79.2483 17.6568Z" fill="#595959" fill-opacity="0.7"/>
<path d="M84.1936 9.71573C84.1936 9.4473 84.1936 9.21615 84.1936 9.0372C84.1936 8.85824 84.1786 8.61218 84.1561 8.30647H86.0096L88.6437 13.5856C88.8988 14.1001 89.1465 14.6444 89.3941 15.2111C89.6418 15.7778 89.8744 16.3221 90.0995 16.8515C90.077 16.6353 90.0695 16.3445 90.0545 15.9717C90.047 15.5988 90.032 15.226 90.0245 14.8532C90.017 14.4878 90.002 14.1448 89.9945 13.8317C89.987 13.5185 89.9795 13.3023 89.9795 13.1904V9.65608C89.9795 9.40256 89.9795 9.17887 89.9645 8.985C89.957 8.79113 89.9419 8.56744 89.9194 8.29901H91.4353C91.4053 8.55999 91.3903 8.79113 91.3828 8.985C91.3828 9.17887 91.3828 9.40256 91.3828 9.65608V18.2533C91.3828 18.4621 91.3978 18.7082 91.4278 18.999H89.7318L87.2704 13.9361C86.9027 13.183 86.5725 12.4746 86.2723 11.8035C85.9721 11.1324 85.7245 10.5583 85.5294 10.0811C85.5294 10.275 85.5294 10.5658 85.5444 10.9535C85.5519 11.3412 85.5669 11.729 85.5744 12.1242C85.5819 12.5268 85.5969 12.8922 85.6044 13.2128C85.6119 13.5334 85.6269 13.7422 85.6344 13.8242V17.6494C85.6344 17.9029 85.6344 18.1266 85.6344 18.3279C85.6344 18.5218 85.657 18.7529 85.687 19.0064H84.1411C84.1636 18.7529 84.1711 18.5292 84.1861 18.3279C84.1936 18.134 84.2011 17.9029 84.2011 17.6494V9.71573H84.1936Z" fill="#595959" fill-opacity="0.7"/>
<path d="M100.14 17.0901C100.14 17.6046 100.065 18.0968 99.9152 18.5516C99.7651 19.0139 99.555 19.4315 99.2773 19.8043C98.9922 20.192 98.6545 20.5276 98.2567 20.8109C97.859 21.0942 97.4087 21.3328 96.9135 21.5193L96.3206 20.7587C96.6883 20.5648 97.011 20.3411 97.2962 20.0951C97.5814 19.849 97.8215 19.5806 98.0166 19.2823C98.2042 18.999 98.3468 18.6858 98.4519 18.3428C98.5569 17.9998 98.6019 17.6345 98.6019 17.2393V9.64119C98.6019 9.41749 98.6019 9.1938 98.5794 8.97011C98.5644 8.74642 98.5419 8.52272 98.5119 8.28412H100.223C100.193 8.53018 100.17 8.76133 100.163 8.97011C100.148 9.18635 100.14 9.41004 100.14 9.63373V17.0752V17.0901Z" fill="#595959" fill-opacity="0.7"/>
<path d="M108.703 18.1713C108.643 17.9104 108.568 17.6419 108.485 17.366L108.087 16.1283H104.238L103.87 17.366C103.787 17.6494 103.705 17.9178 103.637 18.1788C103.57 18.4398 103.495 18.7082 103.435 18.999H101.679C101.746 18.8499 101.806 18.7082 101.859 18.5814C101.911 18.4547 101.964 18.3279 102.009 18.2086C102.054 18.0893 102.106 17.9625 102.152 17.8358C102.197 17.709 102.249 17.5674 102.309 17.4182L105.341 8.28412H107.224L110.181 17.4182C110.264 17.7016 110.354 17.9551 110.444 18.1937C110.534 18.4248 110.646 18.6933 110.789 18.999H108.905C108.838 18.7082 108.778 18.4323 108.718 18.1713H108.703ZM106.714 11.304C106.632 11.043 106.542 10.7522 106.459 10.4316C106.376 10.1109 106.301 9.8276 106.249 9.57408C106.219 9.68593 106.181 9.82014 106.136 9.96927C106.091 10.1184 106.039 10.2675 105.994 10.4167C105.934 10.5732 105.889 10.7298 105.836 10.879C105.791 11.0281 105.746 11.1623 105.709 11.2891L104.62 14.8383H107.75L106.714 11.304Z" fill="#595959" fill-opacity="0.7"/>
<path d="M112.29 9.90213C112.29 9.753 112.29 9.61133 112.275 9.48457C112.267 9.35781 112.26 9.23105 112.26 9.11175C112.252 8.99245 112.237 8.86569 112.222 8.73893C112.207 8.61217 112.2 8.4705 112.185 8.30646H115.074C115.742 8.30646 116.342 8.36611 116.86 8.49287C117.378 8.61963 117.821 8.80604 118.188 9.05956C118.541 9.32053 118.804 9.65607 118.991 10.0513C119.179 10.4464 119.269 10.9162 119.269 11.4531C119.269 11.9154 119.194 12.3478 119.044 12.7579C118.894 13.168 118.676 13.5259 118.391 13.8317C118.098 14.1448 117.738 14.3834 117.31 14.5624C116.883 14.7413 116.387 14.8308 115.832 14.8308H113.791V17.6419C113.791 17.7761 113.791 17.8954 113.791 17.9998C113.791 18.1042 113.791 18.216 113.791 18.313C113.798 18.4174 113.813 18.5217 113.821 18.6336C113.828 18.7454 113.843 18.8647 113.866 18.984H112.207C112.215 18.8647 112.23 18.7454 112.237 18.6336C112.245 18.5217 112.26 18.4099 112.267 18.313C112.267 18.2086 112.267 18.1042 112.282 17.9998C112.29 17.8954 112.297 17.7761 112.297 17.6419L112.282 9.88722L112.29 9.90213ZM113.791 13.6154H115.404C115.757 13.6154 116.065 13.5707 116.342 13.4738C116.612 13.3768 116.853 13.2426 117.048 13.0637C117.235 12.8922 117.378 12.6759 117.483 12.4149C117.58 12.154 117.633 11.8483 117.633 11.5127C117.633 11.1995 117.58 10.9237 117.483 10.6776C117.385 10.4315 117.243 10.2228 117.048 10.0513C116.853 9.87976 116.612 9.753 116.342 9.67098C116.065 9.58896 115.757 9.54422 115.404 9.54422H113.791V13.608V13.6154Z" fill="#595959" fill-opacity="0.7"/>
<path d="M126.18 18.1713C126.12 17.9104 126.045 17.6419 125.963 17.366L125.565 16.1283H121.715L121.348 17.366C121.265 17.6494 121.183 17.9178 121.115 18.1788C121.047 18.4398 120.972 18.7082 120.912 18.999H119.156C119.224 18.8499 119.284 18.7082 119.336 18.5814C119.389 18.4547 119.442 18.3279 119.487 18.2086C119.532 18.0893 119.584 17.9625 119.629 17.8358C119.674 17.709 119.727 17.5674 119.787 17.4182L122.818 8.28412H124.702L127.659 17.4182C127.741 17.7016 127.831 17.9551 127.921 18.1937C128.011 18.4248 128.124 18.6933 128.267 18.999H126.383C126.316 18.7082 126.255 18.4323 126.195 18.1713H126.18ZM124.192 11.304C124.109 11.043 124.019 10.7522 123.937 10.4316C123.854 10.1109 123.779 9.8276 123.726 9.57408C123.696 9.68593 123.659 9.82014 123.614 9.96927C123.569 10.1184 123.516 10.2675 123.471 10.4167C123.411 10.5732 123.366 10.7298 123.314 10.879C123.269 11.0281 123.224 11.1623 123.186 11.2891L122.098 14.8383H125.227L124.192 11.304Z" fill="#595959" fill-opacity="0.7"/>
<path d="M129.768 9.71573C129.768 9.4473 129.768 9.21615 129.768 9.0372C129.768 8.85824 129.752 8.61218 129.73 8.30647H131.584L134.218 13.5856C134.473 14.1001 134.72 14.6444 134.968 15.2111C135.216 15.7778 135.448 16.3221 135.673 16.8515C135.651 16.6353 135.643 16.3445 135.628 15.9717C135.621 15.5988 135.606 15.226 135.598 14.8532C135.591 14.4878 135.576 14.1448 135.568 13.8317C135.561 13.5185 135.553 13.3023 135.553 13.1904V9.65608C135.553 9.40256 135.553 9.17887 135.538 8.985C135.531 8.79113 135.516 8.56744 135.493 8.29901H137.009C136.979 8.55999 136.964 8.79113 136.957 8.985C136.957 9.17887 136.957 9.40256 136.957 9.65608V18.2533C136.957 18.4621 136.972 18.7082 137.002 18.999H135.306L132.844 13.9361C132.477 13.183 132.146 12.4746 131.846 11.8035C131.546 11.1324 131.298 10.5583 131.103 10.0811C131.103 10.275 131.103 10.5658 131.118 10.9535C131.126 11.3412 131.141 11.729 131.148 12.1242C131.156 12.5268 131.171 12.8922 131.178 13.2128C131.186 13.5334 131.201 13.7422 131.208 13.8242V17.6494C131.208 17.9029 131.208 18.1266 131.208 18.3279C131.208 18.5218 131.231 18.7529 131.261 19.0064H129.715C129.737 18.7529 129.745 18.5292 129.76 18.3279C129.767 18.134 129.775 17.9029 129.775 17.6494V9.71573H129.768Z" fill="#595959" fill-opacity="0.7"/>
<path d="M149.887 18.9244C149.309 19.0661 148.716 19.1406 148.123 19.1406C147.455 19.1406 146.832 19.0362 146.262 18.8275C145.692 18.6187 145.196 18.2831 144.784 17.8358C144.356 17.3958 144.026 16.8291 143.786 16.1506C143.545 15.4646 143.425 14.6593 143.425 13.7273C143.425 12.7952 143.545 12.0421 143.778 11.3561C144.011 10.6701 144.341 10.0811 144.769 9.60387C145.181 9.13412 145.677 8.77621 146.247 8.53761C146.817 8.29154 147.433 8.17224 148.093 8.17224C148.686 8.17224 149.256 8.26172 149.789 8.44813C150.329 8.63454 150.795 8.88806 151.192 9.23105L150.442 10.1631C150.082 9.90959 149.714 9.72318 149.346 9.59642C148.971 9.46966 148.566 9.41001 148.123 9.41001C147.62 9.41001 147.185 9.50694 146.802 9.69335C146.427 9.87976 146.112 10.1556 145.857 10.521C145.602 10.8938 145.414 11.3636 145.286 11.9154C145.159 12.4671 145.099 13.1084 145.099 13.8466C145.099 14.5251 145.151 15.1216 145.256 15.6436C145.362 16.1655 145.542 16.5905 145.797 16.9335C146.044 17.2914 146.367 17.5599 146.765 17.7388C147.163 17.9178 147.658 18.0073 148.243 18.0073C148.558 18.0073 148.829 17.9774 149.069 17.9252C149.309 17.8656 149.579 17.7612 149.872 17.6046V14.6071H147.906L147.748 13.3545H151.53C151.485 13.6378 151.455 13.8764 151.455 14.0777C151.455 14.279 151.455 14.5177 151.455 14.801V18.3204C151.005 18.6038 150.487 18.8125 149.902 18.9617L149.887 18.9244Z" fill="#595959" fill-opacity="0.7"/>
<path d="M156.145 18.8126C155.582 18.574 155.11 18.2161 154.719 17.7388C154.322 17.2765 154.022 16.7099 153.804 16.0239C153.594 15.3379 153.489 14.5475 153.489 13.6602C153.489 12.7729 153.601 11.9676 153.819 11.2816C154.044 10.5956 154.352 10.0215 154.749 9.5517C155.14 9.10431 155.605 8.75386 156.153 8.51526C156.701 8.27665 157.308 8.15735 157.969 8.15735C158.629 8.15735 159.222 8.27665 159.777 8.51526C160.333 8.75386 160.805 9.09686 161.203 9.5517C161.593 10.0215 161.894 10.6031 162.119 11.289C162.344 11.975 162.449 12.7729 162.449 13.6751C162.449 14.5177 162.351 15.2782 162.156 15.9642C161.961 16.6428 161.683 17.2169 161.316 17.6866C160.941 18.1639 160.475 18.5367 159.927 18.7902C159.38 19.0512 158.749 19.1779 158.044 19.1779C157.338 19.1779 156.716 19.0586 156.153 18.82L156.145 18.8126ZM159.177 17.7612C159.515 17.5748 159.792 17.3064 160.018 16.941C160.243 16.5831 160.415 16.1432 160.528 15.6212C160.64 15.0993 160.7 14.4878 160.7 13.7944C160.7 13.0413 160.64 12.3926 160.528 11.8334C160.415 11.2741 160.243 10.8118 160.018 10.4465C159.792 10.0811 159.507 9.80522 159.162 9.62626C158.817 9.43985 158.412 9.35038 157.954 9.35038C157.496 9.35038 157.083 9.43985 156.738 9.62626C156.385 9.81267 156.1 10.0736 155.875 10.4241C155.642 10.7895 155.462 11.2368 155.35 11.7588C155.237 12.2807 155.177 12.8922 155.177 13.5856C155.177 14.3238 155.237 14.98 155.357 15.5317C155.477 16.091 155.65 16.5533 155.89 16.9186C156.115 17.2915 156.408 17.5748 156.761 17.7612C157.113 17.9476 157.526 18.0446 157.999 18.0446C158.472 18.0446 158.847 17.9551 159.185 17.7687L159.177 17.7612Z" fill="#595959" fill-opacity="0.7"/>
<path d="M164.723 9.29072C164.715 9.18634 164.708 9.07449 164.708 8.96264C164.7 8.85825 164.685 8.75386 164.678 8.64947C164.67 8.54508 164.655 8.42578 164.648 8.29156H166.344C166.314 8.54508 166.291 8.76878 166.284 8.9701C166.269 9.16397 166.261 9.39511 166.261 9.64863V17.7538H168.94C169.195 17.7538 169.42 17.7538 169.631 17.7314C169.833 17.7165 170.073 17.6941 170.358 17.6643L170.163 19.0735C169.878 19.0512 169.638 19.0437 169.428 19.0288C169.218 19.0213 168.985 19.0139 168.723 19.0139H164.633C164.663 18.8051 164.685 18.6038 164.708 18.395C164.73 18.1862 164.745 17.9551 164.745 17.709V9.64863C164.745 9.52933 164.745 9.41003 164.73 9.30564L164.723 9.29072Z" fill="#595959" fill-opacity="0.7"/>
<path d="M172.212 18.2534C172.227 18.0073 172.235 17.7463 172.235 17.4853V9.87235C172.235 9.61883 172.235 9.35785 172.212 9.09688C172.197 8.8359 172.175 8.57493 172.152 8.3065H176.445C176.655 8.3065 176.85 8.3065 177.045 8.29158C177.24 8.28413 177.48 8.26176 177.758 8.23193L177.615 9.62628C177.39 9.59646 177.165 9.58155 176.947 9.56663C176.73 9.55918 176.52 9.55172 176.324 9.55172H173.75V12.758H175.461C175.687 12.758 175.897 12.758 176.092 12.7431C176.287 12.7356 176.535 12.7132 176.85 12.6834V14.0479C176.565 14.0181 176.317 14.0032 176.099 13.9883C175.882 13.9808 175.672 13.9734 175.461 13.9734H173.75V17.4481C173.75 17.709 173.75 17.97 173.773 18.231C173.788 18.492 173.81 18.738 173.833 18.9841H172.145C172.175 18.7306 172.197 18.4771 172.205 18.231L172.212 18.2534Z" fill="#595959" fill-opacity="0.7"/>
</svg>
