<svg width="92" height="26" viewBox="0 0 92 26" fill="none" xmlns="http://www.w3.org/2000/svg">
<path d="M13.8899 23.4086L12.176 25.1116L12.9878 25.9183L14.7018 24.2152L13.8899 23.4086Z" fill="#595959" fill-opacity="0.7"/>
<path d="M12.9769 0.115097L12.1662 0.922913L25.169 13.8067L25.9797 12.9988L12.9769 0.115097Z" fill="#595959" fill-opacity="0.7"/>
<path d="M0.828279 12.1946L0.0148468 12.9998L12.9746 25.9263L13.788 25.1211L0.828279 12.1946Z" fill="#595959" fill-opacity="0.7"/>
<path d="M12.98 0.0982631L0.00439453 13.009L0.816837 13.8152L13.7925 0.90439L12.98 0.0982631Z" fill="#595959" fill-opacity="0.7"/>
<path d="M25.151 12.2076L14.6019 22.6893L15.4138 23.496L25.9629 13.0143L25.151 12.2076Z" fill="#595959" fill-opacity="0.7"/>
<path d="M12.9905 4.95481L4.87137 13.0108L5.68268 13.8181L13.8018 5.76206L12.9905 4.95481Z" fill="#595959" fill-opacity="0.7"/>
<path d="M20.2955 12.205L15.3332 17.1339L16.1449 17.9407L21.1072 13.0118L20.2955 12.205Z" fill="#595959" fill-opacity="0.7"/>
<path d="M5.68758 12.202L4.87514 13.0081L15.4168 23.4971L16.2293 22.691L5.68758 12.202Z" fill="#595959" fill-opacity="0.7"/>
<path d="M12.9863 4.94983L12.175 5.75708L20.2941 13.8131L21.1054 13.0058L12.9863 4.94983Z" fill="#595959" fill-opacity="0.7"/>
<path d="M11.1063 14.3685L11.7667 13.4141L16.2318 17.8506L15.4213 18.6559L11.1063 14.3685Z" fill="#595959" fill-opacity="0.7"/>
<path d="M13.11 11.3263L15.6464 10.4986C15.6314 10.9534 15.3237 12.0644 15.3237 12.7132L15.5714 17.1795H14.3106V13.2724C14.3106 13.1233 14.2956 12.9667 14.2581 12.8772C14.1756 12.5789 13.7929 12.057 13.14 12.0197C12.6822 11.9899 13.1024 11.3337 13.1024 11.3337L13.11 11.3263Z" fill="#595959" fill-opacity="0.7"/>
<path d="M13.125 12.0123C12.4646 12.0495 12.0819 12.5715 11.9993 12.8697C11.9693 12.9667 11.9468 13.1233 11.9468 13.2649L11.9993 15.308L10.9862 14.3685L10.9337 12.7057C10.9337 12.0645 10.626 10.946 10.611 10.4911L13.1475 11.3188C13.1475 11.3188 13.5677 11.9824 13.11 12.0048L13.125 12.0123Z" fill="#595959" fill-opacity="0.7"/>
<path d="M10.6186 10.4988C10.6186 10.4988 12.022 10.8493 13.1476 10.8493V11.4309L10.7987 10.8791L10.6186 10.4988Z" fill="#595959" fill-opacity="0.7"/>
<path d="M15.6389 10.506C15.6389 10.506 14.2581 10.8565 13.14 10.8565L13.1175 11.5127L15.4663 10.8938L15.6464 10.5135L15.6389 10.506Z" fill="#595959" fill-opacity="0.7"/>
<path d="M30.2124 9.29066C30.2049 9.18627 30.1974 9.07443 30.1974 8.96258C30.1899 8.85819 30.1748 8.7538 30.1673 8.64941C30.1598 8.54502 30.1448 8.42572 30.1373 8.2915H31.8333C31.8033 8.54502 31.7808 8.76871 31.7733 8.97004C31.7583 9.1639 31.7508 9.39505 31.7508 9.64857V17.7537H34.4298C34.685 17.7537 34.9101 17.7537 35.1202 17.7313C35.3228 17.7164 35.563 17.694 35.8481 17.6642L35.653 19.0735C35.3679 19.0511 35.1277 19.0437 34.9176 19.0287C34.7075 19.0213 34.4748 19.0138 34.2122 19.0138H30.1223C30.1523 18.8051 30.1748 18.6037 30.1974 18.3949C30.2199 18.1862 30.2349 17.955 30.2349 17.709V9.64857C30.2349 9.52927 30.2349 9.40997 30.2199 9.30558L30.2124 9.29066Z" fill="#595959" fill-opacity="0.7"/>
<path d="M44.4481 16.0611C44.4481 16.4935 44.3731 16.8962 44.2305 17.2765C44.0804 17.6567 43.8628 17.9848 43.5701 18.2682C43.2699 18.5515 42.8872 18.7752 42.4219 18.9392C41.9567 19.1033 41.4088 19.1853 40.7635 19.1853C40.1181 19.1853 39.6003 19.1257 39.1425 18.9989C38.6848 18.8721 38.302 18.6783 38.0019 18.4173C37.6867 18.1638 37.4616 17.8432 37.3115 17.4554C37.1614 17.0677 37.0863 16.6054 37.0863 16.0834V9.66346C37.0863 9.40995 37.0863 9.1788 37.0638 8.97747C37.0488 8.76869 37.0263 8.55246 37.0038 8.31385H38.7148C38.6848 8.55991 38.6623 8.78361 38.6548 8.98493C38.6397 9.18625 38.6322 9.4174 38.6322 9.67092V15.5391C38.6322 15.9119 38.6698 16.2475 38.7523 16.5383C38.8349 16.8291 38.9624 17.0751 39.1425 17.269C39.3151 17.4778 39.5328 17.6269 39.8029 17.7313C40.0731 17.8357 40.3958 17.8879 40.771 17.8879C41.1237 17.8879 41.4314 17.8432 41.7015 17.7462C41.9717 17.6493 42.1968 17.5076 42.3919 17.3063C42.5645 17.1199 42.6921 16.8738 42.7896 16.583C42.8872 16.2848 42.9322 15.9418 42.9322 15.5317V9.66346C42.9322 9.43977 42.9322 9.21608 42.9097 8.99239C42.8947 8.76869 42.8722 8.545 42.8497 8.3064H44.5457C44.5156 8.53755 44.4931 8.76869 44.4856 8.99239C44.4706 9.21608 44.4631 9.43232 44.4631 9.66346V16.0685L44.4481 16.0611Z" fill="#595959" fill-opacity="0.7"/>
<path d="M52.2676 18.1787C52.1626 17.9475 52.0425 17.7015 51.8999 17.4405L50.3165 14.4729L48.7706 17.4405C48.6205 17.7313 48.4929 17.9848 48.3954 18.2011C48.2978 18.4173 48.1853 18.6857 48.0652 19.0064H45.9865C46.0916 18.8498 46.1816 18.7081 46.2642 18.5888C46.3467 18.4695 46.4217 18.3576 46.4968 18.2458C46.5643 18.1414 46.6319 18.037 46.6919 17.9326C46.7594 17.8282 46.8345 17.7015 46.917 17.5598L49.4085 13.2649L47.2847 9.66346C47.1872 9.52179 47.1121 9.40249 47.0446 9.2981C46.9771 9.19371 46.917 9.09678 46.857 8.99984C46.7895 8.90291 46.7219 8.80598 46.6544 8.70159C46.5868 8.5972 46.5043 8.47044 46.4067 8.3064H48.4629C48.583 8.61957 48.6881 8.86563 48.7781 9.05204C48.8607 9.23845 48.9882 9.47705 49.1458 9.76785L50.279 11.8929L51.3821 9.76785C51.5322 9.47705 51.6523 9.23845 51.7423 9.05204C51.8324 8.86563 51.9374 8.61957 52.0575 8.3064H54.0687C53.9636 8.46298 53.8811 8.5972 53.806 8.70159C53.7385 8.80598 53.6634 8.90291 53.6034 8.99984C53.5359 9.09678 53.4758 9.19371 53.4158 9.2981C53.3558 9.40249 53.2807 9.52179 53.1982 9.66346L51.232 13.1382L53.7535 17.5598C53.821 17.694 53.8886 17.8133 53.9486 17.9177C54.0161 18.0221 54.0837 18.134 54.1587 18.2458C54.2263 18.3502 54.3013 18.462 54.3764 18.5813C54.4589 18.7006 54.5565 18.8423 54.669 19.0064H52.6429C52.5003 18.6857 52.3802 18.4098 52.2751 18.1861L52.2676 18.1787Z" fill="#595959" fill-opacity="0.7"/>
<path d="M63.5917 16.0611C63.5917 16.4935 63.5167 16.8962 63.3741 17.2765C63.224 17.6567 63.0064 17.9848 62.7137 18.2682C62.4135 18.5515 62.0308 18.7752 61.5655 18.9392C61.1003 19.1033 60.5524 19.1853 59.9071 19.1853C59.2617 19.1853 58.7439 19.1257 58.2861 18.9989C57.8284 18.8721 57.4456 18.6783 57.1455 18.4173C56.8303 18.1638 56.6052 17.8432 56.4551 17.4554C56.305 17.0677 56.2299 16.6054 56.2299 16.0834V9.66346C56.2299 9.40995 56.2299 9.1788 56.2074 8.97747C56.1924 8.76869 56.1699 8.55246 56.1474 8.31385H57.8584C57.8284 8.55991 57.8058 8.78361 57.7983 8.98493C57.7833 9.18625 57.7758 9.4174 57.7758 9.67092V15.5391C57.7758 15.9119 57.8134 16.2475 57.8959 16.5383C57.9784 16.8291 58.106 17.0751 58.2861 17.269C58.4587 17.4778 58.6764 17.6269 58.9465 17.7313C59.2167 17.8357 59.5393 17.8879 59.9146 17.8879C60.2673 17.8879 60.575 17.8432 60.8451 17.7462C61.1153 17.6493 61.3404 17.5076 61.5355 17.3063C61.7081 17.1199 61.8357 16.8738 61.9332 16.583C62.0308 16.2848 62.0758 15.9418 62.0758 15.5317V9.66346C62.0758 9.43977 62.0758 9.21608 62.0533 8.99239C62.0383 8.76869 62.0158 8.545 61.9933 8.3064H63.6893C63.6592 8.53755 63.6367 8.76869 63.6292 8.99239C63.6142 9.21608 63.6067 9.43232 63.6067 9.66346V16.0685L63.5917 16.0611Z" fill="#595959" fill-opacity="0.7"/>
<path d="M70.7133 14.6295C70.8559 14.7786 71.0135 14.9501 71.1711 15.1365C71.3137 15.3304 71.4638 15.5466 71.6213 15.7852C71.7789 16.0164 71.959 16.2848 72.1617 16.5756L72.9121 17.7463C72.9946 17.8879 73.0697 18.0072 73.1297 18.1042C73.1898 18.2011 73.2573 18.2906 73.3173 18.3801C73.3774 18.477 73.4374 18.5665 73.5049 18.6634C73.5725 18.7603 73.6625 18.8722 73.7676 19.0139H71.7414C71.6814 18.8946 71.6364 18.7902 71.5913 18.7081C71.5463 18.6261 71.5088 18.5516 71.4713 18.477C71.4337 18.4024 71.3962 18.3204 71.3587 18.2384C71.3212 18.1564 71.2761 18.052 71.2161 17.9252L70.9309 17.3362C70.7734 17.0081 70.6083 16.7098 70.4507 16.4414C70.2931 16.173 70.1355 15.9269 69.9854 15.7032C69.8128 15.487 69.6477 15.2931 69.4901 15.1142C69.3325 14.9352 69.1674 14.7786 69.0098 14.6369C68.8748 14.5251 68.7397 14.4431 68.6046 14.3909C68.4695 14.3387 68.2744 14.3089 68.0193 14.3014V17.6643C68.0193 17.7985 68.0193 17.9178 68.0193 18.0222C68.0193 18.1265 68.0193 18.2384 68.0193 18.3353C68.0268 18.4397 68.0418 18.5441 68.0493 18.656C68.0568 18.7678 68.0718 18.8871 68.0943 19.0064H66.4208C66.4283 18.8871 66.4433 18.7678 66.4509 18.656C66.4584 18.5441 66.4734 18.4323 66.4809 18.3353C66.4809 18.2309 66.4809 18.1265 66.4959 18.0222C66.5034 17.9178 66.5109 17.7985 66.5109 17.6643V9.90958C66.5109 9.76045 66.5109 9.61878 66.4959 9.49202C66.4884 9.36526 66.4809 9.2385 66.4809 9.1192C66.4734 8.99989 66.4584 8.87313 66.4433 8.74638C66.4283 8.61962 66.4208 8.47794 66.4058 8.3139H69.6927C70.1805 8.3139 70.6458 8.38101 71.0735 8.50777C71.5013 8.64199 71.8765 8.8284 72.1842 9.08192C72.4994 9.34289 72.7395 9.66352 72.9121 10.0363C73.0847 10.4092 73.1747 10.8416 73.1747 11.3188C73.1747 11.7066 73.1147 12.0719 72.9946 12.4149C72.8746 12.7654 72.702 13.0636 72.4768 13.3321C72.2517 13.608 71.9741 13.8167 71.6514 13.9733C71.3287 14.1299 70.9535 14.2045 70.5407 14.2045H70.2255C70.3831 14.3387 70.5407 14.4804 70.6833 14.6295H70.7133ZM68.0268 13.2351H69.1749C69.6252 13.2351 70.0079 13.1904 70.3231 13.1084C70.6383 13.0264 70.8859 12.8996 71.0735 12.7281C71.2536 12.5715 71.3812 12.3702 71.4638 12.139C71.5463 11.9079 71.5838 11.6395 71.5838 11.3338C71.5838 11.028 71.5313 10.7894 71.4337 10.5657C71.3362 10.342 71.1861 10.1556 70.991 9.99905C70.7809 9.85738 70.5332 9.74554 70.233 9.67097C69.9329 9.58895 69.5877 9.55167 69.1899 9.55167H68.0268V13.2351Z" fill="#595959" fill-opacity="0.7"/>
<path d="M79.1332 17.6568C79.1332 17.8507 79.1332 18.0669 79.1482 18.2906C79.1557 18.5143 79.1782 18.7529 79.2083 19.0064H77.4973C77.5273 18.7529 77.5423 18.5143 77.5498 18.2906C77.5498 18.0669 77.5498 17.8507 77.5498 17.6568V14.6891L74.8182 9.61132C74.7432 9.46965 74.6756 9.35035 74.6231 9.26087C74.5631 9.16394 74.5105 9.07446 74.4505 8.97753C74.4055 8.88059 74.3454 8.79111 74.2854 8.68672C74.2254 8.58979 74.1428 8.46303 74.0528 8.3139H76.0789C76.184 8.6047 76.2741 8.83585 76.3566 9.01481C76.4391 9.19376 76.5442 9.42491 76.6868 9.7008L77.6774 11.6842C77.7824 11.9004 77.91 12.1614 78.0601 12.4746C78.2102 12.7878 78.3453 13.0786 78.4728 13.3619C78.5854 13.0636 78.698 12.7878 78.803 12.5491C78.9081 12.3031 79.0432 12.0272 79.1932 11.7066L80.1013 9.75299C80.1688 9.61132 80.2288 9.48456 80.2814 9.37272C80.3339 9.26087 80.3864 9.14902 80.4315 9.03718C80.4765 8.93279 80.529 8.8284 80.5815 8.71655C80.6341 8.6047 80.6866 8.47049 80.7466 8.32136H82.6903C82.5852 8.47049 82.5027 8.59725 82.4426 8.69418C82.3826 8.79111 82.3226 8.88805 82.2625 8.98498C82.2025 9.08192 82.15 9.17139 82.0899 9.26833C82.0299 9.36526 81.9698 9.4771 81.9023 9.61878L79.1407 14.7115V17.6643L79.1332 17.6568Z" fill="#595959" fill-opacity="0.7"/>
<path d="M84.0786 9.71567C84.0786 9.44724 84.0786 9.21609 84.0786 9.03714C84.0786 8.85818 84.0636 8.61212 84.041 8.30641H85.8946L88.5286 13.5855C88.7838 14.1 89.0314 14.6444 89.2791 15.211C89.5267 15.7777 89.7594 16.3221 89.9845 16.8515C89.962 16.6352 89.9545 16.3444 89.9395 15.9716C89.9319 15.5988 89.9169 15.226 89.9094 14.8531C89.9019 14.4878 89.8869 14.1448 89.8794 13.8316C89.8719 13.5184 89.8644 13.3022 89.8644 13.1904V9.65602C89.8644 9.4025 89.8644 9.17881 89.8494 8.98494C89.8419 8.79107 89.8269 8.56738 89.8044 8.29895H91.3203C91.2902 8.55992 91.2752 8.79107 91.2677 8.98494C91.2677 9.17881 91.2677 9.4025 91.2677 9.65602V18.2533C91.2677 18.462 91.2827 18.7081 91.3128 18.9989H89.6168L87.1553 13.936C86.7876 13.1829 86.4574 12.4745 86.1573 11.8035C85.8571 11.1324 85.6094 10.5582 85.4143 10.081C85.4143 10.2749 85.4143 10.5657 85.4293 10.9534C85.4368 11.3412 85.4519 11.7289 85.4594 12.1241C85.4669 12.5267 85.4819 12.8921 85.4894 13.2127C85.4969 13.5334 85.5119 13.7421 85.5194 13.8242V17.6493C85.5194 17.9028 85.5194 18.1265 85.5194 18.3278C85.5194 18.5217 85.5419 18.7528 85.5719 19.0064H84.026C84.0485 18.7528 84.056 18.5292 84.0711 18.3278C84.0786 18.134 84.0861 17.9028 84.0861 17.6493V9.71567H84.0786Z" fill="#595959" fill-opacity="0.7"/>
</svg>
