<svg width="366" height="52" viewBox="0 0 366 52" fill="none" xmlns="http://www.w3.org/2000/svg">
<g clip-path="url(#clip0_117_82)">
<path d="M27.4572 46.9379L24.0659 50.3721L25.6745 52.001L29.0657 48.5668L27.4572 46.9379Z" fill="#A89377"/>
<path d="M25.659 0.014702L24.0527 1.64587L49.7638 27.6097L51.3701 25.9785L25.659 0.014702Z" fill="#A89377"/>
<path d="M1.64288 24.3503L0.03125 25.9761L25.6571 52.0261L27.2687 50.4003L1.64288 24.3503Z" fill="#A89377"/>
<path d="M25.6705 -0.0201187L0.0131836 25.9982L1.62285 27.6259L27.2801 1.60764L25.6705 -0.0201187Z" fill="#A89377"/>
<path d="M49.7338 24.3751L28.874 45.4989L30.4723 47.1174L51.3321 25.9936L49.7338 24.3751Z" fill="#A89377"/>
<path d="M25.6743 9.74383L9.61865 25.98L11.2261 27.61L27.2817 11.3739L25.6743 9.74383Z" fill="#A89377"/>
<path d="M40.1201 24.3815L30.3135 34.3088L31.9115 35.9276L41.7181 26.0004L40.1201 24.3815Z" fill="#A89377"/>
<path d="M11.2308 24.3676L9.62109 25.9954L30.4663 47.1339L32.076 45.5062L11.2308 24.3676Z" fill="#A89377"/>
<path d="M25.6787 9.75436L24.0713 11.3844L40.1269 27.6205L41.7343 25.9905L25.6787 9.75436Z" fill="#A89377"/>
<path d="M21.9512 28.7439L23.2697 26.8218L32.0937 35.7574L30.4854 37.3714L21.9512 28.7439Z" fill="#A89377"/>
<path d="M25.9215 22.596L30.9348 20.9233C30.9059 21.833 30.2973 24.078 30.2973 25.3838L30.7899 34.3929H28.2978V26.5136C28.2978 26.2202 28.2688 25.8974 28.1964 25.7066C28.037 25.1051 27.2835 24.0486 25.9795 23.9753C25.0812 23.9166 25.907 22.5814 25.907 22.5814L25.9215 22.596Z" fill="#A89377"/>
<path d="M25.9505 23.9899C24.6464 24.0633 23.893 25.1197 23.7336 25.7213C23.6611 25.912 23.6322 26.2202 23.6322 26.5283L23.7336 30.6366L21.7341 28.7439L21.6326 25.3985C21.6326 24.1073 21.0241 21.8624 20.9951 20.938L26.0084 22.6107C26.0084 22.6107 26.8343 23.9459 25.936 24.0046L25.9505 23.9899Z" fill="#A89377"/>
<path d="M20.9951 20.9233C20.9951 20.9233 23.7771 21.6276 25.9939 21.6276V22.8014L21.3429 21.701L20.9951 20.938V20.9233Z" fill="#A89377"/>
<path d="M30.9204 20.9526C30.9204 20.9526 28.1819 21.6569 25.9795 21.6569L25.936 22.9775L30.5726 21.7303L30.9204 20.9673V20.9526Z" fill="#A89377"/>
<path d="M59.7395 18.5022C59.725 18.2822 59.7105 18.0621 59.7105 17.842C59.696 17.6366 59.667 17.4165 59.6525 17.1964C59.638 16.9763 59.6091 16.7415 59.5946 16.4774H62.9561C62.8981 16.991 62.8547 17.4458 62.8257 17.842C62.7967 18.2381 62.7822 18.693 62.7822 19.2065V35.5372H68.0708C68.5779 35.5372 69.0271 35.5372 69.4328 35.4932C69.8385 35.4639 70.3167 35.4199 70.8817 35.3612L70.4905 38.193C69.9255 38.149 69.4473 38.1343 69.0416 38.105C68.6359 38.0903 68.1578 38.0756 67.6361 38.0756H59.5366C59.5946 37.6648 59.638 37.2393 59.696 36.8284C59.7395 36.4176 59.7684 35.9481 59.7684 35.4345V19.1919C59.7684 18.9424 59.7684 18.7077 59.7395 18.5022Z" fill="white"/>
<path d="M87.8776 32.1479C87.8776 33.0136 87.7327 33.8353 87.4429 34.5982C87.1531 35.3612 86.7184 36.0362 86.1388 36.5937C85.5448 37.166 84.7913 37.6061 83.864 37.9436C82.9367 38.2811 81.85 38.4425 80.5894 38.4425C79.3289 38.4425 78.2856 38.3104 77.3873 38.061C76.489 37.8116 75.7355 37.4154 75.127 36.8872C74.5039 36.3736 74.0548 35.728 73.7505 34.9504C73.4462 34.1727 73.3013 33.2483 73.3013 32.1919V19.2653C73.3013 18.7517 73.3013 18.2969 73.2578 17.8714C73.2289 17.4605 73.1854 17.0057 73.1274 16.5362H76.5179C76.46 17.035 76.4165 17.4752 76.3875 17.886C76.3586 18.2969 76.3441 18.7517 76.3441 19.2653V31.0915C76.3441 31.8544 76.4165 32.5147 76.5759 33.1016C76.7353 33.6885 76.9961 34.1727 77.3438 34.5689C77.6771 34.9797 78.1118 35.3025 78.6479 35.5079C79.184 35.7134 79.8215 35.8161 80.5605 35.8161C81.2559 35.8161 81.8645 35.728 82.4006 35.5373C82.9367 35.3465 83.3859 35.0531 83.7626 34.6569C84.0959 34.2754 84.3567 33.7912 84.545 33.1897C84.7334 32.5881 84.8203 31.8838 84.8203 31.0768V19.2506C84.8203 18.7958 84.8203 18.3409 84.7768 17.9007C84.7479 17.4605 84.7044 16.991 84.6464 16.5215H88.008C87.95 16.991 87.9065 17.4459 87.8776 17.9007C87.8486 18.3409 87.8341 18.7958 87.8341 19.2506V32.1479H87.8776Z" fill="white"/>
<path d="M103.338 36.4176C103.135 35.9481 102.888 35.4639 102.613 34.9357L99.4689 28.9492L96.4117 34.9357C96.1074 35.5226 95.8611 36.0362 95.6727 36.4617C95.4699 36.9018 95.2526 37.4301 95.0207 38.0757H90.9058C91.1086 37.7529 91.297 37.4741 91.4564 37.2393C91.6157 37.0046 91.7751 36.7698 91.92 36.5497C92.0504 36.3443 92.1808 36.1242 92.3112 35.9041C92.4416 35.684 92.5865 35.4346 92.7604 35.1558L97.6868 26.5136L93.4849 19.2506C93.2965 18.9718 93.1371 18.7224 93.0067 18.517C92.8763 18.3116 92.7604 18.1061 92.6445 17.9154C92.5141 17.7246 92.3837 17.5339 92.2388 17.3138C92.0939 17.1084 91.9345 16.8443 91.7461 16.5215H95.8032C96.0495 17.1524 96.2523 17.6513 96.4262 18.0181C96.6001 18.3996 96.8319 18.8838 97.1507 19.4707L99.3965 23.7551L101.584 19.4707C101.889 18.8838 102.12 18.3996 102.294 18.0181C102.468 17.6366 102.686 17.1377 102.932 16.5215H106.902C106.699 16.8443 106.525 17.1084 106.38 17.3138C106.235 17.5192 106.105 17.7246 105.975 17.9154C105.844 18.1061 105.714 18.2969 105.598 18.517C105.482 18.7224 105.337 18.9718 105.163 19.2506L101.266 26.2495L106.25 35.1558C106.38 35.4199 106.511 35.6547 106.641 35.8748C106.772 36.0949 106.916 36.3149 107.061 36.5497C107.192 36.7551 107.337 36.9899 107.496 37.2246C107.655 37.4741 107.844 37.7529 108.076 38.0757H104.077C103.801 37.4301 103.555 36.8872 103.352 36.4176H103.338Z" fill="white"/>
<path d="M125.738 32.1479C125.738 33.0136 125.594 33.8353 125.304 34.5982C125.014 35.3612 124.579 36.0362 124 36.5937C123.406 37.166 122.652 37.6061 121.725 37.9436C120.798 38.2811 119.711 38.4425 118.45 38.4425C117.19 38.4425 116.146 38.3104 115.248 38.061C114.35 37.8116 113.596 37.4154 112.988 36.8872C112.365 36.3736 111.916 35.728 111.611 34.9504C111.307 34.1727 111.162 33.2483 111.162 32.1919V19.2653C111.162 18.7517 111.162 18.2969 111.119 17.8714C111.09 17.4605 111.046 17.0057 110.988 16.5362H114.379C114.321 17.035 114.277 17.4752 114.248 17.886C114.219 18.2969 114.205 18.7517 114.205 19.2653V31.0915C114.205 31.8544 114.277 32.5147 114.437 33.1016C114.596 33.6885 114.857 34.1727 115.205 34.5689C115.538 34.9797 115.973 35.3025 116.509 35.5079C117.045 35.7134 117.682 35.8161 118.421 35.8161C119.117 35.8161 119.725 35.728 120.261 35.5373C120.798 35.3465 121.247 35.0531 121.623 34.6569C121.957 34.2754 122.218 33.7912 122.406 33.1897C122.594 32.5881 122.681 31.8838 122.681 31.0768V19.2506C122.681 18.7958 122.681 18.3409 122.638 17.9007C122.609 17.4605 122.565 16.991 122.507 16.5215H125.869C125.811 16.991 125.767 17.4459 125.738 17.9007C125.709 18.3409 125.695 18.7958 125.695 19.2506V32.1479H125.738Z" fill="white"/>
<path d="M139.808 29.2574C140.097 29.5655 140.402 29.903 140.72 30.2845C140.996 30.6807 141.3 31.1208 141.619 31.5904C141.938 32.0599 142.285 32.5881 142.677 33.175L144.154 35.5226C144.328 35.8014 144.473 36.0509 144.589 36.2416C144.705 36.4323 144.835 36.6231 144.966 36.7992C145.082 36.9899 145.198 37.1807 145.343 37.3714C145.487 37.5621 145.661 37.7969 145.864 38.0757H141.865C141.749 37.8263 141.648 37.6208 141.575 37.4594C141.503 37.298 141.416 37.1366 141.344 36.9899C141.271 36.8432 141.199 36.6818 141.126 36.5057C141.054 36.3296 140.952 36.1242 140.851 35.8748L140.286 34.6863C139.967 34.026 139.648 33.4244 139.329 32.8816C139.011 32.3387 138.706 31.8398 138.402 31.3996C138.069 30.9594 137.736 30.5633 137.417 30.2111C137.098 29.859 136.779 29.5362 136.461 29.2427C136.2 29.0226 135.939 28.8466 135.664 28.7439C135.388 28.6411 135.012 28.5825 134.505 28.5531V35.3319C134.505 35.596 134.505 35.8454 134.505 36.0509C134.505 36.2709 134.505 36.4764 134.505 36.6818C134.519 36.8872 134.548 37.1073 134.563 37.3421C134.577 37.5621 134.606 37.8116 134.649 38.0463H131.346C131.36 37.7969 131.389 37.5621 131.404 37.3421C131.418 37.1073 131.447 36.9019 131.462 36.6818C131.462 36.4764 131.462 36.2563 131.491 36.0509C131.505 35.8308 131.52 35.596 131.52 35.3319V19.7055C131.52 19.3974 131.52 19.1186 131.491 18.8691C131.462 18.6197 131.462 18.3703 131.462 18.1208C131.447 17.8714 131.418 17.622 131.389 17.3725C131.36 17.1231 131.331 16.8296 131.317 16.5068H137.808C138.779 16.5068 139.692 16.6389 140.532 16.903C141.387 17.1671 142.111 17.5633 142.734 18.0621C143.358 18.5904 143.836 19.236 144.183 19.9843C144.531 20.7326 144.705 21.5983 144.705 22.5667C144.705 23.3443 144.589 24.0779 144.357 24.7822C144.125 25.4865 143.778 26.1028 143.329 26.631C142.879 27.1739 142.329 27.6141 141.691 27.9222C141.054 28.2303 140.315 28.3917 139.489 28.3917H138.866C139.185 28.6558 139.489 28.9346 139.779 29.2427L139.808 29.2574ZM134.505 26.4549H136.779C137.678 26.4549 138.431 26.3669 139.054 26.2055C139.677 26.0441 140.17 25.78 140.532 25.4425C140.88 25.1197 141.141 24.7235 141.3 24.254C141.459 23.7845 141.532 23.2416 141.532 22.64C141.532 22.0384 141.43 21.5396 141.242 21.0994C141.054 20.6592 140.749 20.2777 140.358 19.9549C139.953 19.6761 139.445 19.456 138.866 19.2946C138.272 19.1332 137.591 19.0599 136.808 19.0599H134.519V26.4843L134.505 26.4549Z" fill="white"/>
<path d="M156.455 35.3466C156.455 35.7427 156.455 36.1682 156.484 36.6231C156.513 37.0779 156.542 37.5621 156.6 38.0757H153.21C153.268 37.5621 153.297 37.0779 153.311 36.6231C153.311 36.1682 153.311 35.7427 153.311 35.3466V29.3601L147.907 19.1186C147.762 18.8398 147.631 18.605 147.516 18.4143C147.4 18.2235 147.298 18.0328 147.182 17.8421C147.095 17.6513 146.979 17.4606 146.864 17.2551C146.748 17.0497 146.588 16.8003 146.4 16.5068H150.399C150.602 17.0937 150.79 17.5633 150.95 17.9301C151.109 18.2969 151.326 18.7518 151.602 19.324L153.558 23.315C153.76 23.7551 154.021 24.2834 154.311 24.8996C154.615 25.5305 154.876 26.1174 155.122 26.6897C155.34 26.0881 155.572 25.5305 155.774 25.0463C155.992 24.5621 156.253 23.9899 156.542 23.3443L158.339 19.3974C158.469 19.1186 158.585 18.8545 158.687 18.6344C158.788 18.3996 158.89 18.1795 158.977 17.9594C159.064 17.754 159.165 17.5339 159.266 17.2992C159.368 17.0791 159.484 16.815 159.585 16.5068H163.425C163.222 16.815 163.063 17.0644 162.932 17.2551C162.816 17.4459 162.7 17.6513 162.584 17.8421C162.469 18.0328 162.367 18.2235 162.251 18.4143C162.135 18.605 162.019 18.8398 161.889 19.1186L156.427 29.3895V35.3466H156.455Z" fill="white"/>
<path d="M171.553 19.3533C171.553 18.8104 171.553 18.3556 171.553 17.9888C171.553 17.6366 171.524 17.1378 171.481 16.5215H175.147L180.363 27.1592C180.87 28.201 181.363 29.2867 181.841 30.4312C182.319 31.5757 182.797 32.6761 183.246 33.7326C183.203 33.2924 183.174 32.7055 183.159 31.9572C183.145 31.2089 183.116 30.4606 183.101 29.6976C183.087 28.9639 183.058 28.2743 183.043 27.6434C183.029 27.0125 183.014 26.587 183.014 26.3522V19.236C183.014 18.7224 183.014 18.2822 182.985 17.8861C182.971 17.5046 182.942 17.0351 182.898 16.5068H185.898C185.84 17.0351 185.811 17.4899 185.796 17.8861C185.796 18.2676 185.796 18.7224 185.796 19.236V36.5644C185.796 36.9752 185.825 37.4741 185.883 38.061H182.522L177.653 27.8488C176.929 26.3375 176.262 24.8996 175.683 23.5497C175.089 22.1998 174.61 21.0407 174.219 20.0723C174.219 20.4685 174.219 21.0554 174.248 21.833C174.277 22.6107 174.292 23.3883 174.306 24.1807C174.321 24.9876 174.35 25.7213 174.364 26.3816C174.379 27.0418 174.408 27.4527 174.422 27.6141V35.3319C174.422 35.8454 174.422 36.3003 174.422 36.6965C174.422 37.0926 174.466 37.5475 174.524 38.061H171.466C171.51 37.5475 171.524 37.0926 171.553 36.6965C171.582 36.3003 171.582 35.8454 171.582 35.3319V19.3387L171.553 19.3533Z" fill="#A89377"/>
<path d="M207.226 38.6773C206.791 38.5305 206.415 38.2958 206.067 37.973C205.719 37.6502 205.415 37.1806 205.154 36.5497C204.618 37.2247 203.951 37.7382 203.155 38.061C202.358 38.3985 201.546 38.5599 200.706 38.5599C199.923 38.5599 199.213 38.4572 198.59 38.2664C197.967 38.061 197.431 37.7675 197.011 37.3714C196.562 36.9752 196.214 36.491 195.982 35.9041C195.736 35.3319 195.62 34.6423 195.62 33.8499C195.62 32.9402 195.78 32.1479 196.098 31.4583C196.417 30.7687 196.895 30.1964 197.547 29.7416C198.17 29.3014 198.953 28.9786 199.923 28.7438C200.894 28.5238 202.024 28.4064 203.314 28.4064H204.632V27.4086C204.632 26.8364 204.575 26.3669 204.473 25.9854C204.372 25.6039 204.212 25.2958 204.009 25.0463C203.792 24.8262 203.517 24.6648 203.198 24.5621C202.879 24.4594 202.517 24.4154 202.111 24.4154C201.329 24.4154 200.561 24.5621 199.822 24.8409C199.083 25.1197 198.301 25.5452 197.46 26.1174L196.113 23.9312C196.62 23.5937 197.141 23.2856 197.707 23.0362C198.272 22.7867 198.822 22.552 199.387 22.3759C199.923 22.1998 200.474 22.0678 201.025 21.9797C201.575 21.8917 202.111 21.833 202.633 21.833C203.546 21.833 204.328 21.9504 204.966 22.1705C205.603 22.4052 206.139 22.7574 206.545 23.2563C206.936 23.7698 207.226 24.4154 207.4 25.2077C207.574 26.0001 207.646 26.9538 207.603 28.0689L207.458 32.9109C207.458 33.4244 207.458 33.8353 207.458 34.1581C207.458 34.4809 207.516 34.7743 207.588 35.0384C207.704 35.4052 207.835 35.684 208.008 35.9041C208.182 36.1242 208.443 36.359 208.791 36.6231L207.197 38.6332L207.226 38.6773ZM204.038 30.5046C203.865 30.4899 203.749 30.4752 203.676 30.4752C202.85 30.4752 202.155 30.5486 201.561 30.6806C200.967 30.8127 200.489 31.0034 200.097 31.2529C199.706 31.517 199.416 31.8545 199.228 32.2506C199.04 32.6468 198.953 33.1163 198.953 33.6739C198.953 34.0847 198.996 34.4662 199.098 34.7743C199.199 35.0824 199.344 35.3612 199.576 35.5666C199.764 35.7867 200.01 35.9628 200.3 36.0655C200.604 36.1682 200.952 36.2269 201.358 36.2269C201.995 36.2269 202.575 36.0802 203.126 35.8014C203.662 35.5226 204.154 35.0824 204.575 34.4955V30.5486C204.386 30.5486 204.212 30.5486 204.038 30.5192V30.5046Z" fill="white"/>
<path d="M216.485 23.4764C216.847 23.1242 217.224 22.8161 217.615 22.5667C217.992 22.3319 218.369 22.1558 218.745 22.0238C219.122 21.8917 219.484 21.8184 219.818 21.8184C220.02 21.8184 220.209 21.833 220.397 21.8771C220.571 21.9211 220.716 21.9357 220.803 21.9651L220.194 25.1197C219.687 24.8996 219.137 24.8263 218.528 24.8996C217.919 24.9877 217.369 25.2224 216.891 25.6186C216.557 25.8974 216.297 26.1761 216.137 26.4256C215.978 26.675 215.833 26.9831 215.746 27.35V35.1705C215.746 35.4346 215.746 35.684 215.746 35.9188C215.746 36.1536 215.746 36.3883 215.746 36.6084C215.761 36.8285 215.79 37.078 215.804 37.3127C215.819 37.5622 215.848 37.7969 215.891 38.0464H212.529C212.573 37.5328 212.602 37.0486 212.631 36.5938C212.66 36.1389 212.674 35.6547 212.674 35.1412V25.3838C212.674 24.8703 212.66 24.3421 212.616 23.8138C212.573 23.271 212.544 22.7427 212.5 22.2145H215.688C215.674 22.3319 215.645 22.4933 215.63 22.7281C215.616 22.9628 215.601 23.1976 215.601 23.4324C215.587 23.6818 215.558 23.9166 215.543 24.1366C215.529 24.3567 215.514 24.5475 215.514 24.6795C215.775 24.21 216.094 23.7845 216.456 23.4324L216.485 23.4764Z" fill="white"/>
<path d="M232.945 37.3567C232.583 37.6061 232.206 37.8115 231.815 37.9729C231.38 38.149 230.945 38.2664 230.496 38.3544C230.047 38.4424 229.583 38.4865 229.12 38.4865C228.033 38.4865 227.091 38.3104 226.265 37.9436C225.439 37.5914 224.758 37.0485 224.222 36.3589C223.657 35.684 223.237 34.833 222.962 33.8205C222.686 32.8081 222.542 31.6637 222.542 30.3725C222.542 29.1693 222.701 28.0395 223.034 26.9977C223.367 25.956 223.831 25.0463 224.454 24.2686C225.034 23.535 225.744 22.9481 226.584 22.5079C227.424 22.0677 228.352 21.8623 229.38 21.8623C229.772 21.8623 230.148 21.9063 230.525 21.9797C230.902 22.053 231.264 22.1558 231.612 22.2585C231.945 22.4052 232.278 22.5813 232.626 22.7867C232.959 22.9921 233.264 23.2122 233.553 23.4763L232.018 25.4571C231.641 25.1343 231.235 24.8849 230.771 24.6941C230.308 24.5034 229.859 24.4154 229.38 24.4154C228.757 24.4154 228.236 24.5474 227.801 24.7968C227.366 25.0463 227.019 25.4424 226.758 25.9413C226.483 26.4695 226.265 27.1298 226.135 27.9075C226.004 28.6998 225.947 29.6095 225.947 30.6512C225.947 31.561 226.004 32.3533 226.135 33.0135C226.265 33.6885 226.468 34.2461 226.758 34.7009C227.019 35.1704 227.366 35.5226 227.801 35.7427C228.236 35.9774 228.772 36.0801 229.38 36.0801C229.989 36.0801 230.54 35.9628 231.076 35.7133C231.612 35.4639 232.104 35.1117 232.568 34.6569L234.003 36.447C233.669 36.7844 233.322 37.0926 232.959 37.342L232.945 37.3567Z" fill="white"/>
<path d="M241.363 23.6377C241.769 23.2709 242.204 22.9628 242.653 22.6987C243.087 22.4492 243.522 22.2585 243.971 22.1118C244.42 21.965 244.841 21.9064 245.232 21.9064C246.159 21.9064 246.985 22.0824 247.666 22.4346C248.347 22.7867 248.883 23.3149 249.231 24.0046C249.318 24.2246 249.419 24.6208 249.506 25.1784C249.593 25.7359 249.651 26.3082 249.651 26.8951V35.2292C249.651 35.4933 249.651 35.7427 249.651 35.9775C249.651 36.2122 249.651 36.447 249.651 36.6671C249.666 36.8872 249.695 37.1366 249.709 37.3714C249.724 37.6208 249.753 37.8556 249.796 38.105H246.521C246.536 37.8556 246.565 37.6208 246.579 37.3714C246.594 37.1219 246.623 36.8872 246.637 36.6671C246.637 36.4323 246.637 36.2122 246.666 35.9775C246.695 35.7427 246.695 35.4933 246.695 35.2292V27.2912C246.695 26.8511 246.637 26.4696 246.521 26.1321C246.405 25.7946 246.246 25.5012 246.043 25.2517C245.826 25.0316 245.565 24.8556 245.261 24.7382C244.957 24.6208 244.623 24.5621 244.247 24.5621C243.87 24.5621 243.537 24.6208 243.189 24.7529C242.827 24.8849 242.493 25.061 242.16 25.2957C241.827 25.5452 241.508 25.824 241.189 26.1468C240.885 26.4696 240.595 26.8217 240.334 27.2179V35.2145C240.334 35.4786 240.334 35.728 240.334 35.9628C240.334 36.1976 240.334 36.4323 240.334 36.6524C240.349 36.8725 240.378 37.1219 240.392 37.3567C240.407 37.6061 240.436 37.8409 240.479 38.0903H237.089C237.103 37.8409 237.132 37.6061 237.147 37.3567C237.161 37.1073 237.19 36.8725 237.205 36.6524C237.205 36.4176 237.205 36.1976 237.234 35.9628C237.248 35.728 237.263 35.4786 237.263 35.2145V19.0745C237.263 18.8251 237.263 18.5903 237.234 18.3556C237.219 18.1208 237.205 17.886 237.205 17.666C237.19 17.4312 237.161 17.2111 237.147 16.9763C237.132 16.7416 237.103 16.4921 237.089 16.228H240.479C240.436 16.4921 240.421 16.7416 240.392 16.9763C240.363 17.2111 240.349 17.4459 240.334 17.666C240.334 17.886 240.334 18.1208 240.334 18.3556C240.334 18.5903 240.334 18.8398 240.334 19.0745V22.0237C240.334 22.3319 240.334 22.772 240.334 23.3736C240.334 23.9752 240.305 24.4594 240.291 24.8409C240.595 24.386 240.943 23.9752 241.349 23.6231L241.363 23.6377Z" fill="white"/>
<path d="M253.491 25.7653C253.694 25.8093 253.896 25.824 254.114 25.8533C254.317 25.868 254.519 25.8974 254.722 25.912C254.925 25.912 255.128 25.912 255.331 25.912C255.519 25.912 255.737 25.912 255.954 25.912H264.387C264.778 25.912 265.14 25.912 265.488 25.8827C265.836 25.868 266.227 25.824 266.676 25.7653V28.5971C266.227 28.5531 265.821 28.5238 265.473 28.4944C265.111 28.4651 264.749 28.4504 264.387 28.4504H255.954C255.548 28.4504 255.143 28.4504 254.737 28.4944C254.331 28.5238 253.925 28.5531 253.491 28.5971V25.736V25.7653Z" fill="white"/>
<path d="M273.775 19.0012C273.355 19.4707 272.834 19.6908 272.225 19.6908C271.573 19.6908 271.037 19.4707 270.617 19.0305C270.197 18.5903 269.994 18.0474 269.994 17.4018C269.994 16.7562 270.197 16.2574 270.602 15.8319C271.008 15.4063 271.53 15.2009 272.167 15.2009C272.761 15.2009 273.283 15.4063 273.732 15.8319C274.181 16.2574 274.398 16.7709 274.398 17.4165C274.398 18.0181 274.196 18.561 273.775 19.0158V19.0012ZM273.703 35.2438C273.703 35.7574 273.703 36.2416 273.732 36.6964C273.746 37.1513 273.79 37.6355 273.848 38.149H270.515C270.559 37.6355 270.588 37.1513 270.617 36.6964C270.646 36.2416 270.66 35.7574 270.66 35.2438V25.3398C270.66 24.8262 270.66 24.3567 270.617 23.9018C270.588 23.4617 270.559 22.9775 270.515 22.4639H273.848C273.79 22.9775 273.761 23.447 273.732 23.9018C273.703 24.3567 273.703 24.8262 273.703 25.3398V35.2438Z" fill="white"/>
<path d="M290.757 35.1852C290.757 35.6987 290.757 36.1829 290.786 36.6378C290.815 37.0926 290.844 37.5768 290.902 38.0904H287.599C287.642 37.5768 287.671 37.0926 287.7 36.6378C287.729 36.1829 287.743 35.6987 287.743 35.1852V27.1886C287.743 26.7924 287.7 26.4256 287.599 26.1028C287.497 25.78 287.381 25.4865 287.207 25.2664C287.004 25.0464 286.758 24.8703 286.483 24.7382C286.208 24.6208 285.874 24.5475 285.498 24.5475C284.904 24.5475 284.266 24.7822 283.6 25.2371C282.933 25.692 282.368 26.2789 281.919 26.9538V35.1852C281.919 35.6987 281.919 36.1829 281.948 36.6378C281.977 37.0926 282.006 37.5768 282.064 38.0904H278.847C278.89 37.5768 278.919 37.0926 278.948 36.6378C278.977 36.1829 278.992 35.6987 278.992 35.1852V25.4278C278.992 25.1784 278.992 24.9436 278.963 24.6942C278.948 24.4448 278.919 24.21 278.905 23.9606C278.89 23.7111 278.861 23.4617 278.847 23.2123C278.833 22.9628 278.804 22.6987 278.789 22.4346H281.875C281.861 22.7134 281.832 23.1096 281.817 23.6231C281.803 24.1366 281.788 24.5181 281.788 24.7822C282.093 24.3861 282.411 24.0046 282.788 23.6524C283.165 23.3003 283.542 22.9775 283.947 22.7134C284.338 22.464 284.759 22.2732 285.193 22.1118C285.628 21.9651 286.077 21.8917 286.526 21.8917C287.12 21.8917 287.685 21.9944 288.193 22.1852C288.7 22.3759 289.163 22.684 289.555 23.0802C289.931 23.491 290.221 24.0193 290.453 24.6355C290.67 25.2664 290.786 26.0001 290.786 26.8511V35.1852H290.757Z" fill="white"/>
<path d="M300.566 22.2585C301.044 22.2439 301.653 22.1999 302.392 22.1412L301.798 24.6942C301.204 24.6502 300.682 24.6355 300.262 24.6062C299.827 24.5915 299.32 24.5768 298.726 24.5768V33.6005C298.726 34.1874 298.755 34.6423 298.813 34.9504C298.871 35.2585 299.03 35.552 299.291 35.8161C299.421 35.9628 299.61 36.0655 299.871 36.1096C300.131 36.1536 300.392 36.1682 300.668 36.1536C300.972 36.1389 301.262 36.0949 301.551 36.0362C301.841 35.9775 302.087 35.9188 302.29 35.8455L302.624 37.885C302.218 38.0904 301.74 38.2518 301.189 38.3545C300.653 38.4572 300.16 38.5159 299.74 38.5159C299.074 38.5159 298.48 38.4425 297.987 38.2811C297.494 38.1197 297.089 37.8703 296.77 37.5328C296.437 37.21 296.176 36.7992 296.016 36.3003C295.843 35.8014 295.77 35.2145 295.77 34.5249V24.6062H294.002V22.3026H295.77C295.77 21.9064 295.77 21.5249 295.77 21.1581C295.77 20.7913 295.741 20.4391 295.727 20.1017C295.712 19.7642 295.683 19.4267 295.669 19.1039C295.654 18.7811 295.625 18.473 295.611 18.1942L299.03 17.6807C298.914 18.473 298.842 19.236 298.813 19.9696C298.784 20.7032 298.769 21.4809 298.769 22.3026C299.494 22.3026 300.102 22.3026 300.595 22.2732L300.566 22.2585Z" fill="white"/>
<path d="M308.405 31.3556C308.405 32.1479 308.492 32.8375 308.651 33.4245C308.811 34.0114 309.086 34.4956 309.434 34.8771C309.767 35.2732 310.187 35.5667 310.709 35.7574C311.216 35.9482 311.839 36.0362 312.549 36.0362C313.317 36.0362 314.012 35.9188 314.65 35.6987C315.287 35.4786 315.896 35.1265 316.475 34.657L317.678 36.5057C316.91 37.1513 316.055 37.6355 315.113 37.973C314.172 38.3105 313.186 38.4865 312.158 38.4865C310.984 38.4865 309.955 38.2811 309.057 37.8703C308.173 37.4594 307.434 36.8725 306.854 36.1389C306.246 35.4053 305.782 34.5249 305.478 33.5125C305.174 32.5001 305.029 31.3996 305.029 30.2111C305.029 29.0226 305.188 27.8635 305.507 26.8364C305.826 25.8093 306.289 24.9436 306.883 24.1953C307.449 23.4764 308.13 22.9188 308.955 22.508C309.781 22.0971 310.68 21.8917 311.665 21.8917C312.65 21.8917 313.592 22.0678 314.389 22.4346C315.186 22.8014 315.838 23.3296 316.374 24.0193C316.896 24.7529 317.287 25.6479 317.562 26.719C317.837 27.7901 317.968 29.008 317.968 30.4019V30.9741H308.39V31.3703L308.405 31.3556ZM314.606 26.9098C314.461 26.3669 314.273 25.8827 313.998 25.4865C313.722 25.0904 313.389 24.7822 312.998 24.5622C312.621 24.3421 312.172 24.2394 311.665 24.2394C311.129 24.2394 310.651 24.3421 310.245 24.5181C309.839 24.7089 309.506 24.9877 309.245 25.3398C308.97 25.7213 308.753 26.1908 308.622 26.7484C308.492 27.3059 308.419 27.9515 308.419 28.6852H314.809C314.809 28.0396 314.737 27.4527 314.592 26.8951L314.606 26.9098Z" fill="white"/>
<path d="M325.836 23.4764C326.198 23.1242 326.575 22.8161 326.966 22.5667C327.343 22.3319 327.719 22.1558 328.096 22.0238C328.473 21.8917 328.835 21.8184 329.168 21.8184C329.371 21.8184 329.559 21.833 329.748 21.8771C329.922 21.9211 330.067 21.9357 330.153 21.9651L329.545 25.1197C329.038 24.8996 328.487 24.8263 327.879 24.8996C327.27 24.9877 326.734 25.2224 326.241 25.6186C325.908 25.8974 325.647 26.1761 325.488 26.4256C325.314 26.675 325.184 26.9831 325.097 27.35V35.1705C325.097 35.4346 325.097 35.684 325.097 35.9188C325.097 36.1536 325.097 36.3883 325.097 36.6084C325.111 36.8285 325.14 37.078 325.155 37.3127C325.169 37.5622 325.198 37.7969 325.242 38.0464H321.88C321.924 37.5328 321.952 37.0486 321.981 36.5938C322.01 36.1389 322.025 35.6547 322.025 35.1412V25.3838C322.025 24.8703 322.01 24.3421 321.967 23.8138C321.924 23.271 321.895 22.7427 321.851 22.2145H325.039C325.024 22.3319 324.995 22.4933 324.981 22.7281C324.966 22.9628 324.952 23.1976 324.952 23.4324C324.937 23.6818 324.908 23.9166 324.894 24.1366C324.879 24.3567 324.865 24.5475 324.865 24.6795C325.126 24.21 325.444 23.7845 325.807 23.4324L325.836 23.4764Z" fill="white"/>
<path d="M336.08 19.0012C335.659 19.4707 335.138 19.6908 334.529 19.6908C333.877 19.6908 333.341 19.4707 332.921 19.0305C332.501 18.5903 332.298 18.0474 332.298 17.4018C332.298 16.7562 332.501 16.2574 332.906 15.8319C333.312 15.4063 333.834 15.2009 334.471 15.2009C335.065 15.2009 335.587 15.4063 336.036 15.8319C336.485 16.2427 336.703 16.7709 336.703 17.4165C336.703 18.0181 336.5 18.561 336.08 19.0158V19.0012ZM336.007 35.2438C336.007 35.7574 336.007 36.2416 336.036 36.6964C336.051 37.1513 336.094 37.6355 336.152 38.149H332.819C332.863 37.6355 332.892 37.1513 332.921 36.6964C332.95 36.2416 332.964 35.7574 332.964 35.2438V25.3398C332.964 24.8262 332.964 24.3567 332.921 23.9018C332.877 23.447 332.863 22.9775 332.819 22.4639H336.152C336.094 22.9775 336.051 23.447 336.036 23.9018C336.022 24.3567 336.007 24.8262 336.007 25.3398V35.2438Z" fill="white"/>
<path d="M349.815 22.4932C350.67 22.904 351.395 23.4763 352.003 24.2099C352.583 24.9435 353.032 25.8239 353.351 26.851C353.669 27.8781 353.829 28.9932 353.829 30.2257C353.829 31.4582 353.669 32.632 353.365 33.6591C353.061 34.6862 352.612 35.5372 352.032 36.2415C351.438 36.9751 350.714 37.5327 349.859 37.9142C349.004 38.2957 348.033 38.4864 346.932 38.4864C345.918 38.4864 345.005 38.3104 344.164 37.9289C343.324 37.5621 342.6 37.0192 342.006 36.3002C341.382 35.5959 340.919 34.7302 340.571 33.7031C340.238 32.676 340.064 31.5022 340.064 30.1964C340.064 28.8905 340.238 27.7607 340.571 26.7336C340.904 25.7065 341.382 24.8408 342.006 24.0925C342.6 23.3882 343.31 22.8454 344.15 22.4639C344.976 22.0824 345.889 21.877 346.874 21.877C347.975 21.877 348.96 22.0824 349.815 22.4932ZM345.367 24.6207C344.932 24.8702 344.599 25.237 344.338 25.7065C344.063 26.2201 343.86 26.8363 343.73 27.5553C343.599 28.2742 343.527 29.0812 343.527 29.9909C343.527 31.0474 343.585 31.9718 343.73 32.7494C343.86 33.5271 344.078 34.158 344.367 34.6422C344.643 35.1557 345.005 35.5372 345.425 35.772C345.86 36.0214 346.381 36.1388 346.99 36.1388C347.569 36.1388 348.077 36.0214 348.497 35.772C348.931 35.5225 349.279 35.1557 349.554 34.6422C349.83 34.1727 350.047 33.5711 350.177 32.8374C350.308 32.1038 350.395 31.2675 350.395 30.2991C350.395 29.3307 350.322 28.4356 350.177 27.6727C350.033 26.9097 349.83 26.2641 349.554 25.7652C349.25 25.2517 348.888 24.8702 348.453 24.6207C348.019 24.3713 347.497 24.2393 346.903 24.2393C346.309 24.2393 345.787 24.3713 345.367 24.6207Z" fill="white"/>
<path d="M361.668 23.4764C362.03 23.1242 362.407 22.8161 362.798 22.5667C363.175 22.3319 363.551 22.1558 363.928 22.0238C364.305 21.8917 364.667 21.8184 365 21.8184C365.203 21.8184 365.391 21.833 365.58 21.8771C365.754 21.9211 365.899 21.9357 365.985 21.9651L365.377 25.1197C364.87 24.8996 364.319 24.8263 363.711 24.8996C363.102 24.9877 362.552 25.2224 362.073 25.6186C361.74 25.8974 361.479 26.1761 361.32 26.4256C361.161 26.675 361.016 26.9831 360.929 27.35V35.1705C360.929 35.4346 360.929 35.684 360.929 35.9188C360.929 36.1536 360.929 36.3883 360.929 36.6084C360.943 36.8285 360.972 37.078 360.987 37.3127C361.001 37.5622 361.03 37.7969 361.074 38.0464H357.712C357.756 37.5328 357.785 37.0486 357.814 36.5938C357.842 36.1389 357.857 35.6547 357.857 35.1412V25.3838C357.857 24.8703 357.842 24.3421 357.799 23.8138C357.756 23.271 357.727 22.7427 357.683 22.2145H360.871C360.856 22.3319 360.827 22.4933 360.813 22.7281C360.798 22.9628 360.784 23.1976 360.784 23.4324C360.769 23.6818 360.74 23.9166 360.726 24.1366C360.711 24.3567 360.697 24.5475 360.697 24.6795C360.958 24.21 361.276 23.7845 361.639 23.4324L361.668 23.4764Z" fill="white"/>
</g>
<defs>
<clipPath id="clip0_117_82">
<rect width="366" height="52" fill="white"/>
</clipPath>
</defs>
</svg>
